<svg xmlns="http://www.w3.org/2000/svg" width="1646" height="375.1" viewBox="172 51.9 1646 375.1"><g class="djs-group"><g class="djs-element djs-shape" data-element-id="StartEvent_Activated" style="display:block" transform="translate(180 132)"><circle cx="18" cy="18" r="18" class="djs-visual" style="stroke-linecap:round;stroke-linejoin:round;stroke:#22242a;stroke-width:2px;fill:#fff;fill-opacity:.95"/><path d="M0 0h36v36H0z" class="djs-hit djs-hit-all" style="fill:none;stroke-opacity:0;stroke:#fff;stroke-width:15px"/></g></g><g class="djs-group"><g class="djs-element djs-shape" data-element-id="StartEvent_Activated_label" style="display:block"><g class="djs-visual"><text class="djs-label" style="font-family:Arial,sans-serif;font-size:11px;font-weight:400;fill:#22242a" transform="translate(172 170)"><tspan x="0" y="9.9">Monitoring</tspan><tspan x="3.063" y="23.1">Activated</tspan></text></g><path d="M0 0h52v27H0z" class="djs-hit djs-hit-all" style="fill:none;stroke-opacity:0;stroke:#fff;stroke-width:15px" transform="translate(172 170)"/></g></g><g class="djs-group"><g class="djs-element djs-shape" data-element-id="Gateway_DeviationDetected" style="display:block"><g class="djs-visual"><path d="m25 0 25 25-25 25L0 25z" style="stroke-linecap:round;stroke-linejoin:round;stroke:#22242a;stroke-width:2px;fill:#fff;fill-opacity:.95" transform="translate(812 125)"/><path d="m16 15 7.429 9.714L16 34.43h3.429l5.714-7.465 5.714 7.465h3.429l-7.429-9.715L34.286 15h-3.429l-5.714 7.464L19.429 15z" style="fill:#22242a;stroke-linecap:round;stroke-linejoin:round;stroke:#22242a;stroke-width:1px" transform="translate(812 125)"/></g><path d="M0 0h50v50H0z" class="djs-hit djs-hit-all" style="fill:none;stroke-opacity:0;stroke:#fff;stroke-width:15px" transform="translate(812 125)"/></g></g><g class="djs-group"><g class="djs-element djs-shape" data-element-id="Gateway_DeviationDetected_label" style="display:block"><g class="djs-visual"><text class="djs-label" style="font-family:Arial,sans-serif;font-size:11px;font-weight:400;fill:#22242a" transform="translate(812 93)"><tspan x="2.148" y="9.9">Deviation</tspan><tspan x="0" y="23.1">Detected?</tspan></text></g><path d="M0 0h51v27H0z" class="djs-hit djs-hit-all" style="fill:none;stroke-opacity:0;stroke:#fff;stroke-width:15px" transform="translate(812 93)"/></g></g><g class="djs-group"><g class="djs-element djs-shape" data-element-id="Task_ConfigureRules" style="display:block"><g class="djs-visual" transform="translate(268 110)"><rect width="100" height="80" rx="10" ry="10" style="stroke-linecap:round;stroke-linejoin:round;stroke:#22242a;stroke-width:2px;fill:#fff;fill-opacity:.95"/><text class="djs-label" style="font-family:Arial,sans-serif;font-size:12px;font-weight:400;fill:#22242a"><tspan x="23.984" y="29.2">Configure </tspan><tspan x="21.984" y="43.6">Monitoring </tspan><tspan x="34.656" y="58">Rules</tspan></text><circle cx="5" cy="5" r="5" style="stroke-linecap:round;stroke-linejoin:round;stroke:none;stroke-width:2px;fill:#fff" transform="translate(6 6)"/><path d="M12 18v-1.713a5.6 5.6 0 0 0 2.014-.843l1.194 1.18 1.568-1.577-1.195-1.18c.403-.614.683-1.3.825-2.018l1.622-.01v-2.22l-1.636.01a5.6 5.6 0 0 0-.846-2.006l1.13-1.136-1.583-1.563-1.13 1.136a5.7 5.7 0 0 0-2.022-.823l.01-1.618H9.708l.004 1.631q-.531.11-1.05.324a5.7 5.7 0 0 0-.963.52L6.53 4.936l-1.567 1.58 1.169 1.156a5.7 5.7 0 0 0-.825 2.017l-1.659.003v2.222l1.673-.006a5.5 5.5 0 0 0 .847 2.005l-1.2 1.197 1.585 1.56 1.196-1.193a5.7 5.7 0 0 0 2.023.823l.001 1.7zm.221-3.996a3.53 3.53 0 0 1-4.61-1.874 3.51 3.51 0 0 1 1.881-4.596 3.53 3.53 0 0 1 4.609 1.874 3.51 3.51 0 0 1-1.88 4.596" style="fill:#fff;stroke-linecap:round;stroke-linejoin:round;stroke:#22242a;stroke-width:1px"/><circle cx="5" cy="5" r="5" style="stroke-linecap:round;stroke-linejoin:round;stroke:none;stroke-width:2px;fill:#fff" transform="translate(11 10)"/><path d="M17 22v-1.713a5.6 5.6 0 0 0 2.014-.843l1.194 1.18 1.568-1.577-1.195-1.18c.403-.614.683-1.3.825-2.018l1.622-.01v-2.22l-1.636.01a5.6 5.6 0 0 0-.846-2.006l1.13-1.136-1.583-1.563-1.13 1.136a5.7 5.7 0 0 0-2.022-.823l.01-1.618h-2.242l.004 1.631q-.531.11-1.05.324a5.7 5.7 0 0 0-.963.52l-1.17-1.158-1.567 1.58 1.169 1.156a5.7 5.7 0 0 0-.825 2.017l-1.659.003v2.222l1.673-.006a5.5 5.5 0 0 0 .847 2.005l-1.2 1.197 1.585 1.56 1.196-1.193a5.7 5.7 0 0 0 2.023.823l.001 1.7zm.221-3.996a3.53 3.53 0 0 1-4.61-1.874 3.51 3.51 0 0 1 1.881-4.596 3.53 3.53 0 0 1 4.609 1.874 3.51 3.51 0 0 1-1.88 4.596" style="fill:#fff;stroke-linecap:round;stroke-linejoin:round;stroke:#22242a;stroke-width:1px"/></g><path d="M0 0h100v80H0z" class="djs-hit djs-hit-all" style="fill:none;stroke-opacity:0;stroke:#fff;stroke-width:15px" transform="translate(268 110)"/></g></g><g class="djs-group"><g class="djs-element djs-shape" data-element-id="Timer_DailyCollection" style="display:block"><g class="djs-visual" transform="translate(420 132)"><circle cx="18" cy="18" r="18" style="stroke-linecap:round;stroke-linejoin:round;stroke:#22242a;stroke-width:1.5px;fill:#fff;fill-opacity:.95"/><circle cx="18" cy="18" r="15" style="stroke-linecap:round;stroke-linejoin:round;stroke:#22242a;stroke-width:1.5px;fill:none"/><circle cx="18" cy="18" r="11" style="stroke-linecap:round;stroke-linejoin:round;stroke:#22242a;stroke-width:2px;fill:#fff"/><path d="m18 18 2.25-7.5M18 18l5.25 1.5" style="fill:none;stroke-linecap:round;stroke-linejoin:round;stroke:#22242a;stroke-width:2px"/><path d="M18 25.5v2.25" style="fill:none;stroke-linecap:round;stroke-linejoin:round;stroke:#22242a;stroke-width:1px"/><path d="M18 25.5v2.25" style="fill:none;stroke-linecap:round;stroke-linejoin:round;stroke:#22242a;stroke-width:1px" transform="rotate(30 18 18)"/><path d="M18 25.5v2.25" style="fill:none;stroke-linecap:round;stroke-linejoin:round;stroke:#22242a;stroke-width:1px" transform="rotate(60 18 18)"/><path d="M18 25.5v2.25" style="fill:none;stroke-linecap:round;stroke-linejoin:round;stroke:#22242a;stroke-width:1px" transform="rotate(90 18 18)"/><path d="M18 25.5v2.25" style="fill:none;stroke-linecap:round;stroke-linejoin:round;stroke:#22242a;stroke-width:1px" transform="rotate(120 18 18)"/><path d="M18 25.5v2.25" style="fill:none;stroke-linecap:round;stroke-linejoin:round;stroke:#22242a;stroke-width:1px" transform="rotate(150 18 18)"/><path d="M18 25.5v2.25" style="fill:none;stroke-linecap:round;stroke-linejoin:round;stroke:#22242a;stroke-width:1px" transform="rotate(180 18 18)"/><path d="M18 25.5v2.25" style="fill:none;stroke-linecap:round;stroke-linejoin:round;stroke:#22242a;stroke-width:1px" transform="rotate(210 18 18)"/><path d="M18 25.5v2.25" style="fill:none;stroke-linecap:round;stroke-linejoin:round;stroke:#22242a;stroke-width:1px" transform="rotate(240 18 18)"/><path d="M18 25.5v2.25" style="fill:none;stroke-linecap:round;stroke-linejoin:round;stroke:#22242a;stroke-width:1px" transform="rotate(270 18 18)"/><path d="M18 25.5v2.25" style="fill:none;stroke-linecap:round;stroke-linejoin:round;stroke:#22242a;stroke-width:1px" transform="rotate(300 18 18)"/><path d="M18 25.5v2.25" style="fill:none;stroke-linecap:round;stroke-linejoin:round;stroke:#22242a;stroke-width:1px" transform="rotate(330 18 18)"/></g><path d="M0 0h36v36H0z" class="djs-hit djs-hit-all" style="fill:none;stroke-opacity:0;stroke:#fff;stroke-width:15px" transform="translate(420 132)"/></g></g><g class="djs-group"><g class="djs-element djs-shape" data-element-id="Timer_DailyCollection_label" style="display:block"><g class="djs-visual"><text class="djs-label" style="font-family:Arial,sans-serif;font-size:11px;font-weight:400;fill:#22242a" transform="translate(413 170)"><tspan x="11.93" y="9.9">Daily</tspan><tspan x="0" y="23.1">Collection</tspan></text></g><path d="M0 0h49v27H0z" class="djs-hit djs-hit-all" style="fill:none;stroke-opacity:0;stroke:#fff;stroke-width:15px" transform="translate(413 170)"/></g></g><g class="djs-group"><g class="djs-element djs-shape" data-element-id="Task_CollectEvidence" style="display:block"><g class="djs-visual" transform="translate(508 110)"><rect width="100" height="80" rx="10" ry="10" style="stroke-linecap:round;stroke-linejoin:round;stroke:#22242a;stroke-width:2px;fill:#fff;fill-opacity:.95"/><text class="djs-label" style="font-family:Arial,sans-serif;font-size:12px;font-weight:400;fill:#22242a"><tspan x="31.656" y="29.2">Collect </tspan><tspan x="25.313" y="43.6">Evidence </tspan><tspan x="27.648" y="58">Updates</tspan></text><circle cx="5" cy="5" r="5" style="stroke-linecap:round;stroke-linejoin:round;stroke:none;stroke-width:2px;fill:#fff" transform="translate(6 6)"/><path d="M12 18v-1.713a5.6 5.6 0 0 0 2.014-.843l1.194 1.18 1.568-1.577-1.195-1.18c.403-.614.683-1.3.825-2.018l1.622-.01v-2.22l-1.636.01a5.6 5.6 0 0 0-.846-2.006l1.13-1.136-1.583-1.563-1.13 1.136a5.7 5.7 0 0 0-2.022-.823l.01-1.618H9.708l.004 1.631q-.531.11-1.05.324a5.7 5.7 0 0 0-.963.52L6.53 4.936l-1.567 1.58 1.169 1.156a5.7 5.7 0 0 0-.825 2.017l-1.659.003v2.222l1.673-.006a5.5 5.5 0 0 0 .847 2.005l-1.2 1.197 1.585 1.56 1.196-1.193a5.7 5.7 0 0 0 2.023.823l.001 1.7zm.221-3.996a3.53 3.53 0 0 1-4.61-1.874 3.51 3.51 0 0 1 1.881-4.596 3.53 3.53 0 0 1 4.609 1.874 3.51 3.51 0 0 1-1.88 4.596" style="fill:#fff;stroke-linecap:round;stroke-linejoin:round;stroke:#22242a;stroke-width:1px"/><circle cx="5" cy="5" r="5" style="stroke-linecap:round;stroke-linejoin:round;stroke:none;stroke-width:2px;fill:#fff" transform="translate(11 10)"/><path d="M17 22v-1.713a5.6 5.6 0 0 0 2.014-.843l1.194 1.18 1.568-1.577-1.195-1.18c.403-.614.683-1.3.825-2.018l1.622-.01v-2.22l-1.636.01a5.6 5.6 0 0 0-.846-2.006l1.13-1.136-1.583-1.563-1.13 1.136a5.7 5.7 0 0 0-2.022-.823l.01-1.618h-2.242l.004 1.631q-.531.11-1.05.324a5.7 5.7 0 0 0-.963.52l-1.17-1.158-1.567 1.58 1.169 1.156a5.7 5.7 0 0 0-.825 2.017l-1.659.003v2.222l1.673-.006a5.5 5.5 0 0 0 .847 2.005l-1.2 1.197 1.585 1.56 1.196-1.193a5.7 5.7 0 0 0 2.023.823l.001 1.7zm.221-3.996a3.53 3.53 0 0 1-4.61-1.874 3.51 3.51 0 0 1 1.881-4.596 3.53 3.53 0 0 1 4.609 1.874 3.51 3.51 0 0 1-1.88 4.596" style="fill:#fff;stroke-linecap:round;stroke-linejoin:round;stroke:#22242a;stroke-width:1px"/></g><path d="M0 0h100v80H0z" class="djs-hit djs-hit-all" style="fill:none;stroke-opacity:0;stroke:#fff;stroke-width:15px" transform="translate(508 110)"/></g></g><g class="djs-group"><g class="djs-element djs-shape" data-element-id="Task_CompareBaseline" style="display:block"><g class="djs-visual" transform="translate(660 110)"><rect width="100" height="80" rx="10" ry="10" style="stroke-linecap:round;stroke-linejoin:round;stroke:#22242a;stroke-width:2px;fill:#fff;fill-opacity:.95"/><text class="djs-label" style="font-family:Arial,sans-serif;font-size:12px;font-weight:400;fill:#22242a"><tspan x="25.32" y="29.2">Compare </tspan><tspan x="29.993" y="43.6">Against </tspan><tspan x="26.984" y="58">Baseline</tspan></text><circle cx="5" cy="5" r="5" style="stroke-linecap:round;stroke-linejoin:round;stroke:none;stroke-width:2px;fill:#fff" transform="translate(6 6)"/><path d="M12 18v-1.713a5.6 5.6 0 0 0 2.014-.843l1.194 1.18 1.568-1.577-1.195-1.18c.403-.614.683-1.3.825-2.018l1.622-.01v-2.22l-1.636.01a5.6 5.6 0 0 0-.846-2.006l1.13-1.136-1.583-1.563-1.13 1.136a5.7 5.7 0 0 0-2.022-.823l.01-1.618H9.708l.004 1.631q-.531.11-1.05.324a5.7 5.7 0 0 0-.963.52L6.53 4.936l-1.567 1.58 1.169 1.156a5.7 5.7 0 0 0-.825 2.017l-1.659.003v2.222l1.673-.006a5.5 5.5 0 0 0 .847 2.005l-1.2 1.197 1.585 1.56 1.196-1.193a5.7 5.7 0 0 0 2.023.823l.001 1.7zm.221-3.996a3.53 3.53 0 0 1-4.61-1.874 3.51 3.51 0 0 1 1.881-4.596 3.53 3.53 0 0 1 4.609 1.874 3.51 3.51 0 0 1-1.88 4.596" style="fill:#fff;stroke-linecap:round;stroke-linejoin:round;stroke:#22242a;stroke-width:1px"/><circle cx="5" cy="5" r="5" style="stroke-linecap:round;stroke-linejoin:round;stroke:none;stroke-width:2px;fill:#fff" transform="translate(11 10)"/><path d="M17 22v-1.713a5.6 5.6 0 0 0 2.014-.843l1.194 1.18 1.568-1.577-1.195-1.18c.403-.614.683-1.3.825-2.018l1.622-.01v-2.22l-1.636.01a5.6 5.6 0 0 0-.846-2.006l1.13-1.136-1.583-1.563-1.13 1.136a5.7 5.7 0 0 0-2.022-.823l.01-1.618h-2.242l.004 1.631q-.531.11-1.05.324a5.7 5.7 0 0 0-.963.52l-1.17-1.158-1.567 1.58 1.169 1.156a5.7 5.7 0 0 0-.825 2.017l-1.659.003v2.222l1.673-.006a5.5 5.5 0 0 0 .847 2.005l-1.2 1.197 1.585 1.56 1.196-1.193a5.7 5.7 0 0 0 2.023.823l.001 1.7zm.221-3.996a3.53 3.53 0 0 1-4.61-1.874 3.51 3.51 0 0 1 1.881-4.596 3.53 3.53 0 0 1 4.609 1.874 3.51 3.51 0 0 1-1.88 4.596" style="fill:#fff;stroke-linecap:round;stroke-linejoin:round;stroke:#22242a;stroke-width:1px"/></g><path d="M0 0h100v80H0z" class="djs-hit djs-hit-all" style="fill:none;stroke-opacity:0;stroke:#fff;stroke-width:15px" transform="translate(660 110)"/></g></g><g class="djs-group"><g class="djs-element djs-shape" data-element-id="Gateway_SeverityLevel" style="display:block"><g class="djs-visual"><path d="m25 0 25 25-25 25L0 25z" style="stroke-linecap:round;stroke-linejoin:round;stroke:#22242a;stroke-width:2px;fill:#fff;fill-opacity:.95" transform="translate(914 125)"/><path d="m16 15 7.429 9.714L16 34.43h3.429l5.714-7.465 5.714 7.465h3.429l-7.429-9.715L34.286 15h-3.429l-5.714 7.464L19.429 15z" style="fill:#22242a;stroke-linecap:round;stroke-linejoin:round;stroke:#22242a;stroke-width:1px" transform="translate(914 125)"/></g><path d="M0 0h50v50H0z" class="djs-hit djs-hit-all" style="fill:none;stroke-opacity:0;stroke:#fff;stroke-width:15px" transform="translate(914 125)"/></g></g><g class="djs-group"><g class="djs-element djs-shape" data-element-id="Gateway_SeverityLevel_label" style="display:block"><g class="djs-visual"><text class="djs-label" style="font-family:Arial,sans-serif;font-size:11px;font-weight:400;fill:#22242a" transform="translate(919 93)"><tspan x="0" y="9.9">Severity</tspan><tspan x="3.664" y="23.1">Level?</tspan></text></g><path d="M0 0h40v27H0z" class="djs-hit djs-hit-all" style="fill:none;stroke-opacity:0;stroke:#fff;stroke-width:15px" transform="translate(919 93)"/></g></g><g class="djs-group"><g class="djs-element djs-shape" data-element-id="Task_GenerateCriticalAlert" style="display:block"><g class="djs-visual" transform="translate(1016 110)"><rect width="100" height="80" rx="10" ry="10" style="stroke-linecap:round;stroke-linejoin:round;stroke:#22242a;stroke-width:2px;fill:#fff;fill-opacity:.95"/><text class="djs-label" style="font-family:Arial,sans-serif;font-size:12px;font-weight:400;fill:#22242a"><tspan x="24.977" y="36.4">Generate </tspan><tspan x="17.992" y="50.8">Critical Alert</tspan></text><circle cx="5" cy="5" r="5" style="stroke-linecap:round;stroke-linejoin:round;stroke:none;stroke-width:2px;fill:#fff" transform="translate(6 6)"/><path d="M12 18v-1.713a5.6 5.6 0 0 0 2.014-.843l1.194 1.18 1.568-1.577-1.195-1.18c.403-.614.683-1.3.825-2.018l1.622-.01v-2.22l-1.636.01a5.6 5.6 0 0 0-.846-2.006l1.13-1.136-1.583-1.563-1.13 1.136a5.7 5.7 0 0 0-2.022-.823l.01-1.618H9.708l.004 1.631q-.531.11-1.05.324a5.7 5.7 0 0 0-.963.52L6.53 4.936l-1.567 1.58 1.169 1.156a5.7 5.7 0 0 0-.825 2.017l-1.659.003v2.222l1.673-.006a5.5 5.5 0 0 0 .847 2.005l-1.2 1.197 1.585 1.56 1.196-1.193a5.7 5.7 0 0 0 2.023.823l.001 1.7zm.221-3.996a3.53 3.53 0 0 1-4.61-1.874 3.51 3.51 0 0 1 1.881-4.596 3.53 3.53 0 0 1 4.609 1.874 3.51 3.51 0 0 1-1.88 4.596" style="fill:#fff;stroke-linecap:round;stroke-linejoin:round;stroke:#22242a;stroke-width:1px"/><circle cx="5" cy="5" r="5" style="stroke-linecap:round;stroke-linejoin:round;stroke:none;stroke-width:2px;fill:#fff" transform="translate(11 10)"/><path d="M17 22v-1.713a5.6 5.6 0 0 0 2.014-.843l1.194 1.18 1.568-1.577-1.195-1.18c.403-.614.683-1.3.825-2.018l1.622-.01v-2.22l-1.636.01a5.6 5.6 0 0 0-.846-2.006l1.13-1.136-1.583-1.563-1.13 1.136a5.7 5.7 0 0 0-2.022-.823l.01-1.618h-2.242l.004 1.631q-.531.11-1.05.324a5.7 5.7 0 0 0-.963.52l-1.17-1.158-1.567 1.58 1.169 1.156a5.7 5.7 0 0 0-.825 2.017l-1.659.003v2.222l1.673-.006a5.5 5.5 0 0 0 .847 2.005l-1.2 1.197 1.585 1.56 1.196-1.193a5.7 5.7 0 0 0 2.023.823l.001 1.7zm.221-3.996a3.53 3.53 0 0 1-4.61-1.874 3.51 3.51 0 0 1 1.881-4.596 3.53 3.53 0 0 1 4.609 1.874 3.51 3.51 0 0 1-1.88 4.596" style="fill:#fff;stroke-linecap:round;stroke-linejoin:round;stroke:#22242a;stroke-width:1px"/></g><path d="M0 0h100v80H0z" class="djs-hit djs-hit-all" style="fill:none;stroke-opacity:0;stroke:#fff;stroke-width:15px" transform="translate(1016 110)"/></g></g><g class="djs-group"><g class="djs-element djs-shape" data-element-id="Task_AddToBatchReport" style="display:block"><g class="djs-visual" transform="translate(1016 250)"><rect width="100" height="80" rx="10" ry="10" style="stroke-linecap:round;stroke-linejoin:round;stroke:#22242a;stroke-width:2px;fill:#fff;fill-opacity:.95"/><text class="djs-label" style="font-family:Arial,sans-serif;font-size:12px;font-weight:400;fill:#22242a"><tspan x="15.649" y="36.4">Add to Batch </tspan><tspan x="31.984" y="50.8">Report</tspan></text><circle cx="5" cy="5" r="5" style="stroke-linecap:round;stroke-linejoin:round;stroke:none;stroke-width:2px;fill:#fff" transform="translate(6 6)"/><path d="M12 18v-1.713a5.6 5.6 0 0 0 2.014-.843l1.194 1.18 1.568-1.577-1.195-1.18c.403-.614.683-1.3.825-2.018l1.622-.01v-2.22l-1.636.01a5.6 5.6 0 0 0-.846-2.006l1.13-1.136-1.583-1.563-1.13 1.136a5.7 5.7 0 0 0-2.022-.823l.01-1.618H9.708l.004 1.631q-.531.11-1.05.324a5.7 5.7 0 0 0-.963.52L6.53 4.936l-1.567 1.58 1.169 1.156a5.7 5.7 0 0 0-.825 2.017l-1.659.003v2.222l1.673-.006a5.5 5.5 0 0 0 .847 2.005l-1.2 1.197 1.585 1.56 1.196-1.193a5.7 5.7 0 0 0 2.023.823l.001 1.7zm.221-3.996a3.53 3.53 0 0 1-4.61-1.874 3.51 3.51 0 0 1 1.881-4.596 3.53 3.53 0 0 1 4.609 1.874 3.51 3.51 0 0 1-1.88 4.596" style="fill:#fff;stroke-linecap:round;stroke-linejoin:round;stroke:#22242a;stroke-width:1px"/><circle cx="5" cy="5" r="5" style="stroke-linecap:round;stroke-linejoin:round;stroke:none;stroke-width:2px;fill:#fff" transform="translate(11 10)"/><path d="M17 22v-1.713a5.6 5.6 0 0 0 2.014-.843l1.194 1.18 1.568-1.577-1.195-1.18c.403-.614.683-1.3.825-2.018l1.622-.01v-2.22l-1.636.01a5.6 5.6 0 0 0-.846-2.006l1.13-1.136-1.583-1.563-1.13 1.136a5.7 5.7 0 0 0-2.022-.823l.01-1.618h-2.242l.004 1.631q-.531.11-1.05.324a5.7 5.7 0 0 0-.963.52l-1.17-1.158-1.567 1.58 1.169 1.156a5.7 5.7 0 0 0-.825 2.017l-1.659.003v2.222l1.673-.006a5.5 5.5 0 0 0 .847 2.005l-1.2 1.197 1.585 1.56 1.196-1.193a5.7 5.7 0 0 0 2.023.823l.001 1.7zm.221-3.996a3.53 3.53 0 0 1-4.61-1.874 3.51 3.51 0 0 1 1.881-4.596 3.53 3.53 0 0 1 4.609 1.874 3.51 3.51 0 0 1-1.88 4.596" style="fill:#fff;stroke-linecap:round;stroke-linejoin:round;stroke:#22242a;stroke-width:1px"/></g><path d="M0 0h100v80H0z" class="djs-hit djs-hit-all" style="fill:none;stroke-opacity:0;stroke:#fff;stroke-width:15px" transform="translate(1016 250)"/></g></g><g class="djs-group"><g class="djs-element djs-shape" data-element-id="Task_ReviewCriticalDeviation" style="display:block"><g class="djs-visual" transform="translate(1168 110)"><rect width="100" height="80" rx="10" ry="10" style="stroke-linecap:round;stroke-linejoin:round;stroke:#22242a;stroke-width:2px;fill:#fff;fill-opacity:.95"/><text class="djs-label" style="font-family:Arial,sans-serif;font-size:12px;font-weight:400;fill:#22242a"><tspan x="10.32" y="36.4">Review Critical </tspan><tspan x="24.984" y="50.8">Deviation</tspan></text><path d="M15 12c.909-.845 1.594-2.049 1.594-3.385 0-2.554-1.805-4.622-4.357-4.622S7.949 6.061 7.949 8.615c0 1.348.974 2.562 1.896 3.405-.529.187-5.669 2.097-5.794 4.756v6.718h17v-6.718c0-2.298-5.528-4.595-6.051-4.776m-8 6v5.5m11 0v-5" style="fill:#fff;stroke-linecap:round;stroke-linejoin:round;stroke:#22242a;stroke-width:.5px"/><path d="M17.162 13.009c0 2.447-2.158 4.431-4.821 4.431-2.665 0-4.822-1.981-4.822-4.431" style="fill:#fff;stroke-linecap:round;stroke-linejoin:round;stroke:#22242a;stroke-width:.5px"/><path d="M8.1 8.2s2.251-2.358 4.274-1.177 4.221 1.537 4.124.965c-.098-.57-.117-3.791-4.191-4.136C8.732 3.853 8.099 7.219 8.1 8.2" style="fill:#22242a;stroke-linecap:round;stroke-linejoin:round;stroke:#22242a;stroke-width:.5px"/></g><path d="M0 0h100v80H0z" class="djs-hit djs-hit-all" style="fill:none;stroke-opacity:0;stroke:#fff;stroke-width:15px" transform="translate(1168 110)"/></g></g><g class="djs-group"><g class="djs-element djs-shape" data-element-id="Gateway_ActionRequired" style="display:block"><g class="djs-visual"><path d="m25 0 25 25-25 25L0 25z" style="stroke-linecap:round;stroke-linejoin:round;stroke:#22242a;stroke-width:2px;fill:#fff;fill-opacity:.95" transform="translate(1320 125)"/><path d="m16 15 7.429 9.714L16 34.43h3.429l5.714-7.465 5.714 7.465h3.429l-7.429-9.715L34.286 15h-3.429l-5.714 7.464L19.429 15z" style="fill:#22242a;stroke-linecap:round;stroke-linejoin:round;stroke:#22242a;stroke-width:1px" transform="translate(1320 125)"/></g><path d="M0 0h50v50H0z" class="djs-hit djs-hit-all" style="fill:none;stroke-opacity:0;stroke:#fff;stroke-width:15px" transform="translate(1320 125)"/></g></g><g class="djs-group"><g class="djs-element djs-shape" data-element-id="Gateway_ActionRequired_label" style="display:block"><g class="djs-visual"><text class="djs-label" style="font-family:Arial,sans-serif;font-size:11px;font-weight:400;fill:#22242a" transform="translate(1320 93)"><tspan x="10.102" y="9.9">Action</tspan><tspan x="0" y="23.1">Required?</tspan></text></g><path d="M0 0h51v27H0z" class="djs-hit djs-hit-all" style="fill:none;stroke-opacity:0;stroke:#fff;stroke-width:15px" transform="translate(1320 93)"/></g></g><g class="djs-group"><g class="djs-element djs-shape" data-element-id="CallActivity_TriggerPOV" style="display:block"><g class="djs-visual" transform="translate(1422 110)"><rect width="100" height="80" rx="10" ry="10" style="stroke-linecap:round;stroke-linejoin:round;stroke:#22242a;stroke-width:5px;fill:#fff;fill-opacity:.95"/><text class="djs-label" style="font-family:Arial,sans-serif;font-size:12px;font-weight:400;fill:#22242a"><tspan x="16.875" y="36.4">Trigger POV </tspan><tspan x="13.969" y="50.8">Regeneration</tspan></text><rect width="14" height="14" rx="0" ry="0" style="stroke-linecap:round;stroke-linejoin:round;stroke:#22242a;stroke-width:1px;fill:#fff" transform="translate(42.5 60)"/><path d="M49.5 62v10m-5-5h10" data-marker="sub-process" style="fill:#fff;stroke-linecap:round;stroke-linejoin:round;stroke:#22242a;stroke-width:2px"/></g><path d="M0 0h100v80H0z" class="djs-hit djs-hit-all" style="fill:none;stroke-opacity:0;stroke:#fff;stroke-width:15px" transform="translate(1422 110)"/></g></g><g class="djs-group"><g class="djs-element djs-shape" data-element-id="Gateway_MergeBeforeControl" style="display:block"><g class="djs-visual"><path d="m25 0 25 25-25 25L0 25z" style="stroke-linecap:round;stroke-linejoin:round;stroke:#22242a;stroke-width:2px;fill:#fff;fill-opacity:.95" transform="translate(1574 265)"/><path d="m16 15 7.429 9.714L16 34.43h3.429l5.714-7.465 5.714 7.465h3.429l-7.429-9.715L34.286 15h-3.429l-5.714 7.464L19.429 15z" style="fill:#22242a;stroke-linecap:round;stroke-linejoin:round;stroke:#22242a;stroke-width:1px" transform="translate(1574 265)"/></g><path d="M0 0h50v50H0z" class="djs-hit djs-hit-all" style="fill:none;stroke-opacity:0;stroke:#fff;stroke-width:15px" transform="translate(1574 265)"/></g></g><g class="djs-group"><g class="djs-element djs-shape" data-element-id="Gateway_MonitorControl" style="display:block"><g class="djs-visual"><path d="m25 0 25 25-25 25L0 25z" style="stroke-linecap:round;stroke-linejoin:round;stroke:#22242a;stroke-width:2px;fill:#fff;fill-opacity:.95" transform="translate(1674 265)"/><path d="m16 15 7.429 9.714L16 34.43h3.429l5.714-7.465 5.714 7.465h3.429l-7.429-9.715L34.286 15h-3.429l-5.714 7.464L19.429 15z" style="fill:#22242a;stroke-linecap:round;stroke-linejoin:round;stroke:#22242a;stroke-width:1px" transform="translate(1674 265)"/></g><path d="M0 0h50v50H0z" class="djs-hit djs-hit-all" style="fill:none;stroke-opacity:0;stroke:#fff;stroke-width:15px" transform="translate(1674 265)"/></g></g><g class="djs-group"><g class="djs-element djs-shape" data-element-id="Gateway_MonitorControl_label" style="display:block"><g class="djs-visual"><text class="djs-label" style="font-family:Arial,sans-serif;font-size:11px;font-weight:400;fill:#22242a" transform="translate(1676 233)"><tspan x="3.906" y="9.9">Monitor</tspan><tspan x="0" y="23.1">Control ?</tspan></text></g><path d="M0 0h45v27H0z" class="djs-hit djs-hit-all" style="fill:none;stroke-opacity:0;stroke:#fff;stroke-width:15px" transform="translate(1676 233)"/></g></g><g class="djs-group"><g class="djs-element djs-shape" data-element-id="EndEvent_Stopped" style="display:block" transform="translate(1774 362)"><circle cx="18" cy="18" r="18" class="djs-visual" style="stroke-linecap:round;stroke-linejoin:round;stroke:#22242a;stroke-width:4px;fill:#fff;fill-opacity:.95"/><path d="M0 0h36v36H0z" class="djs-hit djs-hit-all" style="fill:none;stroke-opacity:0;stroke:#fff;stroke-width:15px"/></g></g><g class="djs-group"><g class="djs-element djs-shape" data-element-id="EndEvent_Stopped_label" style="display:block"><g class="djs-visual"><text class="djs-label" style="font-family:Arial,sans-serif;font-size:11px;font-weight:400;fill:#22242a" transform="translate(1766 400)"><tspan x="0" y="9.9">Monitoring</tspan><tspan x="5.188" y="23.1">Stopped</tspan></text></g><path d="M0 0h52v27H0z" class="djs-hit djs-hit-all" style="fill:none;stroke-opacity:0;stroke:#fff;stroke-width:15px" transform="translate(1766 400)"/></g></g><g class="djs-group"><g class="djs-element djs-shape" data-element-id="EndEvent_Complete" style="display:block" transform="translate(1774 272)"><circle cx="18" cy="18" r="18" class="djs-visual" style="stroke-linecap:round;stroke-linejoin:round;stroke:#22242a;stroke-width:4px;fill:#fff;fill-opacity:.95"/><path d="M0 0h36v36H0z" class="djs-hit djs-hit-all" style="fill:none;stroke-opacity:0;stroke:#fff;stroke-width:15px"/></g></g><g class="djs-group"><g class="djs-element djs-shape" data-element-id="EndEvent_Complete_label" style="display:block"><g class="djs-visual"><text class="djs-label" style="font-family:Arial,sans-serif;font-size:11px;font-weight:400;fill:#22242a" transform="translate(1766 310)"><tspan x="0" y="9.9">Monitoring</tspan><tspan x="2.141" y="23.1">Complete</tspan></text></g><path d="M0 0h52v27H0z" class="djs-hit djs-hit-all" style="fill:none;stroke-opacity:0;stroke:#fff;stroke-width:15px" transform="translate(1766 310)"/></g></g><g class="djs-group"><g class="djs-element djs-connection" data-element-id="Flow_01" style="display:block"><g class="djs-visual"><defs><marker id="a" markerHeight="10" markerWidth="10" orient="auto" refX="11" refY="10" viewBox="0 0 20 20"><path d="m1 5 10 5-10 5Z" style="stroke-linecap:round;stroke-linejoin:round;stroke:#22242a;stroke-width:1px;fill:#22242a"/></marker></defs><path d="M216 150h52" data-corner-radius="5" style="fill:none;stroke-linecap:round;stroke-linejoin:round;stroke:#22242a;stroke-width:2px;marker-end:url(#a)"/></g><path d="M216 150h52" class="djs-hit djs-hit-stroke" style="fill:none;stroke-opacity:0;stroke:#fff;stroke-width:15px"/></g></g><g class="djs-group"><g class="djs-element djs-connection" data-element-id="Flow_02" style="display:block"><g class="djs-visual"><defs><marker id="b" markerHeight="10" markerWidth="10" orient="auto" refX="11" refY="10" viewBox="0 0 20 20"><path d="m1 5 10 5-10 5Z" style="stroke-linecap:round;stroke-linejoin:round;stroke:#22242a;stroke-width:1px;fill:#22242a"/></marker></defs><path d="M368 150h52" data-corner-radius="5" style="fill:none;stroke-linecap:round;stroke-linejoin:round;stroke:#22242a;stroke-width:2px;marker-end:url(#b)"/></g><path d="M368 150h52" class="djs-hit djs-hit-stroke" style="fill:none;stroke-opacity:0;stroke:#fff;stroke-width:15px"/></g></g><g class="djs-group"><g class="djs-element djs-connection" data-element-id="Flow_03" style="display:block"><g class="djs-visual"><defs><marker id="c" markerHeight="10" markerWidth="10" orient="auto" refX="11" refY="10" viewBox="0 0 20 20"><path d="m1 5 10 5-10 5Z" style="stroke-linecap:round;stroke-linejoin:round;stroke:#22242a;stroke-width:1px;fill:#22242a"/></marker></defs><path d="M456 150h52" data-corner-radius="5" style="fill:none;stroke-linecap:round;stroke-linejoin:round;stroke:#22242a;stroke-width:2px;marker-end:url(#c)"/></g><path d="M456 150h52" class="djs-hit djs-hit-stroke" style="fill:none;stroke-opacity:0;stroke:#fff;stroke-width:15px"/></g></g><g class="djs-group"><g class="djs-element djs-connection" data-element-id="Flow_04" style="display:block"><g class="djs-visual"><defs><marker id="d" markerHeight="10" markerWidth="10" orient="auto" refX="11" refY="10" viewBox="0 0 20 20"><path d="m1 5 10 5-10 5Z" style="stroke-linecap:round;stroke-linejoin:round;stroke:#22242a;stroke-width:1px;fill:#22242a"/></marker></defs><path d="M608 150h52" data-corner-radius="5" style="fill:none;stroke-linecap:round;stroke-linejoin:round;stroke:#22242a;stroke-width:2px;marker-end:url(#d)"/></g><path d="M608 150h52" class="djs-hit djs-hit-stroke" style="fill:none;stroke-opacity:0;stroke:#fff;stroke-width:15px"/></g></g><g class="djs-group"><g class="djs-element djs-connection" data-element-id="Flow_05" style="display:block"><g class="djs-visual"><defs><marker id="e" markerHeight="10" markerWidth="10" orient="auto" refX="11" refY="10" viewBox="0 0 20 20"><path d="m1 5 10 5-10 5Z" style="stroke-linecap:round;stroke-linejoin:round;stroke:#22242a;stroke-width:1px;fill:#22242a"/></marker></defs><path d="M760 150h52" data-corner-radius="5" style="fill:none;stroke-linecap:round;stroke-linejoin:round;stroke:#22242a;stroke-width:2px;marker-end:url(#e)"/></g><path d="M760 150h52" class="djs-hit djs-hit-stroke" style="fill:none;stroke-opacity:0;stroke:#fff;stroke-width:15px"/></g></g><g class="djs-group"><g class="djs-element djs-connection" data-element-id="Flow_06_No" style="display:block"><g class="djs-visual"><defs><marker id="f" markerHeight="10" markerWidth="10" orient="auto" refX="11" refY="10" viewBox="0 0 20 20"><path d="m1 5 10 5-10 5Z" style="stroke-linecap:round;stroke-linejoin:round;stroke:#22242a;stroke-width:1px;fill:#22242a"/></marker></defs><path d="M837 175v190c0 2.5 2.5 5 5 5h752c2.5 0 5-2.5 5-5v-50" data-corner-radius="5" style="fill:none;stroke-linecap:round;stroke-linejoin:round;stroke:#22242a;stroke-width:2px;marker-end:url(#f)"/></g><path d="M837 175v195h762v-55" class="djs-hit djs-hit-stroke" style="fill:none;stroke-opacity:0;stroke:#fff;stroke-width:15px"/></g></g><g class="djs-group"><g class="djs-element djs-shape" data-element-id="Flow_06_No_label" style="display:block"><g class="djs-visual"><text class="djs-label" style="font-family:Arial,sans-serif;font-size:11px;font-weight:400;fill:#22242a" transform="translate(845 210)"><tspan x="0" y="9.9">No</tspan></text></g><path d="M0 0h15v14H0z" class="djs-hit djs-hit-all" style="fill:none;stroke-opacity:0;stroke:#fff;stroke-width:15px" transform="translate(845 210)"/></g></g><g class="djs-group"><g class="djs-element djs-connection" data-element-id="Flow_06_Yes" style="display:block"><g class="djs-visual"><defs><marker id="g" markerHeight="10" markerWidth="10" orient="auto" refX="11" refY="10" viewBox="0 0 20 20"><path d="m1 5 10 5-10 5Z" style="stroke-linecap:round;stroke-linejoin:round;stroke:#22242a;stroke-width:1px;fill:#22242a"/></marker></defs><path d="M862 150h52" data-corner-radius="5" style="fill:none;stroke-linecap:round;stroke-linejoin:round;stroke:#22242a;stroke-width:2px;marker-end:url(#g)"/></g><path d="M862 150h52" class="djs-hit djs-hit-stroke" style="fill:none;stroke-opacity:0;stroke:#fff;stroke-width:15px"/></g></g><g class="djs-group"><g class="djs-element djs-shape" data-element-id="Flow_06_Yes_label" style="display:block"><g class="djs-visual"><text class="djs-label" style="font-family:Arial,sans-serif;font-size:11px;font-weight:400;fill:#22242a" transform="translate(870 132)"><tspan x="0" y="9.9">Yes</tspan></text></g><path d="M0 0h18v14H0z" class="djs-hit djs-hit-all" style="fill:none;stroke-opacity:0;stroke:#fff;stroke-width:15px" transform="translate(870 132)"/></g></g><g class="djs-group"><g class="djs-element djs-connection" data-element-id="Flow_07_Critical" style="display:block"><g class="djs-visual"><defs><marker id="h" markerHeight="10" markerWidth="10" orient="auto" refX="11" refY="10" viewBox="0 0 20 20"><path d="m1 5 10 5-10 5Z" style="stroke-linecap:round;stroke-linejoin:round;stroke:#22242a;stroke-width:1px;fill:#22242a"/></marker></defs><path d="M964 150h52" data-corner-radius="5" style="fill:none;stroke-linecap:round;stroke-linejoin:round;stroke:#22242a;stroke-width:2px;marker-end:url(#h)"/></g><path d="M964 150h52" class="djs-hit djs-hit-stroke" style="fill:none;stroke-opacity:0;stroke:#fff;stroke-width:15px"/></g></g><g class="djs-group"><g class="djs-element djs-shape" data-element-id="Flow_07_Critical_label" style="display:block"><g class="djs-visual"><text class="djs-label" style="font-family:Arial,sans-serif;font-size:11px;font-weight:400;fill:#22242a" transform="translate(968 132)"><tspan x="0" y="9.9">Critical</tspan></text></g><path d="M0 0h34v14H0z" class="djs-hit djs-hit-all" style="fill:none;stroke-opacity:0;stroke:#fff;stroke-width:15px" transform="translate(968 132)"/></g></g><g class="djs-group"><g class="djs-element djs-connection" data-element-id="Flow_07_Low" style="display:block"><g class="djs-visual"><defs><marker id="i" markerHeight="10" markerWidth="10" orient="auto" refX="11" refY="10" viewBox="0 0 20 20"><path d="m1 5 10 5-10 5Z" style="stroke-linecap:round;stroke-linejoin:round;stroke:#22242a;stroke-width:1px;fill:#22242a"/></marker></defs><path d="M939 175v110c0 2.5 2.5 5 5 5h72" data-corner-radius="5" style="fill:none;stroke-linecap:round;stroke-linejoin:round;stroke:#22242a;stroke-width:2px;marker-end:url(#i)"/></g><path d="M939 175v115h77" class="djs-hit djs-hit-stroke" style="fill:none;stroke-opacity:0;stroke:#fff;stroke-width:15px"/></g></g><g class="djs-group"><g class="djs-element djs-shape" data-element-id="Flow_07_Low_label" style="display:block"><g class="djs-visual"><text class="djs-label" style="font-family:Arial,sans-serif;font-size:11px;font-weight:400;fill:#22242a" transform="translate(947 210)"><tspan x="0" y="9.9">Low</tspan></text></g><path d="M0 0h21v14H0z" class="djs-hit djs-hit-all" style="fill:none;stroke-opacity:0;stroke:#fff;stroke-width:15px" transform="translate(947 210)"/></g></g><g class="djs-group"><g class="djs-element djs-connection" data-element-id="Flow_08" style="display:block"><g class="djs-visual"><defs><marker id="j" markerHeight="10" markerWidth="10" orient="auto" refX="11" refY="10" viewBox="0 0 20 20"><path d="m1 5 10 5-10 5Z" style="stroke-linecap:round;stroke-linejoin:round;stroke:#22242a;stroke-width:1px;fill:#22242a"/></marker></defs><path d="M1116 150h52" data-corner-radius="5" style="fill:none;stroke-linecap:round;stroke-linejoin:round;stroke:#22242a;stroke-width:2px;marker-end:url(#j)"/></g><path d="M1116 150h52" class="djs-hit djs-hit-stroke" style="fill:none;stroke-opacity:0;stroke:#fff;stroke-width:15px"/></g></g><g class="djs-group"><g class="djs-element djs-connection" data-element-id="Flow_09" style="display:block"><g class="djs-visual"><defs><marker id="k" markerHeight="10" markerWidth="10" orient="auto" refX="11" refY="10" viewBox="0 0 20 20"><path d="m1 5 10 5-10 5Z" style="stroke-linecap:round;stroke-linejoin:round;stroke:#22242a;stroke-width:1px;fill:#22242a"/></marker></defs><path d="M1116 290h458" data-corner-radius="5" style="fill:none;stroke-linecap:round;stroke-linejoin:round;stroke:#22242a;stroke-width:2px;marker-end:url(#k)"/></g><path d="M1116 290h458" class="djs-hit djs-hit-stroke" style="fill:none;stroke-opacity:0;stroke:#fff;stroke-width:15px"/></g></g><g class="djs-group"><g class="djs-element djs-connection" data-element-id="Flow_10" style="display:block"><g class="djs-visual"><defs><marker id="l" markerHeight="10" markerWidth="10" orient="auto" refX="11" refY="10" viewBox="0 0 20 20"><path d="m1 5 10 5-10 5Z" style="stroke-linecap:round;stroke-linejoin:round;stroke:#22242a;stroke-width:1px;fill:#22242a"/></marker></defs><path d="M1268 150h52" data-corner-radius="5" style="fill:none;stroke-linecap:round;stroke-linejoin:round;stroke:#22242a;stroke-width:2px;marker-end:url(#l)"/></g><path d="M1268 150h52" class="djs-hit djs-hit-stroke" style="fill:none;stroke-opacity:0;stroke:#fff;stroke-width:15px"/></g></g><g class="djs-group"><g class="djs-element djs-connection" data-element-id="Flow_11_Regenerate" style="display:block"><g class="djs-visual"><defs><marker id="m" markerHeight="10" markerWidth="10" orient="auto" refX="11" refY="10" viewBox="0 0 20 20"><path d="m1 5 10 5-10 5Z" style="stroke-linecap:round;stroke-linejoin:round;stroke:#22242a;stroke-width:1px;fill:#22242a"/></marker></defs><path d="M1370 150h52" data-corner-radius="5" style="fill:none;stroke-linecap:round;stroke-linejoin:round;stroke:#22242a;stroke-width:2px;marker-end:url(#m)"/></g><path d="M1370 150h52" class="djs-hit djs-hit-stroke" style="fill:none;stroke-opacity:0;stroke:#fff;stroke-width:15px"/></g></g><g class="djs-group"><g class="djs-element djs-shape" data-element-id="Flow_11_Regenerate_label" style="display:block"><g class="djs-visual"><text class="djs-label" style="font-family:Arial,sans-serif;font-size:11px;font-weight:400;fill:#22242a" transform="translate(1350 132)"><tspan x="0" y="9.9">Regenerate POV</tspan></text></g><path d="M0 0h84v14H0z" class="djs-hit djs-hit-all" style="fill:none;stroke-opacity:0;stroke:#fff;stroke-width:15px" transform="translate(1350 132)"/></g></g><g class="djs-group"><g class="djs-element djs-connection" data-element-id="Flow_11_Acknowledge" style="display:block"><g class="djs-visual"><defs><marker id="n" markerHeight="10" markerWidth="10" orient="auto" refX="11" refY="10" viewBox="0 0 20 20"><path d="m1 5 10 5-10 5Z" style="stroke-linecap:round;stroke-linejoin:round;stroke:#22242a;stroke-width:1px;fill:#22242a"/></marker></defs><path d="M1345 175v110c0 2.5 2.5 5 5 5h224" data-corner-radius="5" style="fill:none;stroke-linecap:round;stroke-linejoin:round;stroke:#22242a;stroke-width:2px;marker-end:url(#n)"/></g><path d="M1345 175v115h229" class="djs-hit djs-hit-stroke" style="fill:none;stroke-opacity:0;stroke:#fff;stroke-width:15px"/></g></g><g class="djs-group"><g class="djs-element djs-shape" data-element-id="Flow_11_Acknowledge_label" style="display:block"><g class="djs-visual"><text class="djs-label" style="font-family:Arial,sans-serif;font-size:11px;font-weight:400;fill:#22242a" transform="translate(1353 225)"><tspan x="0" y="9.9">Acknowledge</tspan></text></g><path d="M0 0h66v14H0z" class="djs-hit djs-hit-all" style="fill:none;stroke-opacity:0;stroke:#fff;stroke-width:15px" transform="translate(1353 225)"/></g></g><g class="djs-group"><g class="djs-element djs-connection" data-element-id="Flow_12" style="display:block"><g class="djs-visual"><defs><marker id="o" markerHeight="10" markerWidth="10" orient="auto" refX="11" refY="10" viewBox="0 0 20 20"><path d="m1 5 10 5-10 5Z" style="stroke-linecap:round;stroke-linejoin:round;stroke:#22242a;stroke-width:1px;fill:#22242a"/></marker></defs><path d="M1522 150h72c2.5 0 5 2.5 5 5v110" data-corner-radius="5" style="fill:none;stroke-linecap:round;stroke-linejoin:round;stroke:#22242a;stroke-width:2px;marker-end:url(#o)"/></g><path d="M1522 150h77v115" class="djs-hit djs-hit-stroke" style="fill:none;stroke-opacity:0;stroke:#fff;stroke-width:15px"/></g></g><g class="djs-group"><g class="djs-element djs-connection" data-element-id="Flow_MergeToControl" style="display:block"><g class="djs-visual"><defs><marker id="p" markerHeight="10" markerWidth="10" orient="auto" refX="11" refY="10" viewBox="0 0 20 20"><path d="m1 5 10 5-10 5Z" style="stroke-linecap:round;stroke-linejoin:round;stroke:#22242a;stroke-width:1px;fill:#22242a"/></marker></defs><path d="M1624 290h50" data-corner-radius="5" style="fill:none;stroke-linecap:round;stroke-linejoin:round;stroke:#22242a;stroke-width:2px;marker-end:url(#p)"/></g><path d="M1624 290h50" class="djs-hit djs-hit-stroke" style="fill:none;stroke-opacity:0;stroke:#fff;stroke-width:15px"/></g></g><g class="djs-group"><g class="djs-element djs-connection" data-element-id="Flow_13_Continue" style="display:block"><g class="djs-visual"><defs><marker id="q" markerHeight="10" markerWidth="10" orient="auto" refX="11" refY="10" viewBox="0 0 20 20"><path d="m1 5 10 5-10 5Z" style="stroke-linecap:round;stroke-linejoin:round;stroke:#22242a;stroke-width:1px;fill:#22242a"/></marker><marker id="r" markerHeight="10" markerWidth="10" orient="auto" refX="0" refY="10" viewBox="0 0 20 20"><path d="m6 4 4 12" style="stroke-linecap:round;stroke-linejoin:round;stroke:#22242a;stroke-width:2px;fill:none"/></marker></defs><path d="M1699 265V75c0-2.5-2.5-5-5-5H443c-2.5 0-5 2.5-5 5v57" data-corner-radius="5" style="fill:none;stroke-linecap:round;stroke-linejoin:round;stroke:#22242a;stroke-width:2px;marker-end:url(#q);marker-start:url(#r)"/></g><path d="M1699 265V70H438v62" class="djs-hit djs-hit-stroke" style="fill:none;stroke-opacity:0;stroke:#fff;stroke-width:15px"/></g></g><g class="djs-group"><g class="djs-element djs-shape" data-element-id="Flow_13_Continue_label" style="display:block"><g class="djs-visual"><text class="djs-label" style="font-family:Arial,sans-serif;font-size:11px;font-weight:400;fill:#22242a" transform="translate(1040 52)"><tspan x="0" y="9.9">Continue</tspan></text></g><path d="M0 0h45v14H0z" class="djs-hit djs-hit-all" style="fill:none;stroke-opacity:0;stroke:#fff;stroke-width:15px" transform="translate(1040 52)"/></g></g><g class="djs-group"><g class="djs-element djs-connection" data-element-id="Flow_13_Stop" style="display:block"><g class="djs-visual"><defs><marker id="s" markerHeight="10" markerWidth="10" orient="auto" refX="11" refY="10" viewBox="0 0 20 20"><path d="m1 5 10 5-10 5Z" style="stroke-linecap:round;stroke-linejoin:round;stroke:#22242a;stroke-width:1px;fill:#22242a"/></marker></defs><path d="M1699 315v60c0 2.5 2.5 5 5 5h70" data-corner-radius="5" style="fill:none;stroke-linecap:round;stroke-linejoin:round;stroke:#22242a;stroke-width:2px;marker-end:url(#s)"/></g><path d="M1699 315v65h75" class="djs-hit djs-hit-stroke" style="fill:none;stroke-opacity:0;stroke:#fff;stroke-width:15px"/></g></g><g class="djs-group"><g class="djs-element djs-shape" data-element-id="Flow_13_Stop_label" style="display:block"><g class="djs-visual"><text class="djs-label" style="font-family:Arial,sans-serif;font-size:11px;font-weight:400;fill:#22242a" transform="translate(1707 340)"><tspan x="0" y="9.9">Stop</tspan></text></g><path d="M0 0h23v14H0z" class="djs-hit djs-hit-all" style="fill:none;stroke-opacity:0;stroke:#fff;stroke-width:15px" transform="translate(1707 340)"/></g></g><g class="djs-group"><g class="djs-element djs-connection" data-element-id="Flow_13_Close" style="display:block"><g class="djs-visual"><defs><marker id="t" markerHeight="10" markerWidth="10" orient="auto" refX="11" refY="10" viewBox="0 0 20 20"><path d="m1 5 10 5-10 5Z" style="stroke-linecap:round;stroke-linejoin:round;stroke:#22242a;stroke-width:1px;fill:#22242a"/></marker></defs><path d="M1724 290h50" data-corner-radius="5" style="fill:none;stroke-linecap:round;stroke-linejoin:round;stroke:#22242a;stroke-width:2px;marker-end:url(#t)"/></g><path d="M1724 290h50" class="djs-hit djs-hit-stroke" style="fill:none;stroke-opacity:0;stroke:#fff;stroke-width:15px"/></g></g><g class="djs-group"><g class="djs-element djs-shape" data-element-id="Flow_13_Close_label" style="display:block"><g class="djs-visual"><text class="djs-label" style="font-family:Arial,sans-serif;font-size:11px;font-weight:400;fill:#22242a" transform="translate(1733 272)"><tspan x="0" y="9.9">Close</tspan></text></g><path d="M0 0h29v14H0z" class="djs-hit djs-hit-all" style="fill:none;stroke-opacity:0;stroke:#fff;stroke-width:15px" transform="translate(1733 272)"/></g></g></svg>