<svg xmlns="http://www.w3.org/2000/svg" width="1445" height="630" viewBox="155 47 1445 630"><g class="djs-group"><g class="djs-element djs-shape" data-element-id="Participant_Engagement" style="display:block"><g class="djs-visual" transform="translate(155 47)"><rect width="1445" height="630" rx="0" ry="0" style="stroke-linecap:round;stroke-linejoin:round;stroke:#22242a;stroke-width:1.5px;fill:#fff;fill-opacity:.95"/><path d="M30 0v630" style="fill:none;stroke-linecap:round;stroke-linejoin:round;stroke:#22242a;stroke-width:1.5px"/><text class="djs-label" style="font-family:Arial,sans-serif;font-size:12px;font-weight:400;fill:#22242a" transform="rotate(-90 315 315)"><tspan x="232.625" y="18.6">KMFlow Engagement Lifecycle</tspan></text></g><path d="M0 0h1445v630H0z" class="djs-hit djs-hit-all" style="fill:none;stroke-opacity:0;stroke:#fff;stroke-width:15px" transform="translate(155 47)"/></g><g class="djs-children"><g class="djs-group"><g class="djs-element djs-shape" data-element-id="Lane_DeliverableGeneration" style="display:block"><g class="djs-visual" transform="translate(185 467)"><rect width="1415" height="210" rx="0" ry="0" style="stroke-linecap:round;stroke-linejoin:round;stroke:#22242a;stroke-width:1.5px;fill:#fff;fill-opacity:.25"/><text class="djs-label" style="font-family:Arial,sans-serif;font-size:12px;font-weight:400;fill:#22242a" transform="rotate(-90 105 105)"><tspan x="43.625" y="18.6">Deliverable Generation</tspan></text></g><path d="M0 0h1415v210H0z" class="djs-hit djs-hit-all" style="fill:none;stroke-opacity:0;stroke:#fff;stroke-width:15px" transform="translate(185 467)"/></g></g><g class="djs-group"><g class="djs-element djs-shape" data-element-id="Lane_CoreProcessing" style="display:block"><g class="djs-visual" transform="translate(185 257)"><rect width="1415" height="210" rx="0" ry="0" style="stroke-linecap:round;stroke-linejoin:round;stroke:#22242a;stroke-width:1.5px;fill:#fff;fill-opacity:.25"/><text class="djs-label" style="font-family:Arial,sans-serif;font-size:12px;font-weight:400;fill:#22242a" transform="rotate(-90 105 105)"><tspan x="60.641" y="18.6">Core Processing</tspan></text></g><path d="M0 0h1415v210H0z" class="djs-hit djs-hit-all" style="fill:none;stroke-opacity:0;stroke:#fff;stroke-width:15px" transform="translate(185 257)"/></g></g><g class="djs-group"><g class="djs-element djs-shape" data-element-id="Lane_EngagementManagement" style="display:block"><g class="djs-visual" transform="translate(185 47)"><rect width="1415" height="210" rx="0" ry="0" style="stroke-linecap:round;stroke-linejoin:round;stroke:#22242a;stroke-width:1.5px;fill:#fff;fill-opacity:.25"/><text class="djs-label" style="font-family:Arial,sans-serif;font-size:12px;font-weight:400;fill:#22242a" transform="rotate(-90 105 105)"><tspan x="34.281" y="18.6">Engagement Management</tspan></text></g><path d="M0 0h1415v210H0z" class="djs-hit djs-hit-all" style="fill:none;stroke-opacity:0;stroke:#fff;stroke-width:15px" transform="translate(185 47)"/></g></g><g class="djs-group"><g class="djs-element djs-shape" data-element-id="StartEvent_Created" style="display:block" transform="translate(247 134)"><circle cx="18" cy="18" r="18" class="djs-visual" style="stroke-linecap:round;stroke-linejoin:round;stroke:#22242a;stroke-width:2px;fill:#fff;fill-opacity:.95"/><path d="M0 0h36v36H0z" class="djs-hit djs-hit-all" style="fill:none;stroke-opacity:0;stroke:#fff;stroke-width:15px"/></g></g><g class="djs-group"><g class="djs-element djs-shape" data-element-id="StartEvent_Created_label" style="display:block"><g class="djs-visual"><text class="djs-label" style="font-family:Arial,sans-serif;font-size:11px;font-weight:400;fill:#22242a" transform="translate(234 177)"><tspan x="0" y="9.9">Engagement</tspan><tspan x="11.625" y="23.1">Created</tspan></text></g><path d="M0 0h63v27H0z" class="djs-hit djs-hit-all" style="fill:none;stroke-opacity:0;stroke:#fff;stroke-width:15px" transform="translate(234 177)"/></g></g><g class="djs-group"><g class="djs-element djs-shape" data-element-id="Task_ConfigureEngagement" style="display:block"><g class="djs-visual" transform="translate(335 112)"><rect width="100" height="80" rx="10" ry="10" style="stroke-linecap:round;stroke-linejoin:round;stroke:#22242a;stroke-width:2px;fill:#fff;fill-opacity:.95"/><text class="djs-label" style="font-family:Arial,sans-serif;font-size:12px;font-weight:400;fill:#22242a"><tspan x="23.984" y="36.4">Configure </tspan><tspan x="15.969" y="50.8">Engagement</tspan></text><path d="M15 12c.909-.845 1.594-2.049 1.594-3.385 0-2.554-1.805-4.622-4.357-4.622S7.949 6.061 7.949 8.615c0 1.348.974 2.562 1.896 3.405-.529.187-5.669 2.097-5.794 4.756v6.718h17v-6.718c0-2.298-5.528-4.595-6.051-4.776m-8 6v5.5m11 0v-5" style="fill:#fff;stroke-linecap:round;stroke-linejoin:round;stroke:#22242a;stroke-width:.5px"/><path d="M17.162 13.009c0 2.447-2.158 4.431-4.821 4.431-2.665 0-4.822-1.981-4.822-4.431" style="fill:#fff;stroke-linecap:round;stroke-linejoin:round;stroke:#22242a;stroke-width:.5px"/><path d="M8.1 8.2s2.251-2.358 4.274-1.177 4.221 1.537 4.124.965c-.098-.57-.117-3.791-4.191-4.136C8.732 3.853 8.099 7.219 8.1 8.2" style="fill:#22242a;stroke-linecap:round;stroke-linejoin:round;stroke:#22242a;stroke-width:.5px"/></g><path d="M0 0h100v80H0z" class="djs-hit djs-hit-all" style="fill:none;stroke-opacity:0;stroke:#fff;stroke-width:15px" transform="translate(335 112)"/></g></g><g class="djs-group"><g class="djs-element djs-shape" data-element-id="CallActivity_EvidenceCollection" style="display:block"><g class="djs-visual" transform="translate(335 322)"><rect width="100" height="80" rx="10" ry="10" style="stroke-linecap:round;stroke-linejoin:round;stroke:#22242a;stroke-width:5px;fill:#fff;fill-opacity:.95"/><text class="djs-label" style="font-family:Arial,sans-serif;font-size:12px;font-weight:400;fill:#22242a"><tspan x="25.313" y="36.4">Evidence</tspan><tspan x="23.648" y="50.8">Collection</tspan></text><rect width="14" height="14" rx="0" ry="0" style="stroke-linecap:round;stroke-linejoin:round;stroke:#22242a;stroke-width:1px;fill:#fff" transform="translate(42.5 60)"/><path d="M49.5 62v10m-5-5h10" data-marker="sub-process" style="fill:#fff;stroke-linecap:round;stroke-linejoin:round;stroke:#22242a;stroke-width:2px"/></g><path d="M0 0h100v80H0z" class="djs-hit djs-hit-all" style="fill:none;stroke-opacity:0;stroke:#fff;stroke-width:15px" transform="translate(335 322)"/></g></g><g class="djs-group"><g class="djs-element djs-shape" data-element-id="CallActivity_POVGeneration" style="display:block"><g class="djs-visual" transform="translate(487 322)"><rect width="100" height="80" rx="10" ry="10" style="stroke-linecap:round;stroke-linejoin:round;stroke:#22242a;stroke-width:5px;fill:#fff;fill-opacity:.95"/><text class="djs-label" style="font-family:Arial,sans-serif;font-size:12px;font-weight:400;fill:#22242a"><tspan x="37.328" y="36.4">POV</tspan><tspan x="20.313" y="50.8">Generation</tspan></text><rect width="14" height="14" rx="0" ry="0" style="stroke-linecap:round;stroke-linejoin:round;stroke:#22242a;stroke-width:1px;fill:#fff" transform="translate(42.5 60)"/><path d="M49.5 62v10m-5-5h10" data-marker="sub-process" style="fill:#fff;stroke-linecap:round;stroke-linejoin:round;stroke:#22242a;stroke-width:2px"/></g><path d="M0 0h100v80H0z" class="djs-hit djs-hit-all" style="fill:none;stroke-opacity:0;stroke:#fff;stroke-width:15px" transform="translate(487 322)"/></g></g><g class="djs-group"><g class="djs-element djs-shape" data-element-id="Gateway_Phase2Required" style="display:block"><g class="djs-visual"><path d="m25 0 25 25-25 25L0 25z" style="stroke-linecap:round;stroke-linejoin:round;stroke:#22242a;stroke-width:2px;fill:#fff;fill-opacity:.95" transform="translate(639 337)"/><path d="m16 15 7.429 9.714L16 34.43h3.429l5.714-7.465 5.714 7.465h3.429l-7.429-9.715L34.286 15h-3.429l-5.714 7.464L19.429 15z" style="fill:#22242a;stroke-linecap:round;stroke-linejoin:round;stroke:#22242a;stroke-width:1px" transform="translate(639 337)"/></g><path d="M0 0h50v50H0z" class="djs-hit djs-hit-all" style="fill:none;stroke-opacity:0;stroke:#fff;stroke-width:15px" transform="translate(639 337)"/></g></g><g class="djs-group"><g class="djs-element djs-shape" data-element-id="Gateway_Phase2Required_label" style="display:block"><g class="djs-visual"><text class="djs-label" style="font-family:Arial,sans-serif;font-size:11px;font-weight:400;fill:#22242a" transform="translate(634 306)"><tspan x="5.195" y="9.9">Phase 2</tspan><tspan x="0" y="23.1">Required?</tspan></text></g><path d="M0 0h51v27H0z" class="djs-hit djs-hit-all" style="fill:none;stroke-opacity:0;stroke:#fff;stroke-width:15px" transform="translate(634 306)"/></g></g><g class="djs-group"><g class="djs-element djs-shape" data-element-id="CallActivity_TOMAlignment" style="display:block"><g class="djs-visual" transform="translate(741 322)"><rect width="100" height="80" rx="10" ry="10" style="stroke-linecap:round;stroke-linejoin:round;stroke:#22242a;stroke-width:5px;fill:#fff;fill-opacity:.95"/><text class="djs-label" style="font-family:Arial,sans-serif;font-size:12px;font-weight:400;fill:#22242a"><tspan x="36.773" y="36.4">TOM</tspan><tspan x="23.321" y="50.8">Alignment</tspan></text><rect width="14" height="14" rx="0" ry="0" style="stroke-linecap:round;stroke-linejoin:round;stroke:#22242a;stroke-width:1px;fill:#fff" transform="translate(42.5 60)"/><path d="M49.5 62v10m-5-5h10" data-marker="sub-process" style="fill:#fff;stroke-linecap:round;stroke-linejoin:round;stroke:#22242a;stroke-width:2px"/></g><path d="M0 0h100v80H0z" class="djs-hit djs-hit-all" style="fill:none;stroke-opacity:0;stroke:#fff;stroke-width:15px" transform="translate(741 322)"/></g></g><g class="djs-group"><g class="djs-element djs-shape" data-element-id="Gateway_0rzk0dn" style="display:block"><g class="djs-visual"><path d="m25 0 25 25-25 25L0 25z" style="stroke-linecap:round;stroke-linejoin:round;stroke:#22242a;stroke-width:2px;fill:#fff;fill-opacity:.95" transform="translate(766 547)"/><path d="m16 15 7.429 9.714L16 34.43h3.429l5.714-7.465 5.714 7.465h3.429l-7.429-9.715L34.286 15h-3.429l-5.714 7.464L19.429 15z" style="fill:#22242a;stroke-linecap:round;stroke-linejoin:round;stroke:#22242a;stroke-width:1px" transform="translate(766 547)"/></g><path d="M0 0h50v50H0z" class="djs-hit djs-hit-all" style="fill:none;stroke-opacity:0;stroke:#fff;stroke-width:15px" transform="translate(766 547)"/></g></g><g class="djs-group"><g class="djs-element djs-shape" data-element-id="Task_GenerateReport" style="display:block"><g class="djs-visual" transform="translate(860 532)"><rect width="100" height="80" rx="10" ry="10" style="stroke-linecap:round;stroke-linejoin:round;stroke:#22242a;stroke-width:2px;fill:#fff;fill-opacity:.95"/><text class="djs-label" style="font-family:Arial,sans-serif;font-size:12px;font-weight:400;fill:#22242a"><tspan x="24.977" y="29.2">Generate </tspan><tspan x="15.969" y="43.6">Engagement </tspan><tspan x="31.984" y="58">Report</tspan></text><circle cx="5" cy="5" r="5" style="stroke-linecap:round;stroke-linejoin:round;stroke:none;stroke-width:2px;fill:#fff" transform="translate(6 6)"/><path d="M12 18v-1.713a5.6 5.6 0 0 0 2.014-.843l1.194 1.18 1.568-1.577-1.195-1.18c.403-.614.683-1.3.825-2.018l1.622-.01v-2.22l-1.636.01a5.6 5.6 0 0 0-.846-2.006l1.13-1.136-1.583-1.563-1.13 1.136a5.7 5.7 0 0 0-2.022-.823l.01-1.618H9.708l.004 1.631q-.531.11-1.05.324a5.7 5.7 0 0 0-.963.52L6.53 4.936l-1.567 1.58 1.169 1.156a5.7 5.7 0 0 0-.825 2.017l-1.659.003v2.222l1.673-.006a5.5 5.5 0 0 0 .847 2.005l-1.2 1.197 1.585 1.56 1.196-1.193a5.7 5.7 0 0 0 2.023.823l.001 1.7zm.221-3.996a3.53 3.53 0 0 1-4.61-1.874 3.51 3.51 0 0 1 1.881-4.596 3.53 3.53 0 0 1 4.609 1.874 3.51 3.51 0 0 1-1.88 4.596" style="fill:#fff;stroke-linecap:round;stroke-linejoin:round;stroke:#22242a;stroke-width:1px"/><circle cx="5" cy="5" r="5" style="stroke-linecap:round;stroke-linejoin:round;stroke:none;stroke-width:2px;fill:#fff" transform="translate(11 10)"/><path d="M17 22v-1.713a5.6 5.6 0 0 0 2.014-.843l1.194 1.18 1.568-1.577-1.195-1.18c.403-.614.683-1.3.825-2.018l1.622-.01v-2.22l-1.636.01a5.6 5.6 0 0 0-.846-2.006l1.13-1.136-1.583-1.563-1.13 1.136a5.7 5.7 0 0 0-2.022-.823l.01-1.618h-2.242l.004 1.631q-.531.11-1.05.324a5.7 5.7 0 0 0-.963.52l-1.17-1.158-1.567 1.58 1.169 1.156a5.7 5.7 0 0 0-.825 2.017l-1.659.003v2.222l1.673-.006a5.5 5.5 0 0 0 .847 2.005l-1.2 1.197 1.585 1.56 1.196-1.193a5.7 5.7 0 0 0 2.023.823l.001 1.7zm.221-3.996a3.53 3.53 0 0 1-4.61-1.874 3.51 3.51 0 0 1 1.881-4.596 3.53 3.53 0 0 1 4.609 1.874 3.51 3.51 0 0 1-1.88 4.596" style="fill:#fff;stroke-linecap:round;stroke-linejoin:round;stroke:#22242a;stroke-width:1px"/></g><path d="M0 0h100v80H0z" class="djs-hit djs-hit-all" style="fill:none;stroke-opacity:0;stroke:#fff;stroke-width:15px" transform="translate(860 532)"/></g></g><g class="djs-group"><g class="djs-element djs-shape" data-element-id="Gateway_Phase3Required" style="display:block"><g class="djs-visual"><path d="m25 0 25 25-25 25L0 25z" style="stroke-linecap:round;stroke-linejoin:round;stroke:#22242a;stroke-width:2px;fill:#fff;fill-opacity:.95" transform="translate(1005 547)"/><path d="m16 15 7.429 9.714L16 34.43h3.429l5.714-7.465 5.714 7.465h3.429l-7.429-9.715L34.286 15h-3.429l-5.714 7.464L19.429 15z" style="fill:#22242a;stroke-linecap:round;stroke-linejoin:round;stroke:#22242a;stroke-width:1px" transform="translate(1005 547)"/></g><path d="M0 0h50v50H0z" class="djs-hit djs-hit-all" style="fill:none;stroke-opacity:0;stroke:#fff;stroke-width:15px" transform="translate(1005 547)"/></g></g><g class="djs-group"><g class="djs-element djs-shape" data-element-id="Gateway_Phase3Required_label" style="display:block"><g class="djs-visual"><text class="djs-label" style="font-family:Arial,sans-serif;font-size:11px;font-weight:400;fill:#22242a" transform="translate(1005 604)"><tspan x="5.195" y="9.9">Phase 3</tspan><tspan x="0" y="23.1">Required?</tspan></text></g><path d="M0 0h51v27H0z" class="djs-hit djs-hit-all" style="fill:none;stroke-opacity:0;stroke:#fff;stroke-width:15px" transform="translate(1005 604)"/></g></g><g class="djs-group"><g class="djs-element djs-shape" data-element-id="CallActivity_ContinuousMonitoring" style="display:block"><g class="djs-visual" transform="translate(1150 322)"><rect width="100" height="80" rx="10" ry="10" style="stroke-linecap:round;stroke-linejoin:round;stroke:#22242a;stroke-width:5px;fill:#fff;fill-opacity:.95"/><text class="djs-label" style="font-family:Arial,sans-serif;font-size:12px;font-weight:400;fill:#22242a"><tspan x="19.641" y="36.4">Continuous</tspan><tspan x="21.984" y="50.8">Monitoring</tspan></text><rect width="14" height="14" rx="0" ry="0" style="stroke-linecap:round;stroke-linejoin:round;stroke:#22242a;stroke-width:1px;fill:#fff" transform="translate(42.5 60)"/><path d="M49.5 62v10m-5-5h10" data-marker="sub-process" style="fill:#fff;stroke-linecap:round;stroke-linejoin:round;stroke:#22242a;stroke-width:2px"/></g><path d="M0 0h100v80H0z" class="djs-hit djs-hit-all" style="fill:none;stroke-opacity:0;stroke:#fff;stroke-width:15px" transform="translate(1150 322)"/></g></g><g class="djs-group"><g class="djs-element djs-shape" data-element-id="Task_CloseEngagement" style="display:block"><g class="djs-visual" transform="translate(1360 112)"><rect width="100" height="80" rx="10" ry="10" style="stroke-linecap:round;stroke-linejoin:round;stroke:#22242a;stroke-width:2px;fill:#fff;fill-opacity:.95"/><text class="djs-label" style="font-family:Arial,sans-serif;font-size:12px;font-weight:400;fill:#22242a"><tspan x="34.656" y="36.4">Close </tspan><tspan x="15.969" y="50.8">Engagement</tspan></text><path d="M15 12c.909-.845 1.594-2.049 1.594-3.385 0-2.554-1.805-4.622-4.357-4.622S7.949 6.061 7.949 8.615c0 1.348.974 2.562 1.896 3.405-.529.187-5.669 2.097-5.794 4.756v6.718h17v-6.718c0-2.298-5.528-4.595-6.051-4.776m-8 6v5.5m11 0v-5" style="fill:#fff;stroke-linecap:round;stroke-linejoin:round;stroke:#22242a;stroke-width:.5px"/><path d="M17.162 13.009c0 2.447-2.158 4.431-4.821 4.431-2.665 0-4.822-1.981-4.822-4.431" style="fill:#fff;stroke-linecap:round;stroke-linejoin:round;stroke:#22242a;stroke-width:.5px"/><path d="M8.1 8.2s2.251-2.358 4.274-1.177 4.221 1.537 4.124.965c-.098-.57-.117-3.791-4.191-4.136C8.732 3.853 8.099 7.219 8.1 8.2" style="fill:#22242a;stroke-linecap:round;stroke-linejoin:round;stroke:#22242a;stroke-width:.5px"/></g><path d="M0 0h100v80H0z" class="djs-hit djs-hit-all" style="fill:none;stroke-opacity:0;stroke:#fff;stroke-width:15px" transform="translate(1360 112)"/></g></g><g class="djs-group"><g class="djs-element djs-shape" data-element-id="EndEvent_Closed" style="display:block" transform="translate(1512 134)"><circle cx="18" cy="18" r="18" class="djs-visual" style="stroke-linecap:round;stroke-linejoin:round;stroke:#22242a;stroke-width:4px;fill:#fff;fill-opacity:.95"/><path d="M0 0h36v36H0z" class="djs-hit djs-hit-all" style="fill:none;stroke-opacity:0;stroke:#fff;stroke-width:15px"/></g></g><g class="djs-group"><g class="djs-element djs-shape" data-element-id="EndEvent_Closed_label" style="display:block"><g class="djs-visual"><text class="djs-label" style="font-family:Arial,sans-serif;font-size:11px;font-weight:400;fill:#22242a" transform="translate(1499 177)"><tspan x="0" y="9.9">Engagement</tspan><tspan x="14.07" y="23.1">Closed</tspan></text></g><path d="M0 0h63v27H0z" class="djs-hit djs-hit-all" style="fill:none;stroke-opacity:0;stroke:#fff;stroke-width:15px" transform="translate(1499 177)"/></g></g><g class="djs-group"><g class="djs-element djs-connection" data-element-id="Flow_01" style="display:block"><g class="djs-visual"><defs><marker id="a" markerHeight="10" markerWidth="10" orient="auto" refX="11" refY="10" viewBox="0 0 20 20"><path d="m1 5 10 5-10 5Z" style="stroke-linecap:round;stroke-linejoin:round;stroke:#22242a;stroke-width:1px;fill:#22242a"/></marker></defs><path d="M283 152h52" data-corner-radius="5" style="fill:none;stroke-linecap:round;stroke-linejoin:round;stroke:#22242a;stroke-width:2px;marker-end:url(#a)"/></g><path d="M283 152h52" class="djs-hit djs-hit-stroke" style="fill:none;stroke-opacity:0;stroke:#fff;stroke-width:15px"/></g></g><g class="djs-group"><g class="djs-element djs-connection" data-element-id="Flow_02" style="display:block"><g class="djs-visual"><defs><marker id="b" markerHeight="10" markerWidth="10" orient="auto" refX="11" refY="10" viewBox="0 0 20 20"><path d="m1 5 10 5-10 5Z" style="stroke-linecap:round;stroke-linejoin:round;stroke:#22242a;stroke-width:1px;fill:#22242a"/></marker></defs><path d="M385 192v130" data-corner-radius="5" style="fill:none;stroke-linecap:round;stroke-linejoin:round;stroke:#22242a;stroke-width:2px;marker-end:url(#b)"/></g><path d="M385 192v130" class="djs-hit djs-hit-stroke" style="fill:none;stroke-opacity:0;stroke:#fff;stroke-width:15px"/></g></g><g class="djs-group"><g class="djs-element djs-connection" data-element-id="Flow_03" style="display:block"><g class="djs-visual"><defs><marker id="c" markerHeight="10" markerWidth="10" orient="auto" refX="11" refY="10" viewBox="0 0 20 20"><path d="m1 5 10 5-10 5Z" style="stroke-linecap:round;stroke-linejoin:round;stroke:#22242a;stroke-width:1px;fill:#22242a"/></marker></defs><path d="M435 362h52" data-corner-radius="5" style="fill:none;stroke-linecap:round;stroke-linejoin:round;stroke:#22242a;stroke-width:2px;marker-end:url(#c)"/></g><path d="M435 362h52" class="djs-hit djs-hit-stroke" style="fill:none;stroke-opacity:0;stroke:#fff;stroke-width:15px"/></g></g><g class="djs-group"><g class="djs-element djs-connection" data-element-id="Flow_04" style="display:block"><g class="djs-visual"><defs><marker id="d" markerHeight="10" markerWidth="10" orient="auto" refX="11" refY="10" viewBox="0 0 20 20"><path d="m1 5 10 5-10 5Z" style="stroke-linecap:round;stroke-linejoin:round;stroke:#22242a;stroke-width:1px;fill:#22242a"/></marker></defs><path d="M587 362h52" data-corner-radius="5" style="fill:none;stroke-linecap:round;stroke-linejoin:round;stroke:#22242a;stroke-width:2px;marker-end:url(#d)"/></g><path d="M587 362h52" class="djs-hit djs-hit-stroke" style="fill:none;stroke-opacity:0;stroke:#fff;stroke-width:15px"/></g></g><g class="djs-group"><g class="djs-element djs-connection" data-element-id="Flow_05_Yes" style="display:block"><g class="djs-visual"><defs><marker id="e" markerHeight="10" markerWidth="10" orient="auto" refX="11" refY="10" viewBox="0 0 20 20"><path d="m1 5 10 5-10 5Z" style="stroke-linecap:round;stroke-linejoin:round;stroke:#22242a;stroke-width:1px;fill:#22242a"/></marker></defs><path d="M689 362h52" data-corner-radius="5" style="fill:none;stroke-linecap:round;stroke-linejoin:round;stroke:#22242a;stroke-width:2px;marker-end:url(#e)"/></g><path d="M689 362h52" class="djs-hit djs-hit-stroke" style="fill:none;stroke-opacity:0;stroke:#fff;stroke-width:15px"/></g></g><g class="djs-group"><g class="djs-element djs-shape" data-element-id="Flow_05_Yes_label" style="display:block"><g class="djs-visual"><text class="djs-label" style="font-family:Arial,sans-serif;font-size:11px;font-weight:400;fill:#22242a" transform="translate(704 344)"><tspan x="0" y="9.9">Yes</tspan></text></g><path d="M0 0h18v14H0z" class="djs-hit djs-hit-all" style="fill:none;stroke-opacity:0;stroke:#fff;stroke-width:15px" transform="translate(704 344)"/></g></g><g class="djs-group"><g class="djs-element djs-connection" data-element-id="Flow_05_No" style="display:block"><g class="djs-visual"><defs><marker id="f" markerHeight="10" markerWidth="10" orient="auto" refX="11" refY="10" viewBox="0 0 20 20"><path d="m1 5 10 5-10 5Z" style="stroke-linecap:round;stroke-linejoin:round;stroke:#22242a;stroke-width:1px;fill:#22242a"/></marker></defs><path d="M664 387v180c0 2.5 2.5 5 5 5h97" data-corner-radius="5" style="fill:none;stroke-linecap:round;stroke-linejoin:round;stroke:#22242a;stroke-width:2px;marker-end:url(#f)"/></g><path d="M664 387v185h102" class="djs-hit djs-hit-stroke" style="fill:none;stroke-opacity:0;stroke:#fff;stroke-width:15px"/></g></g><g class="djs-group"><g class="djs-element djs-shape" data-element-id="Flow_05_No_label" style="display:block"><g class="djs-visual"><text class="djs-label" style="font-family:Arial,sans-serif;font-size:11px;font-weight:400;fill:#22242a" transform="translate(672 503)"><tspan x="0" y="9.9">No</tspan></text></g><path d="M0 0h15v14H0z" class="djs-hit djs-hit-all" style="fill:none;stroke-opacity:0;stroke:#fff;stroke-width:15px" transform="translate(672 503)"/></g></g><g class="djs-group"><g class="djs-element djs-connection" data-element-id="Flow_06" style="display:block"><g class="djs-visual"><defs><marker id="g" markerHeight="10" markerWidth="10" orient="auto" refX="11" refY="10" viewBox="0 0 20 20"><path d="m1 5 10 5-10 5Z" style="stroke-linecap:round;stroke-linejoin:round;stroke:#22242a;stroke-width:1px;fill:#22242a"/></marker></defs><path d="M791 402v145" data-corner-radius="5" style="fill:none;stroke-linecap:round;stroke-linejoin:round;stroke:#22242a;stroke-width:2px;marker-end:url(#g)"/></g><path d="M791 402v145" class="djs-hit djs-hit-stroke" style="fill:none;stroke-opacity:0;stroke:#fff;stroke-width:15px"/></g></g><g class="djs-group"><g class="djs-element djs-connection" data-element-id="Flow_07" style="display:block"><g class="djs-visual"><defs><marker id="h" markerHeight="10" markerWidth="10" orient="auto" refX="11" refY="10" viewBox="0 0 20 20"><path d="m1 5 10 5-10 5Z" style="stroke-linecap:round;stroke-linejoin:round;stroke:#22242a;stroke-width:1px;fill:#22242a"/></marker></defs><path d="M960 572h45" data-corner-radius="5" style="fill:none;stroke-linecap:round;stroke-linejoin:round;stroke:#22242a;stroke-width:2px;marker-end:url(#h)"/></g><path d="M960 572h45" class="djs-hit djs-hit-stroke" style="fill:none;stroke-opacity:0;stroke:#fff;stroke-width:15px"/></g></g><g class="djs-group"><g class="djs-element djs-connection" data-element-id="Flow_08_Yes" style="display:block"><g class="djs-visual"><defs><marker id="i" markerHeight="10" markerWidth="10" orient="auto" refX="11" refY="10" viewBox="0 0 20 20"><path d="m1 5 10 5-10 5Z" style="stroke-linecap:round;stroke-linejoin:round;stroke:#22242a;stroke-width:1px;fill:#22242a"/></marker></defs><path d="M1030 547V367c0-2.5 2.5-5 5-5h115" data-corner-radius="5" style="fill:none;stroke-linecap:round;stroke-linejoin:round;stroke:#22242a;stroke-width:2px;marker-end:url(#i)"/></g><path d="M1030 547V362h120" class="djs-hit djs-hit-stroke" style="fill:none;stroke-opacity:0;stroke:#fff;stroke-width:15px"/></g></g><g class="djs-group"><g class="djs-element djs-shape" data-element-id="Flow_08_Yes_label" style="display:block"><g class="djs-visual"><text class="djs-label" style="font-family:Arial,sans-serif;font-size:11px;font-weight:400;fill:#22242a" transform="translate(1039 503)"><tspan x="0" y="9.9">Yes</tspan></text></g><path d="M0 0h18v14H0z" class="djs-hit djs-hit-all" style="fill:none;stroke-opacity:0;stroke:#fff;stroke-width:15px" transform="translate(1039 503)"/></g></g><g class="djs-group"><g class="djs-element djs-connection" data-element-id="Flow_08_No" style="display:block"><g class="djs-visual"><defs><marker id="j" markerHeight="10" markerWidth="10" orient="auto" refX="11" refY="10" viewBox="0 0 20 20"><path d="m1 5 10 5-10 5Z" style="stroke-linecap:round;stroke-linejoin:round;stroke:#22242a;stroke-width:1px;fill:#22242a"/></marker></defs><path d="M1055 572h350c2.5 0 5-2.5 5-5V192" data-corner-radius="5" style="fill:none;stroke-linecap:round;stroke-linejoin:round;stroke:#22242a;stroke-width:2px;marker-end:url(#j)"/></g><path d="M1055 572h355V192" class="djs-hit djs-hit-stroke" style="fill:none;stroke-opacity:0;stroke:#fff;stroke-width:15px"/></g></g><g class="djs-group"><g class="djs-element djs-shape" data-element-id="Flow_08_No_label" style="display:block"><g class="djs-visual"><text class="djs-label" style="font-family:Arial,sans-serif;font-size:11px;font-weight:400;fill:#22242a" transform="translate(1066 554)"><tspan x="0" y="9.9">No</tspan></text></g><path d="M0 0h15v14H0z" class="djs-hit djs-hit-all" style="fill:none;stroke-opacity:0;stroke:#fff;stroke-width:15px" transform="translate(1066 554)"/></g></g><g class="djs-group"><g class="djs-element djs-connection" data-element-id="Flow_09" style="display:block"><g class="djs-visual"><defs><marker id="k" markerHeight="10" markerWidth="10" orient="auto" refX="11" refY="10" viewBox="0 0 20 20"><path d="m1 5 10 5-10 5Z" style="stroke-linecap:round;stroke-linejoin:round;stroke:#22242a;stroke-width:1px;fill:#22242a"/></marker></defs><path d="M1200 322V157c0-2.5 2.5-5 5-5h155" data-corner-radius="5" style="fill:none;stroke-linecap:round;stroke-linejoin:round;stroke:#22242a;stroke-width:2px;marker-end:url(#k)"/></g><path d="M1200 322V152h160" class="djs-hit djs-hit-stroke" style="fill:none;stroke-opacity:0;stroke:#fff;stroke-width:15px"/></g></g><g class="djs-group"><g class="djs-element djs-connection" data-element-id="Flow_10" style="display:block"><g class="djs-visual"><defs><marker id="l" markerHeight="10" markerWidth="10" orient="auto" refX="11" refY="10" viewBox="0 0 20 20"><path d="m1 5 10 5-10 5Z" style="stroke-linecap:round;stroke-linejoin:round;stroke:#22242a;stroke-width:1px;fill:#22242a"/></marker></defs><path d="M1460 152h52" data-corner-radius="5" style="fill:none;stroke-linecap:round;stroke-linejoin:round;stroke:#22242a;stroke-width:2px;marker-end:url(#l)"/></g><path d="M1460 152h52" class="djs-hit djs-hit-stroke" style="fill:none;stroke-opacity:0;stroke:#fff;stroke-width:15px"/></g></g><g class="djs-group"><g class="djs-element djs-connection" data-element-id="Flow_1ieh0cz" style="display:block"><g class="djs-visual"><defs><marker id="m" markerHeight="10" markerWidth="10" orient="auto" refX="11" refY="10" viewBox="0 0 20 20"><path d="m1 5 10 5-10 5Z" style="stroke-linecap:round;stroke-linejoin:round;stroke:#22242a;stroke-width:1px;fill:#22242a"/></marker></defs><path d="M816 572h44" data-corner-radius="5" style="fill:none;stroke-linecap:round;stroke-linejoin:round;stroke:#22242a;stroke-width:2px;marker-end:url(#m)"/></g><path d="M816 572h44" class="djs-hit djs-hit-stroke" style="fill:none;stroke-opacity:0;stroke:#fff;stroke-width:15px"/></g></g></g></g></svg>