<svg xmlns="http://www.w3.org/2000/svg" width="1645" height="863" viewBox="155 47 1645 863"><g class="djs-group"><g class="djs-element djs-shape" data-element-id="Participant_Evidence" style="display:block"><g class="djs-visual" transform="translate(155 47)"><rect width="1645" height="863" rx="0" ry="0" style="stroke-linecap:round;stroke-linejoin:round;stroke:#22242a;stroke-width:1.5px;fill:#fff;fill-opacity:.95"/><path d="M30 0v863" style="fill:none;stroke-linecap:round;stroke-linejoin:round;stroke:#22242a;stroke-width:1.5px"/><text class="djs-label" style="font-family:Arial,sans-serif;font-size:12px;font-weight:400;fill:#22242a" transform="matrix(0 -1 1 0 0 863)"><tspan x="355.469" y="18.6">KMFlow Evidence Collection</tspan></text></g><path d="M0 0h1645v863H0z" class="djs-hit djs-hit-all" style="fill:none;stroke-opacity:0;stroke:#fff;stroke-width:15px" transform="translate(155 47)"/></g><g class="djs-children"><g class="djs-group"><g class="djs-element djs-shape" data-element-id="Lane_Client" style="display:block"><g class="djs-visual" transform="translate(185 641)"><rect width="1615" height="269" rx="0" ry="0" style="stroke-linecap:round;stroke-linejoin:round;stroke:#22242a;stroke-width:1.5px;fill:#fff;fill-opacity:.25"/><text class="djs-label" style="font-family:Arial,sans-serif;font-size:12px;font-weight:400;fill:#22242a" transform="matrix(0 -1 1 0 0 269)"><tspan x="119.156" y="18.6">Client</tspan></text></g><path d="M0 0h1615v269H0z" class="djs-hit djs-hit-all" style="fill:none;stroke-opacity:0;stroke:#fff;stroke-width:15px" transform="translate(185 641)"/></g></g><g class="djs-group"><g class="djs-element djs-shape" data-element-id="Lane_ProcessAnalyst" style="display:block"><g class="djs-visual" transform="translate(185 480)"><rect width="1615" height="161" rx="0" ry="0" style="stroke-linecap:round;stroke-linejoin:round;stroke:#22242a;stroke-width:1.5px;fill:#fff;fill-opacity:.25"/><text class="djs-label" style="font-family:Arial,sans-serif;font-size:12px;font-weight:400;fill:#22242a" transform="rotate(-90 80.5 80.5)"><tspan x="37.813" y="18.6">Process Analyst</tspan></text></g><path d="M0 0h1615v161H0z" class="djs-hit djs-hit-all" style="fill:none;stroke-opacity:0;stroke:#fff;stroke-width:15px" transform="translate(185 480)"/></g></g><g class="djs-group"><g class="djs-element djs-shape" data-element-id="Lane_ProcessingEngine" style="display:block"><g class="djs-visual" transform="translate(185 220)"><rect width="1615" height="260" rx="0" ry="0" style="stroke-linecap:round;stroke-linejoin:round;stroke:#22242a;stroke-width:1.5px;fill:#fff;fill-opacity:.25"/><text class="djs-label" style="font-family:Arial,sans-serif;font-size:12px;font-weight:400;fill:#22242a" transform="rotate(-90 130 130)"><tspan x="53.617" y="18.6">Evidence Processing Engine</tspan></text></g><path d="M0 0h1615v260H0z" class="djs-hit djs-hit-all" style="fill:none;stroke-opacity:0;stroke:#fff;stroke-width:15px" transform="translate(185 220)"/></g></g><g class="djs-group"><g class="djs-element djs-shape" data-element-id="Lane_EngagementLead" style="display:block"><g class="djs-visual" transform="translate(185 47)"><rect width="1615" height="173" rx="0" ry="0" style="stroke-linecap:round;stroke-linejoin:round;stroke:#22242a;stroke-width:1.5px;fill:#fff;fill-opacity:.25"/><text class="djs-label" style="font-family:Arial,sans-serif;font-size:12px;font-weight:400;fill:#22242a" transform="rotate(-90 86.5 86.5)"><tspan x="37.453" y="18.6">Engagement Lead</tspan></text></g><path d="M0 0h1615v173H0z" class="djs-hit djs-hit-all" style="fill:none;stroke-opacity:0;stroke:#fff;stroke-width:15px" transform="translate(185 47)"/></g></g><g class="djs-group"><g class="djs-element djs-shape" data-element-id="Gateway_ParallelFork" style="display:block"><g class="djs-visual"><path d="m25 0 25 25-25 25L0 25z" style="stroke-linecap:round;stroke-linejoin:round;stroke:#22242a;stroke-width:2px;fill:#fff;fill-opacity:.95" transform="translate(709 319)"/><path d="M23 10v12.5H10.5v5H23V40h5V27.5h12.5v-5H28V10z" style="fill:#22242a;stroke-linecap:round;stroke-linejoin:round;stroke:#22242a;stroke-width:1px" transform="translate(709 319)"/></g><path d="M0 0h50v50H0z" class="djs-hit djs-hit-all" style="fill:none;stroke-opacity:0;stroke:#fff;stroke-width:15px" transform="translate(709 319)"/></g></g><g class="djs-group"><g class="djs-element djs-shape" data-element-id="Gateway_ParallelJoin" style="display:block"><g class="djs-visual"><path d="m25 0 25 25-25 25L0 25z" style="stroke-linecap:round;stroke-linejoin:round;stroke:#22242a;stroke-width:2px;fill:#fff;fill-opacity:.95" transform="translate(963 319)"/><path d="M23 10v12.5H10.5v5H23V40h5V27.5h12.5v-5H28V10z" style="fill:#22242a;stroke-linecap:round;stroke-linejoin:round;stroke:#22242a;stroke-width:1px" transform="translate(963 319)"/></g><path d="M0 0h50v50H0z" class="djs-hit djs-hit-all" style="fill:none;stroke-opacity:0;stroke:#fff;stroke-width:15px" transform="translate(963 319)"/></g></g><g class="djs-group"><g class="djs-element djs-shape" data-element-id="Gateway_QualityThreshold" style="display:block"><g class="djs-visual"><path d="m25 0 25 25-25 25L0 25z" style="stroke-linecap:round;stroke-linejoin:round;stroke:#22242a;stroke-width:2px;fill:#fff;fill-opacity:.95" transform="translate(1065 319)"/><path d="m16 15 7.429 9.714L16 34.43h3.429l5.714-7.465 5.714 7.465h3.429l-7.429-9.715L34.286 15h-3.429l-5.714 7.464L19.429 15z" style="fill:#22242a;stroke-linecap:round;stroke-linejoin:round;stroke:#22242a;stroke-width:1px" transform="translate(1065 319)"/></g><path d="M0 0h50v50H0z" class="djs-hit djs-hit-all" style="fill:none;stroke-opacity:0;stroke:#fff;stroke-width:15px" transform="translate(1065 319)"/></g></g><g class="djs-group"><g class="djs-element djs-shape" data-element-id="Gateway_QualityThreshold_label" style="display:block"><g class="djs-visual"><text class="djs-label" style="font-family:Arial,sans-serif;font-size:11px;font-weight:400;fill:#22242a" transform="translate(1062 282)"><tspan x="10.398" y="9.9">Quality</tspan><tspan x="0" y="23.1">Threshold?</tspan></text></g><path d="M0 0h56v27H0z" class="djs-hit djs-hit-all" style="fill:none;stroke-opacity:0;stroke:#fff;stroke-width:15px" transform="translate(1062 282)"/></g></g><g class="djs-group"><g class="djs-element djs-shape" data-element-id="Gateway_13lmtvz" style="display:block"><g class="djs-visual"><path d="m25 0 25 25-25 25L0 25z" style="stroke-linecap:round;stroke-linejoin:round;stroke:#22242a;stroke-width:2px;fill:#fff;fill-opacity:.95" transform="translate(475 319)"/><path d="m16 15 7.429 9.714L16 34.43h3.429l5.714-7.465 5.714 7.465h3.429l-7.429-9.715L34.286 15h-3.429l-5.714 7.464L19.429 15z" style="fill:#22242a;stroke-linecap:round;stroke-linejoin:round;stroke:#22242a;stroke-width:1px" transform="translate(475 319)"/></g><path d="M0 0h50v50H0z" class="djs-hit djs-hit-all" style="fill:none;stroke-opacity:0;stroke:#fff;stroke-width:15px" transform="translate(475 319)"/></g></g><g class="djs-group"><g class="djs-element djs-shape" data-element-id="Task_Classify" style="display:block"><g class="djs-visual" transform="translate(570 304)"><rect width="100" height="80" rx="10" ry="10" style="stroke-linecap:round;stroke-linejoin:round;stroke:#22242a;stroke-width:2px;fill:#fff;fill-opacity:.95"/><text class="djs-label" style="font-family:Arial,sans-serif;font-size:12px;font-weight:400;fill:#22242a"><tspan x="28.992" y="36.4">Classify </tspan><tspan x="25.313" y="50.8">Evidence</tspan></text><circle cx="5" cy="5" r="5" style="stroke-linecap:round;stroke-linejoin:round;stroke:none;stroke-width:2px;fill:#fff" transform="translate(6 6)"/><path d="M12 18v-1.713a5.6 5.6 0 0 0 2.014-.843l1.194 1.18 1.568-1.577-1.195-1.18c.403-.614.683-1.3.825-2.018l1.622-.01v-2.22l-1.636.01a5.6 5.6 0 0 0-.846-2.006l1.13-1.136-1.583-1.563-1.13 1.136a5.7 5.7 0 0 0-2.022-.823l.01-1.618H9.708l.004 1.631q-.531.11-1.05.324a5.7 5.7 0 0 0-.963.52L6.53 4.936l-1.567 1.58 1.169 1.156a5.7 5.7 0 0 0-.825 2.017l-1.659.003v2.222l1.673-.006a5.5 5.5 0 0 0 .847 2.005l-1.2 1.197 1.585 1.56 1.196-1.193a5.7 5.7 0 0 0 2.023.823l.001 1.7zm.221-3.996a3.53 3.53 0 0 1-4.61-1.874 3.51 3.51 0 0 1 1.881-4.596 3.53 3.53 0 0 1 4.609 1.874 3.51 3.51 0 0 1-1.88 4.596" style="fill:#fff;stroke-linecap:round;stroke-linejoin:round;stroke:#22242a;stroke-width:1px"/><circle cx="5" cy="5" r="5" style="stroke-linecap:round;stroke-linejoin:round;stroke:none;stroke-width:2px;fill:#fff" transform="translate(11 10)"/><path d="M17 22v-1.713a5.6 5.6 0 0 0 2.014-.843l1.194 1.18 1.568-1.577-1.195-1.18c.403-.614.683-1.3.825-2.018l1.622-.01v-2.22l-1.636.01a5.6 5.6 0 0 0-.846-2.006l1.13-1.136-1.583-1.563-1.13 1.136a5.7 5.7 0 0 0-2.022-.823l.01-1.618h-2.242l.004 1.631q-.531.11-1.05.324a5.7 5.7 0 0 0-.963.52l-1.17-1.158-1.567 1.58 1.169 1.156a5.7 5.7 0 0 0-.825 2.017l-1.659.003v2.222l1.673-.006a5.5 5.5 0 0 0 .847 2.005l-1.2 1.197 1.585 1.56 1.196-1.193a5.7 5.7 0 0 0 2.023.823l.001 1.7zm.221-3.996a3.53 3.53 0 0 1-4.61-1.874 3.51 3.51 0 0 1 1.881-4.596 3.53 3.53 0 0 1 4.609 1.874 3.51 3.51 0 0 1-1.88 4.596" style="fill:#fff;stroke-linecap:round;stroke-linejoin:round;stroke:#22242a;stroke-width:1px"/></g><path d="M0 0h100v80H0z" class="djs-hit djs-hit-all" style="fill:none;stroke-opacity:0;stroke:#fff;stroke-width:15px" transform="translate(570 304)"/></g></g><g class="djs-group"><g class="djs-element djs-shape" data-element-id="StartEvent_1" style="display:block" transform="translate(247 112)"><circle cx="18" cy="18" r="18" class="djs-visual" style="stroke-linecap:round;stroke-linejoin:round;stroke:#22242a;stroke-width:2px;fill:#fff;fill-opacity:.95"/><path d="M0 0h36v36H0z" class="djs-hit djs-hit-all" style="fill:none;stroke-opacity:0;stroke:#fff;stroke-width:15px"/></g></g><g class="djs-group"><g class="djs-element djs-shape" data-element-id="StartEvent_1_label" style="display:block"><g class="djs-visual"><text class="djs-label" style="font-family:Arial,sans-serif;font-size:11px;font-weight:400;fill:#22242a" transform="translate(240 155)"><tspan x="2.133" y="9.9">Evidence</tspan><tspan x="0" y="23.1">Submitted</tspan></text></g><path d="M0 0h50v27H0z" class="djs-hit djs-hit-all" style="fill:none;stroke-opacity:0;stroke:#fff;stroke-width:15px" transform="translate(240 155)"/></g></g><g class="djs-group"><g class="djs-element djs-shape" data-element-id="Task_Upload" style="display:block"><g class="djs-visual" transform="translate(335 90)"><rect width="100" height="80" rx="10" ry="10" style="stroke-linecap:round;stroke-linejoin:round;stroke:#22242a;stroke-width:2px;fill:#fff;fill-opacity:.95"/><text class="djs-label" style="font-family:Arial,sans-serif;font-size:12px;font-weight:400;fill:#22242a"><tspan x="30.984" y="36.4">Upload </tspan><tspan x="25.313" y="50.8">Evidence</tspan></text><path d="M15 12c.909-.845 1.594-2.049 1.594-3.385 0-2.554-1.805-4.622-4.357-4.622S7.949 6.061 7.949 8.615c0 1.348.974 2.562 1.896 3.405-.529.187-5.669 2.097-5.794 4.756v6.718h17v-6.718c0-2.298-5.528-4.595-6.051-4.776m-8 6v5.5m11 0v-5" style="fill:#fff;stroke-linecap:round;stroke-linejoin:round;stroke:#22242a;stroke-width:.5px"/><path d="M17.162 13.009c0 2.447-2.158 4.431-4.821 4.431-2.665 0-4.822-1.981-4.822-4.431" style="fill:#fff;stroke-linecap:round;stroke-linejoin:round;stroke:#22242a;stroke-width:.5px"/><path d="M8.1 8.2s2.251-2.358 4.274-1.177 4.221 1.537 4.124.965c-.098-.57-.117-3.791-4.191-4.136C8.732 3.853 8.099 7.219 8.1 8.2" style="fill:#22242a;stroke-linecap:round;stroke-linejoin:round;stroke:#22242a;stroke-width:.5px"/></g><path d="M0 0h100v80H0z" class="djs-hit djs-hit-all" style="fill:none;stroke-opacity:0;stroke:#fff;stroke-width:15px" transform="translate(335 90)"/></g></g><g class="djs-group"><g class="djs-element djs-shape" data-element-id="Subprocess_FormatParsing" style="display:block"><g class="djs-visual" transform="translate(811 240)"><rect width="100" height="80" rx="10" ry="10" style="stroke-linecap:round;stroke-linejoin:round;stroke:#22242a;stroke-width:2px;fill:#fff;fill-opacity:.95"/><text class="djs-label" style="font-family:Arial,sans-serif;font-size:12px;font-weight:400;fill:#22242a"><tspan x="7.984" y="36.4">Format-Specific</tspan><tspan x="29.656" y="50.8">Parsing</tspan></text><rect width="14" height="14" rx="0" ry="0" style="stroke-linecap:round;stroke-linejoin:round;stroke:#22242a;stroke-width:1px;fill:#fff" transform="translate(42.5 60)"/><path d="M49.5 62v10m-5-5h10" data-marker="sub-process" style="fill:#fff;stroke-linecap:round;stroke-linejoin:round;stroke:#22242a;stroke-width:2px"/></g><path d="M0 0h100v80H0z" class="djs-hit djs-hit-all" style="fill:none;stroke-opacity:0;stroke:#fff;stroke-width:15px" transform="translate(811 240)"/></g></g><g class="djs-group"><g class="djs-element djs-shape" data-element-id="Task_AutoApprove" style="display:block"><g class="djs-visual" transform="translate(1210 304)"><rect width="100" height="80" rx="10" ry="10" style="stroke-linecap:round;stroke-linejoin:round;stroke:#22242a;stroke-width:2px;fill:#fff;fill-opacity:.95"/><text class="djs-label" style="font-family:Arial,sans-serif;font-size:12px;font-weight:400;fill:#22242a"><tspan x="13.313" y="36.4">Auto-Approve </tspan><tspan x="25.313" y="50.8">Evidence</tspan></text><circle cx="5" cy="5" r="5" style="stroke-linecap:round;stroke-linejoin:round;stroke:none;stroke-width:2px;fill:#fff" transform="translate(6 6)"/><path d="M12 18v-1.713a5.6 5.6 0 0 0 2.014-.843l1.194 1.18 1.568-1.577-1.195-1.18c.403-.614.683-1.3.825-2.018l1.622-.01v-2.22l-1.636.01a5.6 5.6 0 0 0-.846-2.006l1.13-1.136-1.583-1.563-1.13 1.136a5.7 5.7 0 0 0-2.022-.823l.01-1.618H9.708l.004 1.631q-.531.11-1.05.324a5.7 5.7 0 0 0-.963.52L6.53 4.936l-1.567 1.58 1.169 1.156a5.7 5.7 0 0 0-.825 2.017l-1.659.003v2.222l1.673-.006a5.5 5.5 0 0 0 .847 2.005l-1.2 1.197 1.585 1.56 1.196-1.193a5.7 5.7 0 0 0 2.023.823l.001 1.7zm.221-3.996a3.53 3.53 0 0 1-4.61-1.874 3.51 3.51 0 0 1 1.881-4.596 3.53 3.53 0 0 1 4.609 1.874 3.51 3.51 0 0 1-1.88 4.596" style="fill:#fff;stroke-linecap:round;stroke-linejoin:round;stroke:#22242a;stroke-width:1px"/><circle cx="5" cy="5" r="5" style="stroke-linecap:round;stroke-linejoin:round;stroke:none;stroke-width:2px;fill:#fff" transform="translate(11 10)"/><path d="M17 22v-1.713a5.6 5.6 0 0 0 2.014-.843l1.194 1.18 1.568-1.577-1.195-1.18c.403-.614.683-1.3.825-2.018l1.622-.01v-2.22l-1.636.01a5.6 5.6 0 0 0-.846-2.006l1.13-1.136-1.583-1.563-1.13 1.136a5.7 5.7 0 0 0-2.022-.823l.01-1.618h-2.242l.004 1.631q-.531.11-1.05.324a5.7 5.7 0 0 0-.963.52l-1.17-1.158-1.567 1.58 1.169 1.156a5.7 5.7 0 0 0-.825 2.017l-1.659.003v2.222l1.673-.006a5.5 5.5 0 0 0 .847 2.005l-1.2 1.197 1.585 1.56 1.196-1.193a5.7 5.7 0 0 0 2.023.823l.001 1.7zm.221-3.996a3.53 3.53 0 0 1-4.61-1.874 3.51 3.51 0 0 1 1.881-4.596 3.53 3.53 0 0 1 4.609 1.874 3.51 3.51 0 0 1-1.88 4.596" style="fill:#fff;stroke-linecap:round;stroke-linejoin:round;stroke:#22242a;stroke-width:1px"/></g><path d="M0 0h100v80H0z" class="djs-hit djs-hit-all" style="fill:none;stroke-opacity:0;stroke:#fff;stroke-width:15px" transform="translate(1210 304)"/></g></g><g class="djs-group"><g class="djs-element djs-shape" data-element-id="Task_ReviewQuality" style="display:block"><g class="djs-visual" transform="translate(1210 502)"><rect width="100" height="80" rx="10" ry="10" style="stroke-linecap:round;stroke-linejoin:round;stroke:#22242a;stroke-width:2px;fill:#fff;fill-opacity:.95"/><text class="djs-label" style="font-family:Arial,sans-serif;font-size:12px;font-weight:400;fill:#22242a"><tspan x="30.32" y="29.2">Review </tspan><tspan x="25.313" y="43.6">Evidence </tspan><tspan x="31.32" y="58">Quality</tspan></text><path d="M15 12c.909-.845 1.594-2.049 1.594-3.385 0-2.554-1.805-4.622-4.357-4.622S7.949 6.061 7.949 8.615c0 1.348.974 2.562 1.896 3.405-.529.187-5.669 2.097-5.794 4.756v6.718h17v-6.718c0-2.298-5.528-4.595-6.051-4.776m-8 6v5.5m11 0v-5" style="fill:#fff;stroke-linecap:round;stroke-linejoin:round;stroke:#22242a;stroke-width:.5px"/><path d="M17.162 13.009c0 2.447-2.158 4.431-4.821 4.431-2.665 0-4.822-1.981-4.822-4.431" style="fill:#fff;stroke-linecap:round;stroke-linejoin:round;stroke:#22242a;stroke-width:.5px"/><path d="M8.1 8.2s2.251-2.358 4.274-1.177 4.221 1.537 4.124.965c-.098-.57-.117-3.791-4.191-4.136C8.732 3.853 8.099 7.219 8.1 8.2" style="fill:#22242a;stroke-linecap:round;stroke-linejoin:round;stroke:#22242a;stroke-width:.5px"/></g><path d="M0 0h100v80H0z" class="djs-hit djs-hit-all" style="fill:none;stroke-opacity:0;stroke:#fff;stroke-width:15px" transform="translate(1210 502)"/></g></g><g class="djs-group"><g class="djs-element djs-shape" data-element-id="Subprocess_QualityScoring" style="display:block"><g class="djs-visual" transform="translate(811 380)"><rect width="100" height="80" rx="10" ry="10" style="stroke-linecap:round;stroke-linejoin:round;stroke:#22242a;stroke-width:2px;fill:#fff;fill-opacity:.95"/><text class="djs-label" style="font-family:Arial,sans-serif;font-size:12px;font-weight:400;fill:#22242a"><tspan x="9.313" y="43.6">Quality Scoring</tspan></text><rect width="14" height="14" rx="0" ry="0" style="stroke-linecap:round;stroke-linejoin:round;stroke:#22242a;stroke-width:1px;fill:#fff" transform="translate(42.5 60)"/><path d="M49.5 62v10m-5-5h10" data-marker="sub-process" style="fill:#fff;stroke-linecap:round;stroke-linejoin:round;stroke:#22242a;stroke-width:2px"/></g><path d="M0 0h100v80H0z" class="djs-hit djs-hit-all" style="fill:none;stroke-opacity:0;stroke:#fff;stroke-width:15px" transform="translate(811 380)"/></g></g><g class="djs-group"><g class="djs-element djs-shape" data-element-id="Gateway_ValidationDecision" style="display:block"><g class="djs-visual"><path d="m25 0 25 25-25 25L0 25z" style="stroke-linecap:round;stroke-linejoin:round;stroke:#22242a;stroke-width:2px;fill:#fff;fill-opacity:.95" transform="translate(1399 517)"/><path d="m16 15 7.429 9.714L16 34.43h3.429l5.714-7.465 5.714 7.465h3.429l-7.429-9.715L34.286 15h-3.429l-5.714 7.464L19.429 15z" style="fill:#22242a;stroke-linecap:round;stroke-linejoin:round;stroke:#22242a;stroke-width:1px" transform="translate(1399 517)"/></g><path d="M0 0h50v50H0z" class="djs-hit djs-hit-all" style="fill:none;stroke-opacity:0;stroke:#fff;stroke-width:15px" transform="translate(1399 517)"/></g></g><g class="djs-group"><g class="djs-element djs-shape" data-element-id="Gateway_ValidationDecision_label" style="display:block"><g class="djs-visual"><text class="djs-label" style="font-family:Arial,sans-serif;font-size:11px;font-weight:400;fill:#22242a" transform="translate(1362 496)"><tspan x=".406" y="9.9">Validation</tspan><tspan x="0" y="23.1">Decision?</tspan></text></g><path d="M0 0h49v27H0z" class="djs-hit djs-hit-all" style="fill:none;stroke-opacity:0;stroke:#fff;stroke-width:15px" transform="translate(1362 496)"/></g></g><g class="djs-group"><g class="djs-element djs-shape" data-element-id="EndEvent_Rejected" style="display:block" transform="translate(1551 524)"><circle cx="18" cy="18" r="18" class="djs-visual" style="stroke-linecap:round;stroke-linejoin:round;stroke:#22242a;stroke-width:4px;fill:#fff;fill-opacity:.95"/><path d="M0 0h36v36H0z" class="djs-hit djs-hit-all" style="fill:none;stroke-opacity:0;stroke:#fff;stroke-width:15px"/></g></g><g class="djs-group"><g class="djs-element djs-shape" data-element-id="EndEvent_Rejected_label" style="display:block"><g class="djs-visual"><text class="djs-label" style="font-family:Arial,sans-serif;font-size:11px;font-weight:400;fill:#22242a" transform="translate(1546 567)"><tspan x="0" y="9.9">Evidence</tspan><tspan x=".922" y="23.1">Rejected</tspan></text></g><path d="M0 0h46v27H0z" class="djs-hit djs-hit-all" style="fill:none;stroke-opacity:0;stroke:#fff;stroke-width:15px" transform="translate(1546 567)"/></g></g><g class="djs-group"><g class="djs-element djs-shape" data-element-id="Task_ProvideAdditional" style="display:block"><g class="djs-visual" transform="translate(1374 677)"><rect width="100" height="80" rx="10" ry="10" style="stroke-linecap:round;stroke-linejoin:round;stroke:#22242a;stroke-width:2px;fill:#fff;fill-opacity:.95"/><text class="djs-label" style="font-family:Arial,sans-serif;font-size:12px;font-weight:400;fill:#22242a"><tspan x="29.656" y="29.2">Provide </tspan><tspan x="23.649" y="43.6">Additional </tspan><tspan x="25.313" y="58">Evidence</tspan></text><path d="M15 12c.909-.845 1.594-2.049 1.594-3.385 0-2.554-1.805-4.622-4.357-4.622S7.949 6.061 7.949 8.615c0 1.348.974 2.562 1.896 3.405-.529.187-5.669 2.097-5.794 4.756v6.718h17v-6.718c0-2.298-5.528-4.595-6.051-4.776m-8 6v5.5m11 0v-5" style="fill:#fff;stroke-linecap:round;stroke-linejoin:round;stroke:#22242a;stroke-width:.5px"/><path d="M17.162 13.009c0 2.447-2.158 4.431-4.821 4.431-2.665 0-4.822-1.981-4.822-4.431" style="fill:#fff;stroke-linecap:round;stroke-linejoin:round;stroke:#22242a;stroke-width:.5px"/><path d="M8.1 8.2s2.251-2.358 4.274-1.177 4.221 1.537 4.124.965c-.098-.57-.117-3.791-4.191-4.136C8.732 3.853 8.099 7.219 8.1 8.2" style="fill:#22242a;stroke-linecap:round;stroke-linejoin:round;stroke:#22242a;stroke-width:.5px"/></g><path d="M0 0h100v80H0z" class="djs-hit djs-hit-all" style="fill:none;stroke-opacity:0;stroke:#fff;stroke-width:15px" transform="translate(1374 677)"/></g></g><g class="djs-group"><g class="djs-element djs-shape" data-element-id="Event_004p822" style="display:block"><g class="djs-visual" transform="translate(1551 822)"><circle cx="18" cy="18" r="18" style="stroke-linecap:round;stroke-linejoin:round;stroke:#22242a;stroke-width:4px;fill:#fff;fill-opacity:.95"/><path d="M8.46 11.34v12.6h18.9v-12.6zl9.45 5.4 9.45-5.4" style="fill:#22242a;stroke-linecap:round;stroke-linejoin:round;stroke:#fff;stroke-width:1px"/></g><path d="M0 0h36v36H0z" class="djs-hit djs-hit-all" style="fill:none;stroke-opacity:0;stroke:#fff;stroke-width:15px" transform="translate(1551 822)"/></g></g><g class="djs-group"><g class="djs-element djs-shape" data-element-id="EndEvent_Active" style="display:block" transform="translate(1672 326)"><circle cx="18" cy="18" r="18" class="djs-visual" style="stroke-linecap:round;stroke-linejoin:round;stroke:#22242a;stroke-width:4px;fill:#fff;fill-opacity:.95"/><path d="M0 0h36v36H0z" class="djs-hit djs-hit-all" style="fill:none;stroke-opacity:0;stroke:#fff;stroke-width:15px"/></g></g><g class="djs-group"><g class="djs-element djs-shape" data-element-id="EndEvent_Active_label" style="display:block"><g class="djs-visual"><text class="djs-label" style="font-family:Arial,sans-serif;font-size:11px;font-weight:400;fill:#22242a" transform="translate(1667 369)"><tspan x="0" y="9.9">Evidence</tspan><tspan x="7.656" y="23.1">Active</tspan></text></g><path d="M0 0h46v27H0z" class="djs-hit djs-hit-all" style="fill:none;stroke-opacity:0;stroke:#fff;stroke-width:15px" transform="translate(1667 369)"/></g></g><g class="djs-group"><g class="djs-element djs-shape" data-element-id="Gateway_1kzqckk" style="display:block"><g class="djs-visual"><path d="m25 0 25 25-25 25L0 25z" style="stroke-linecap:round;stroke-linejoin:round;stroke:#22242a;stroke-width:2px;fill:#fff;fill-opacity:.95" transform="translate(1399 319)"/><path d="m16 15 7.429 9.714L16 34.43h3.429l5.714-7.465 5.714 7.465h3.429l-7.429-9.715L34.286 15h-3.429l-5.714 7.464L19.429 15z" style="fill:#22242a;stroke-linecap:round;stroke-linejoin:round;stroke:#22242a;stroke-width:1px" transform="translate(1399 319)"/></g><path d="M0 0h50v50H0z" class="djs-hit djs-hit-all" style="fill:none;stroke-opacity:0;stroke:#fff;stroke-width:15px" transform="translate(1399 319)"/></g></g><g class="djs-group"><g class="djs-element djs-shape" data-element-id="Task_ActivateEvidence" style="display:block"><g class="djs-visual" transform="translate(1519 304)"><rect width="100" height="80" rx="10" ry="10" style="stroke-linecap:round;stroke-linejoin:round;stroke:#22242a;stroke-width:2px;fill:#fff;fill-opacity:.95"/><text class="djs-label" style="font-family:Arial,sans-serif;font-size:12px;font-weight:400;fill:#22242a"><tspan x="28.665" y="36.4">Activate </tspan><tspan x="25.313" y="50.8">Evidence</tspan></text><circle cx="5" cy="5" r="5" style="stroke-linecap:round;stroke-linejoin:round;stroke:none;stroke-width:2px;fill:#fff" transform="translate(6 6)"/><path d="M12 18v-1.713a5.6 5.6 0 0 0 2.014-.843l1.194 1.18 1.568-1.577-1.195-1.18c.403-.614.683-1.3.825-2.018l1.622-.01v-2.22l-1.636.01a5.6 5.6 0 0 0-.846-2.006l1.13-1.136-1.583-1.563-1.13 1.136a5.7 5.7 0 0 0-2.022-.823l.01-1.618H9.708l.004 1.631q-.531.11-1.05.324a5.7 5.7 0 0 0-.963.52L6.53 4.936l-1.567 1.58 1.169 1.156a5.7 5.7 0 0 0-.825 2.017l-1.659.003v2.222l1.673-.006a5.5 5.5 0 0 0 .847 2.005l-1.2 1.197 1.585 1.56 1.196-1.193a5.7 5.7 0 0 0 2.023.823l.001 1.7zm.221-3.996a3.53 3.53 0 0 1-4.61-1.874 3.51 3.51 0 0 1 1.881-4.596 3.53 3.53 0 0 1 4.609 1.874 3.51 3.51 0 0 1-1.88 4.596" style="fill:#fff;stroke-linecap:round;stroke-linejoin:round;stroke:#22242a;stroke-width:1px"/><circle cx="5" cy="5" r="5" style="stroke-linecap:round;stroke-linejoin:round;stroke:none;stroke-width:2px;fill:#fff" transform="translate(11 10)"/><path d="M17 22v-1.713a5.6 5.6 0 0 0 2.014-.843l1.194 1.18 1.568-1.577-1.195-1.18c.403-.614.683-1.3.825-2.018l1.622-.01v-2.22l-1.636.01a5.6 5.6 0 0 0-.846-2.006l1.13-1.136-1.583-1.563-1.13 1.136a5.7 5.7 0 0 0-2.022-.823l.01-1.618h-2.242l.004 1.631q-.531.11-1.05.324a5.7 5.7 0 0 0-.963.52l-1.17-1.158-1.567 1.58 1.169 1.156a5.7 5.7 0 0 0-.825 2.017l-1.659.003v2.222l1.673-.006a5.5 5.5 0 0 0 .847 2.005l-1.2 1.197 1.585 1.56 1.196-1.193a5.7 5.7 0 0 0 2.023.823l.001 1.7zm.221-3.996a3.53 3.53 0 0 1-4.61-1.874 3.51 3.51 0 0 1 1.881-4.596 3.53 3.53 0 0 1 4.609 1.874 3.51 3.51 0 0 1-1.88 4.596" style="fill:#fff;stroke-linecap:round;stroke-linejoin:round;stroke:#22242a;stroke-width:1px"/></g><path d="M0 0h100v80H0z" class="djs-hit djs-hit-all" style="fill:none;stroke-opacity:0;stroke:#fff;stroke-width:15px" transform="translate(1519 304)"/></g></g><g class="djs-group"><g class="djs-element djs-shape" data-element-id="BoundaryEvent_Timer" style="display:block"><g class="djs-visual" transform="translate(1456 739)"><circle cx="18" cy="18" r="18" style="stroke-linecap:round;stroke-linejoin:round;stroke:#22242a;stroke-width:1.5px;fill:#fff;fill-opacity:1;stroke-dasharray:6"/><circle cx="18" cy="18" r="15" style="stroke-linecap:round;stroke-linejoin:round;stroke:#22242a;stroke-width:1.5px;fill:none;fill-opacity:1;stroke-dasharray:6"/><circle cx="18" cy="18" r="11" style="stroke-linecap:round;stroke-linejoin:round;stroke:#22242a;stroke-width:2px;fill:#fff"/><path d="m18 18 2.25-7.5M18 18l5.25 1.5" style="fill:none;stroke-linecap:round;stroke-linejoin:round;stroke:#22242a;stroke-width:2px"/><path d="M18 25.5v2.25" style="fill:none;stroke-linecap:round;stroke-linejoin:round;stroke:#22242a;stroke-width:1px"/><path d="M18 25.5v2.25" style="fill:none;stroke-linecap:round;stroke-linejoin:round;stroke:#22242a;stroke-width:1px" transform="rotate(30 18 18)"/><path d="M18 25.5v2.25" style="fill:none;stroke-linecap:round;stroke-linejoin:round;stroke:#22242a;stroke-width:1px" transform="rotate(60 18 18)"/><path d="M18 25.5v2.25" style="fill:none;stroke-linecap:round;stroke-linejoin:round;stroke:#22242a;stroke-width:1px" transform="rotate(90 18 18)"/><path d="M18 25.5v2.25" style="fill:none;stroke-linecap:round;stroke-linejoin:round;stroke:#22242a;stroke-width:1px" transform="rotate(120 18 18)"/><path d="M18 25.5v2.25" style="fill:none;stroke-linecap:round;stroke-linejoin:round;stroke:#22242a;stroke-width:1px" transform="rotate(150 18 18)"/><path d="M18 25.5v2.25" style="fill:none;stroke-linecap:round;stroke-linejoin:round;stroke:#22242a;stroke-width:1px" transform="rotate(180 18 18)"/><path d="M18 25.5v2.25" style="fill:none;stroke-linecap:round;stroke-linejoin:round;stroke:#22242a;stroke-width:1px" transform="rotate(210 18 18)"/><path d="M18 25.5v2.25" style="fill:none;stroke-linecap:round;stroke-linejoin:round;stroke:#22242a;stroke-width:1px" transform="rotate(240 18 18)"/><path d="M18 25.5v2.25" style="fill:none;stroke-linecap:round;stroke-linejoin:round;stroke:#22242a;stroke-width:1px" transform="rotate(270 18 18)"/><path d="M18 25.5v2.25" style="fill:none;stroke-linecap:round;stroke-linejoin:round;stroke:#22242a;stroke-width:1px" transform="rotate(300 18 18)"/><path d="M18 25.5v2.25" style="fill:none;stroke-linecap:round;stroke-linejoin:round;stroke:#22242a;stroke-width:1px" transform="rotate(330 18 18)"/></g><path d="M0 0h36v36H0z" class="djs-hit djs-hit-all" style="fill:none;stroke-opacity:0;stroke:#fff;stroke-width:15px" transform="translate(1456 739)"/></g></g><g class="djs-group"><g class="djs-element djs-shape" data-element-id="BoundaryEvent_Timer_label" style="display:block"><g class="djs-visual"><text class="djs-label" style="font-family:Arial,sans-serif;font-size:11px;font-weight:400;fill:#22242a" transform="translate(1495 768)"><tspan x="0" y="9.9">7 Days</tspan></text></g><path d="M0 0h35v14H0z" class="djs-hit djs-hit-all" style="fill:none;stroke-opacity:0;stroke:#fff;stroke-width:15px" transform="translate(1495 768)"/></g></g><g class="djs-group"><g class="djs-element djs-connection" data-element-id="Flow_2" style="display:block"><g class="djs-visual"><defs><marker id="a" markerHeight="10" markerWidth="10" orient="auto" refX="11" refY="10" viewBox="0 0 20 20"><path d="m1 5 10 5-10 5Z" style="stroke-linecap:round;stroke-linejoin:round;stroke:#22242a;stroke-width:1px;fill:#22242a"/></marker></defs><path d="M435 130h60c2.5 0 5 2.5 5 5v184" data-corner-radius="5" style="fill:none;stroke-linecap:round;stroke-linejoin:round;stroke:#22242a;stroke-width:2px;marker-end:url(#a)"/></g><path d="M435 130h65v189" class="djs-hit djs-hit-stroke" style="fill:none;stroke-opacity:0;stroke:#fff;stroke-width:15px"/></g></g><g class="djs-group"><g class="djs-element djs-connection" data-element-id="Flow_3" style="display:block"><g class="djs-visual"><defs><marker id="b" markerHeight="10" markerWidth="10" orient="auto" refX="11" refY="10" viewBox="0 0 20 20"><path d="m1 5 10 5-10 5Z" style="stroke-linecap:round;stroke-linejoin:round;stroke:#22242a;stroke-width:1px;fill:#22242a"/></marker></defs><path d="M670 344h39" data-corner-radius="5" style="fill:none;stroke-linecap:round;stroke-linejoin:round;stroke:#22242a;stroke-width:2px;marker-end:url(#b)"/></g><path d="M670 344h39" class="djs-hit djs-hit-stroke" style="fill:none;stroke-opacity:0;stroke:#fff;stroke-width:15px"/></g></g><g class="djs-group"><g class="djs-element djs-connection" data-element-id="Flow_4a" style="display:block"><g class="djs-visual"><defs><marker id="c" markerHeight="10" markerWidth="10" orient="auto" refX="11" refY="10" viewBox="0 0 20 20"><path d="m1 5 10 5-10 5Z" style="stroke-linecap:round;stroke-linejoin:round;stroke:#22242a;stroke-width:1px;fill:#22242a"/></marker></defs><path d="M734 319v-34c0-2.5 2.5-5 5-5h72" data-corner-radius="5" style="fill:none;stroke-linecap:round;stroke-linejoin:round;stroke:#22242a;stroke-width:2px;marker-end:url(#c)"/></g><path d="M734 319v-39h77" class="djs-hit djs-hit-stroke" style="fill:none;stroke-opacity:0;stroke:#fff;stroke-width:15px"/></g></g><g class="djs-group"><g class="djs-element djs-connection" data-element-id="Flow_4b" style="display:block"><g class="djs-visual"><defs><marker id="d" markerHeight="10" markerWidth="10" orient="auto" refX="11" refY="10" viewBox="0 0 20 20"><path d="m1 5 10 5-10 5Z" style="stroke-linecap:round;stroke-linejoin:round;stroke:#22242a;stroke-width:1px;fill:#22242a"/></marker></defs><path d="M734 369v46c0 2.5 2.5 5 5 5h72" data-corner-radius="5" style="fill:none;stroke-linecap:round;stroke-linejoin:round;stroke:#22242a;stroke-width:2px;marker-end:url(#d)"/></g><path d="M734 369v51h77" class="djs-hit djs-hit-stroke" style="fill:none;stroke-opacity:0;stroke:#fff;stroke-width:15px"/></g></g><g class="djs-group"><g class="djs-element djs-connection" data-element-id="Flow_5a" style="display:block"><g class="djs-visual"><defs><marker id="e" markerHeight="10" markerWidth="10" orient="auto" refX="11" refY="10" viewBox="0 0 20 20"><path d="m1 5 10 5-10 5Z" style="stroke-linecap:round;stroke-linejoin:round;stroke:#22242a;stroke-width:1px;fill:#22242a"/></marker></defs><path d="M911 280h72c2.5 0 5 2.5 5 5v34" data-corner-radius="5" style="fill:none;stroke-linecap:round;stroke-linejoin:round;stroke:#22242a;stroke-width:2px;marker-end:url(#e)"/></g><path d="M911 280h77v39" class="djs-hit djs-hit-stroke" style="fill:none;stroke-opacity:0;stroke:#fff;stroke-width:15px"/></g></g><g class="djs-group"><g class="djs-element djs-connection" data-element-id="Flow_5b" style="display:block"><g class="djs-visual"><defs><marker id="f" markerHeight="10" markerWidth="10" orient="auto" refX="11" refY="10" viewBox="0 0 20 20"><path d="m1 5 10 5-10 5Z" style="stroke-linecap:round;stroke-linejoin:round;stroke:#22242a;stroke-width:1px;fill:#22242a"/></marker></defs><path d="M911 420h72c2.5 0 5-2.5 5-5v-46" data-corner-radius="5" style="fill:none;stroke-linecap:round;stroke-linejoin:round;stroke:#22242a;stroke-width:2px;marker-end:url(#f)"/></g><path d="M911 420h77v-51" class="djs-hit djs-hit-stroke" style="fill:none;stroke-opacity:0;stroke:#fff;stroke-width:15px"/></g></g><g class="djs-group"><g class="djs-element djs-connection" data-element-id="Flow_6" style="display:block"><g class="djs-visual"><defs><marker id="g" markerHeight="10" markerWidth="10" orient="auto" refX="11" refY="10" viewBox="0 0 20 20"><path d="m1 5 10 5-10 5Z" style="stroke-linecap:round;stroke-linejoin:round;stroke:#22242a;stroke-width:1px;fill:#22242a"/></marker></defs><path d="M1013 344h52" data-corner-radius="5" style="fill:none;stroke-linecap:round;stroke-linejoin:round;stroke:#22242a;stroke-width:2px;marker-end:url(#g)"/></g><path d="M1013 344h52" class="djs-hit djs-hit-stroke" style="fill:none;stroke-opacity:0;stroke:#fff;stroke-width:15px"/></g></g><g class="djs-group"><g class="djs-element djs-connection" data-element-id="Flow_HighQuality" style="display:block"><g class="djs-visual"><defs><marker id="h" markerHeight="10" markerWidth="10" orient="auto" refX="11" refY="10" viewBox="0 0 20 20"><path d="m1 5 10 5-10 5Z" style="stroke-linecap:round;stroke-linejoin:round;stroke:#22242a;stroke-width:1px;fill:#22242a"/></marker></defs><path d="M1115 344h95" data-corner-radius="5" style="fill:none;stroke-linecap:round;stroke-linejoin:round;stroke:#22242a;stroke-width:2px;marker-end:url(#h)"/></g><path d="M1115 344h95" class="djs-hit djs-hit-stroke" style="fill:none;stroke-opacity:0;stroke:#fff;stroke-width:15px"/></g></g><g class="djs-group"><g class="djs-element djs-shape" data-element-id="Flow_HighQuality_label" style="display:block"><g class="djs-visual"><text class="djs-label" style="font-family:Arial,sans-serif;font-size:11px;font-weight:400;fill:#22242a" transform="translate(1118 326)"><tspan x="0" y="9.9">Score &gt;= 0.7</tspan></text></g><path d="M0 0h63v14H0z" class="djs-hit djs-hit-all" style="fill:none;stroke-opacity:0;stroke:#fff;stroke-width:15px" transform="translate(1118 326)"/></g></g><g class="djs-group"><g class="djs-element djs-connection" data-element-id="Flow_LowQuality" style="display:block"><g class="djs-visual"><defs><marker id="i" markerHeight="10" markerWidth="10" orient="auto" refX="11" refY="10" viewBox="0 0 20 20"><path d="m1 5 10 5-10 5Z" style="stroke-linecap:round;stroke-linejoin:round;stroke:#22242a;stroke-width:1px;fill:#22242a"/></marker></defs><path d="M1090 369v168c0 2.5 2.5 5 5 5h115" data-corner-radius="5" style="fill:none;stroke-linecap:round;stroke-linejoin:round;stroke:#22242a;stroke-width:2px;marker-end:url(#i)"/></g><path d="M1090 369v173h120" class="djs-hit djs-hit-stroke" style="fill:none;stroke-opacity:0;stroke:#fff;stroke-width:15px"/></g></g><g class="djs-group"><g class="djs-element djs-shape" data-element-id="Flow_LowQuality_label" style="display:block"><g class="djs-visual"><text class="djs-label" style="font-family:Arial,sans-serif;font-size:11px;font-weight:400;fill:#22242a" transform="translate(1114 524)"><tspan x="0" y="9.9">Score &lt; 0.7</tspan></text></g><path d="M0 0h57v14H0z" class="djs-hit djs-hit-all" style="fill:none;stroke-opacity:0;stroke:#fff;stroke-width:15px" transform="translate(1114 524)"/></g></g><g class="djs-group"><g class="djs-element djs-connection" data-element-id="Flow_ToActivate1" style="display:block"><g class="djs-visual"><defs><marker id="j" markerHeight="10" markerWidth="10" orient="auto" refX="11" refY="10" viewBox="0 0 20 20"><path d="m1 5 10 5-10 5Z" style="stroke-linecap:round;stroke-linejoin:round;stroke:#22242a;stroke-width:1px;fill:#22242a"/></marker></defs><path d="M1310 344h89" data-corner-radius="5" style="fill:none;stroke-linecap:round;stroke-linejoin:round;stroke:#22242a;stroke-width:2px;marker-end:url(#j)"/></g><path d="M1310 344h89" class="djs-hit djs-hit-stroke" style="fill:none;stroke-opacity:0;stroke:#fff;stroke-width:15px"/></g></g><g class="djs-group"><g class="djs-element djs-connection" data-element-id="Flow_8" style="display:block"><g class="djs-visual"><defs><marker id="k" markerHeight="10" markerWidth="10" orient="auto" refX="11" refY="10" viewBox="0 0 20 20"><path d="m1 5 10 5-10 5Z" style="stroke-linecap:round;stroke-linejoin:round;stroke:#22242a;stroke-width:1px;fill:#22242a"/></marker></defs><path d="M1619 344h53" data-corner-radius="5" style="fill:none;stroke-linecap:round;stroke-linejoin:round;stroke:#22242a;stroke-width:2px;marker-end:url(#k)"/></g><path d="M1619 344h53" class="djs-hit djs-hit-stroke" style="fill:none;stroke-opacity:0;stroke:#fff;stroke-width:15px"/></g></g><g class="djs-group"><g class="djs-element djs-connection" data-element-id="Flow_9" style="display:block"><g class="djs-visual"><defs><marker id="l" markerHeight="10" markerWidth="10" orient="auto" refX="11" refY="10" viewBox="0 0 20 20"><path d="m1 5 10 5-10 5Z" style="stroke-linecap:round;stroke-linejoin:round;stroke:#22242a;stroke-width:1px;fill:#22242a"/></marker></defs><path d="M1310 542h89" data-corner-radius="5" style="fill:none;stroke-linecap:round;stroke-linejoin:round;stroke:#22242a;stroke-width:2px;marker-end:url(#l)"/></g><path d="M1310 542h89" class="djs-hit djs-hit-stroke" style="fill:none;stroke-opacity:0;stroke:#fff;stroke-width:15px"/></g></g><g class="djs-group"><g class="djs-element djs-connection" data-element-id="Flow_ApprovedByAnalyst" style="display:block"><g class="djs-visual"><defs><marker id="m" markerHeight="10" markerWidth="10" orient="auto" refX="11" refY="10" viewBox="0 0 20 20"><path d="m1 5 10 5-10 5Z" style="stroke-linecap:round;stroke-linejoin:round;stroke:#22242a;stroke-width:1px;fill:#22242a"/></marker></defs><path d="M1424 517V369" data-corner-radius="5" style="fill:none;stroke-linecap:round;stroke-linejoin:round;stroke:#22242a;stroke-width:2px;marker-end:url(#m)"/></g><path d="M1424 517V369" class="djs-hit djs-hit-stroke" style="fill:none;stroke-opacity:0;stroke:#fff;stroke-width:15px"/></g></g><g class="djs-group"><g class="djs-element djs-shape" data-element-id="Flow_ApprovedByAnalyst_label" style="display:block"><g class="djs-visual"><text class="djs-label" style="font-family:Arial,sans-serif;font-size:11px;font-weight:400;fill:#22242a" transform="translate(1438 393)"><tspan x="0" y="9.9">Approved</tspan></text></g><path d="M0 0h48v14H0z" class="djs-hit djs-hit-all" style="fill:none;stroke-opacity:0;stroke:#fff;stroke-width:15px" transform="translate(1438 393)"/></g></g><g class="djs-group"><g class="djs-element djs-connection" data-element-id="Flow_Rejected" style="display:block"><g class="djs-visual"><defs><marker id="n" markerHeight="10" markerWidth="10" orient="auto" refX="11" refY="10" viewBox="0 0 20 20"><path d="m1 5 10 5-10 5Z" style="stroke-linecap:round;stroke-linejoin:round;stroke:#22242a;stroke-width:1px;fill:#22242a"/></marker></defs><path d="M1449 542h102" data-corner-radius="5" style="fill:none;stroke-linecap:round;stroke-linejoin:round;stroke:#22242a;stroke-width:2px;marker-end:url(#n)"/></g><path d="M1449 542h102" class="djs-hit djs-hit-stroke" style="fill:none;stroke-opacity:0;stroke:#fff;stroke-width:15px"/></g></g><g class="djs-group"><g class="djs-element djs-shape" data-element-id="Flow_Rejected_label" style="display:block"><g class="djs-visual"><text class="djs-label" style="font-family:Arial,sans-serif;font-size:11px;font-weight:400;fill:#22242a" transform="translate(1468 524)"><tspan x="0" y="9.9">Rejected</tspan></text></g><path d="M0 0h44v14H0z" class="djs-hit djs-hit-all" style="fill:none;stroke-opacity:0;stroke:#fff;stroke-width:15px" transform="translate(1468 524)"/></g></g><g class="djs-group"><g class="djs-element djs-connection" data-element-id="Flow_RequestAdditional" style="display:block"><g class="djs-visual"><defs><marker id="o" markerHeight="10" markerWidth="10" orient="auto" refX="11" refY="10" viewBox="0 0 20 20"><path d="m1 5 10 5-10 5Z" style="stroke-linecap:round;stroke-linejoin:round;stroke:#22242a;stroke-width:1px;fill:#22242a"/></marker></defs><path d="M1424 567v110" data-corner-radius="5" style="fill:none;stroke-linecap:round;stroke-linejoin:round;stroke:#22242a;stroke-width:2px;marker-end:url(#o)"/></g><path d="M1424 567v110" class="djs-hit djs-hit-stroke" style="fill:none;stroke-opacity:0;stroke:#fff;stroke-width:15px"/></g></g><g class="djs-group"><g class="djs-element djs-shape" data-element-id="Flow_RequestAdditional_label" style="display:block"><g class="djs-visual"><text class="djs-label" style="font-family:Arial,sans-serif;font-size:11px;font-weight:400;fill:#22242a" transform="translate(1435 580)"><tspan x="3.664" y="9.9">Request </tspan><tspan x="0" y="23.1">Additional </tspan><tspan x="1.523" y="36.3">Evidence</tspan></text></g><path d="M0 0h49v40H0z" class="djs-hit djs-hit-all" style="fill:none;stroke-opacity:0;stroke:#fff;stroke-width:15px" transform="translate(1435 580)"/></g></g><g class="djs-group"><g class="djs-element djs-connection" data-element-id="Flow_FromClient" style="display:block"><g class="djs-visual"><defs><marker id="p" markerHeight="10" markerWidth="10" orient="auto" refX="11" refY="10" viewBox="0 0 20 20"><path d="m1 5 10 5-10 5Z" style="stroke-linecap:round;stroke-linejoin:round;stroke:#22242a;stroke-width:1px;fill:#22242a"/></marker></defs><path d="M1424 757v88c0 2.5-2.5 5-5 5H505c-2.5 0-5-2.5-5-5V369" data-corner-radius="5" style="fill:none;stroke-linecap:round;stroke-linejoin:round;stroke:#22242a;stroke-width:2px;marker-end:url(#p)"/></g><path d="M1424 757v93H500V369" class="djs-hit djs-hit-stroke" style="fill:none;stroke-opacity:0;stroke:#fff;stroke-width:15px"/></g></g><g class="djs-group"><g class="djs-element djs-connection" data-element-id="Flow_0uv7g2g" style="display:block"><g class="djs-visual"><defs><marker id="q" markerHeight="10" markerWidth="10" orient="auto" refX="11" refY="10" viewBox="0 0 20 20"><path d="m1 5 10 5-10 5Z" style="stroke-linecap:round;stroke-linejoin:round;stroke:#22242a;stroke-width:1px;fill:#22242a"/></marker></defs><path d="M525 344h45" data-corner-radius="5" style="fill:none;stroke-linecap:round;stroke-linejoin:round;stroke:#22242a;stroke-width:2px;marker-end:url(#q)"/></g><path d="M525 344h45" class="djs-hit djs-hit-stroke" style="fill:none;stroke-opacity:0;stroke:#fff;stroke-width:15px"/></g></g><g class="djs-group"><g class="djs-element djs-connection" data-element-id="Flow_1" style="display:block"><g class="djs-visual"><defs><marker id="r" markerHeight="10" markerWidth="10" orient="auto" refX="11" refY="10" viewBox="0 0 20 20"><path d="m1 5 10 5-10 5Z" style="stroke-linecap:round;stroke-linejoin:round;stroke:#22242a;stroke-width:1px;fill:#22242a"/></marker></defs><path d="M283 130h52" data-corner-radius="5" style="fill:none;stroke-linecap:round;stroke-linejoin:round;stroke:#22242a;stroke-width:2px;marker-end:url(#r)"/></g><path d="M283 130h52" class="djs-hit djs-hit-stroke" style="fill:none;stroke-opacity:0;stroke:#fff;stroke-width:15px"/></g></g><g class="djs-group"><g class="djs-element djs-connection" data-element-id="Flow_08jdki8" style="display:block"><g class="djs-visual"><defs><marker id="s" markerHeight="10" markerWidth="10" orient="auto" refX="11" refY="10" viewBox="0 0 20 20"><path d="m1 5 10 5-10 5Z" style="stroke-linecap:round;stroke-linejoin:round;stroke:#22242a;stroke-width:1px;fill:#22242a"/></marker></defs><path d="M1474 775v60c0 2.5 2.5 5 5 5h72" data-corner-radius="5" style="fill:none;stroke-linecap:round;stroke-linejoin:round;stroke:#22242a;stroke-width:2px;marker-end:url(#s)"/></g><path d="M1474 775v65h77" class="djs-hit djs-hit-stroke" style="fill:none;stroke-opacity:0;stroke:#fff;stroke-width:15px"/></g></g><g class="djs-group"><g class="djs-element djs-connection" data-element-id="Flow_1ffs6sx" style="display:block"><g class="djs-visual"><defs><marker id="t" markerHeight="10" markerWidth="10" orient="auto" refX="11" refY="10" viewBox="0 0 20 20"><path d="m1 5 10 5-10 5Z" style="stroke-linecap:round;stroke-linejoin:round;stroke:#22242a;stroke-width:1px;fill:#22242a"/></marker></defs><path d="M1449 344h70" data-corner-radius="5" style="fill:none;stroke-linecap:round;stroke-linejoin:round;stroke:#22242a;stroke-width:2px;marker-end:url(#t)"/></g><path d="M1449 344h70" class="djs-hit djs-hit-stroke" style="fill:none;stroke-opacity:0;stroke:#fff;stroke-width:15px"/></g></g></g></g></svg>