<svg xmlns="http://www.w3.org/2000/svg" width="1068" height="470.1" viewBox="175 106.9 1068 470.1"><g class="djs-group"><g class="djs-element djs-shape" data-element-id="StartEvent_1" style="display:block" transform="translate(180 132)"><circle cx="18" cy="18" r="18" class="djs-visual" style="stroke-linecap:round;stroke-linejoin:round;stroke:#22242a;stroke-width:2px;fill:#fff;fill-opacity:.95"/><path d="M0 0h36v36H0z" class="djs-hit djs-hit-all" style="fill:none;stroke-opacity:0;stroke:#fff;stroke-width:15px"/></g></g><g class="djs-group"><g class="djs-element djs-shape" data-element-id="StartEvent_1_label" style="display:block"><g class="djs-visual"><text class="djs-label" style="font-family:Arial,sans-serif;font-size:11px;font-weight:400;fill:#22242a" transform="translate(175 170)"><tspan x=".297" y="9.9">Evidence</tspan><tspan x="0" y="23.1">Received</tspan></text></g><path d="M0 0h46v27H0z" class="djs-hit djs-hit-all" style="fill:none;stroke-opacity:0;stroke:#fff;stroke-width:15px" transform="translate(175 170)"/></g></g><g class="djs-group"><g class="djs-element djs-shape" data-element-id="Task_Classify" style="display:block"><g class="djs-visual" transform="translate(268 110)"><rect width="100" height="80" rx="10" ry="10" style="stroke-linecap:round;stroke-linejoin:round;stroke:#22242a;stroke-width:2px;fill:#fff;fill-opacity:.95"/><text class="djs-label" style="font-family:Arial,sans-serif;font-size:12px;font-weight:400;fill:#22242a"><tspan x="28.992" y="36.4">Classify </tspan><tspan x="25.313" y="50.8">Evidence</tspan></text><circle cx="5" cy="5" r="5" style="stroke-linecap:round;stroke-linejoin:round;stroke:none;stroke-width:2px;fill:#fff" transform="translate(6 6)"/><path d="M12 18v-1.713a5.6 5.6 0 0 0 2.014-.843l1.194 1.18 1.568-1.577-1.195-1.18c.403-.614.683-1.3.825-2.018l1.622-.01v-2.22l-1.636.01a5.6 5.6 0 0 0-.846-2.006l1.13-1.136-1.583-1.563-1.13 1.136a5.7 5.7 0 0 0-2.022-.823l.01-1.618H9.708l.004 1.631q-.531.11-1.05.324a5.7 5.7 0 0 0-.963.52L6.53 4.936l-1.567 1.58 1.169 1.156a5.7 5.7 0 0 0-.825 2.017l-1.659.003v2.222l1.673-.006a5.5 5.5 0 0 0 .847 2.005l-1.2 1.197 1.585 1.56 1.196-1.193a5.7 5.7 0 0 0 2.023.823l.001 1.7zm.221-3.996a3.53 3.53 0 0 1-4.61-1.874 3.51 3.51 0 0 1 1.881-4.596 3.53 3.53 0 0 1 4.609 1.874 3.51 3.51 0 0 1-1.88 4.596" style="fill:#fff;stroke-linecap:round;stroke-linejoin:round;stroke:#22242a;stroke-width:1px"/><circle cx="5" cy="5" r="5" style="stroke-linecap:round;stroke-linejoin:round;stroke:none;stroke-width:2px;fill:#fff" transform="translate(11 10)"/><path d="M17 22v-1.713a5.6 5.6 0 0 0 2.014-.843l1.194 1.18 1.568-1.577-1.195-1.18c.403-.614.683-1.3.825-2.018l1.622-.01v-2.22l-1.636.01a5.6 5.6 0 0 0-.846-2.006l1.13-1.136-1.583-1.563-1.13 1.136a5.7 5.7 0 0 0-2.022-.823l.01-1.618h-2.242l.004 1.631q-.531.11-1.05.324a5.7 5.7 0 0 0-.963.52l-1.17-1.158-1.567 1.58 1.169 1.156a5.7 5.7 0 0 0-.825 2.017l-1.659.003v2.222l1.673-.006a5.5 5.5 0 0 0 .847 2.005l-1.2 1.197 1.585 1.56 1.196-1.193a5.7 5.7 0 0 0 2.023.823l.001 1.7zm.221-3.996a3.53 3.53 0 0 1-4.61-1.874 3.51 3.51 0 0 1 1.881-4.596 3.53 3.53 0 0 1 4.609 1.874 3.51 3.51 0 0 1-1.88 4.596" style="fill:#fff;stroke-linecap:round;stroke-linejoin:round;stroke:#22242a;stroke-width:1px"/></g><path d="M0 0h100v80H0z" class="djs-hit djs-hit-all" style="fill:none;stroke-opacity:0;stroke:#fff;stroke-width:15px" transform="translate(268 110)"/></g></g><g class="djs-group"><g class="djs-element djs-shape" data-element-id="Task_Score" style="display:block"><g class="djs-visual" transform="translate(420 110)"><rect width="100" height="80" rx="10" ry="10" style="stroke-linecap:round;stroke-linejoin:round;stroke:#22242a;stroke-width:2px;fill:#fff;fill-opacity:.95"/><text class="djs-label" style="font-family:Arial,sans-serif;font-size:12px;font-weight:400;fill:#22242a"><tspan x="13.984" y="43.6">Score Quality</tspan></text><circle cx="5" cy="5" r="5" style="stroke-linecap:round;stroke-linejoin:round;stroke:none;stroke-width:2px;fill:#fff" transform="translate(6 6)"/><path d="M12 18v-1.713a5.6 5.6 0 0 0 2.014-.843l1.194 1.18 1.568-1.577-1.195-1.18c.403-.614.683-1.3.825-2.018l1.622-.01v-2.22l-1.636.01a5.6 5.6 0 0 0-.846-2.006l1.13-1.136-1.583-1.563-1.13 1.136a5.7 5.7 0 0 0-2.022-.823l.01-1.618H9.708l.004 1.631q-.531.11-1.05.324a5.7 5.7 0 0 0-.963.52L6.53 4.936l-1.567 1.58 1.169 1.156a5.7 5.7 0 0 0-.825 2.017l-1.659.003v2.222l1.673-.006a5.5 5.5 0 0 0 .847 2.005l-1.2 1.197 1.585 1.56 1.196-1.193a5.7 5.7 0 0 0 2.023.823l.001 1.7zm.221-3.996a3.53 3.53 0 0 1-4.61-1.874 3.51 3.51 0 0 1 1.881-4.596 3.53 3.53 0 0 1 4.609 1.874 3.51 3.51 0 0 1-1.88 4.596" style="fill:#fff;stroke-linecap:round;stroke-linejoin:round;stroke:#22242a;stroke-width:1px"/><circle cx="5" cy="5" r="5" style="stroke-linecap:round;stroke-linejoin:round;stroke:none;stroke-width:2px;fill:#fff" transform="translate(11 10)"/><path d="M17 22v-1.713a5.6 5.6 0 0 0 2.014-.843l1.194 1.18 1.568-1.577-1.195-1.18c.403-.614.683-1.3.825-2.018l1.622-.01v-2.22l-1.636.01a5.6 5.6 0 0 0-.846-2.006l1.13-1.136-1.583-1.563-1.13 1.136a5.7 5.7 0 0 0-2.022-.823l.01-1.618h-2.242l.004 1.631q-.531.11-1.05.324a5.7 5.7 0 0 0-.963.52l-1.17-1.158-1.567 1.58 1.169 1.156a5.7 5.7 0 0 0-.825 2.017l-1.659.003v2.222l1.673-.006a5.5 5.5 0 0 0 .847 2.005l-1.2 1.197 1.585 1.56 1.196-1.193a5.7 5.7 0 0 0 2.023.823l.001 1.7zm.221-3.996a3.53 3.53 0 0 1-4.61-1.874 3.51 3.51 0 0 1 1.881-4.596 3.53 3.53 0 0 1 4.609 1.874 3.51 3.51 0 0 1-1.88 4.596" style="fill:#fff;stroke-linecap:round;stroke-linejoin:round;stroke:#22242a;stroke-width:1px"/></g><path d="M0 0h100v80H0z" class="djs-hit djs-hit-all" style="fill:none;stroke-opacity:0;stroke:#fff;stroke-width:15px" transform="translate(420 110)"/></g></g><g class="djs-group"><g class="djs-element djs-shape" data-element-id="Gateway_Validation" style="display:block"><g class="djs-visual"><path d="m25 0 25 25-25 25L0 25z" style="stroke-linecap:round;stroke-linejoin:round;stroke:#22242a;stroke-width:2px;fill:#fff;fill-opacity:.95" transform="translate(572 125)"/><path d="m16 15 7.429 9.714L16 34.43h3.429l5.714-7.465 5.714 7.465h3.429l-7.429-9.715L34.286 15h-3.429l-5.714 7.464L19.429 15z" style="fill:#22242a;stroke-linecap:round;stroke-linejoin:round;stroke:#22242a;stroke-width:1px" transform="translate(572 125)"/></g><path d="M0 0h50v50H0z" class="djs-hit djs-hit-all" style="fill:none;stroke-opacity:0;stroke:#fff;stroke-width:15px" transform="translate(572 125)"/></g></g><g class="djs-group"><g class="djs-element djs-shape" data-element-id="Gateway_Validation_label" style="display:block"><g class="djs-visual"><text class="djs-label" style="font-family:Arial,sans-serif;font-size:11px;font-weight:400;fill:#22242a" transform="translate(566 107)"><tspan x="0" y="9.9">Valid Score?</tspan></text></g><path d="M0 0h62v14H0z" class="djs-hit djs-hit-all" style="fill:none;stroke-opacity:0;stroke:#fff;stroke-width:15px" transform="translate(566 107)"/></g></g><g class="djs-group"><g class="djs-element djs-shape" data-element-id="Gateway_MergeValidate" style="display:block"><g class="djs-visual"><path d="m25 0 25 25-25 25L0 25z" style="stroke-linecap:round;stroke-linejoin:round;stroke:#22242a;stroke-width:2px;fill:#fff;fill-opacity:.95" transform="translate(722 125)"/><path d="m16 15 7.429 9.714L16 34.43h3.429l5.714-7.465 5.714 7.465h3.429l-7.429-9.715L34.286 15h-3.429l-5.714 7.464L19.429 15z" style="fill:#22242a;stroke-linecap:round;stroke-linejoin:round;stroke:#22242a;stroke-width:1px" transform="translate(722 125)"/></g><path d="M0 0h50v50H0z" class="djs-hit djs-hit-all" style="fill:none;stroke-opacity:0;stroke:#fff;stroke-width:15px" transform="translate(722 125)"/></g></g><g class="djs-group"><g class="djs-element djs-shape" data-element-id="Task_AutoValidate" style="display:block"><g class="djs-visual" transform="translate(824 110)"><rect width="100" height="80" rx="10" ry="10" style="stroke-linecap:round;stroke-linejoin:round;stroke:#22242a;stroke-width:2px;fill:#fff;fill-opacity:.95"/><text class="djs-label" style="font-family:Arial,sans-serif;font-size:12px;font-weight:400;fill:#22242a"><tspan x="14.431" y="43.6">Auto-Validate</tspan></text><circle cx="5" cy="5" r="5" style="stroke-linecap:round;stroke-linejoin:round;stroke:none;stroke-width:2px;fill:#fff" transform="translate(6 6)"/><path d="M12 18v-1.713a5.6 5.6 0 0 0 2.014-.843l1.194 1.18 1.568-1.577-1.195-1.18c.403-.614.683-1.3.825-2.018l1.622-.01v-2.22l-1.636.01a5.6 5.6 0 0 0-.846-2.006l1.13-1.136-1.583-1.563-1.13 1.136a5.7 5.7 0 0 0-2.022-.823l.01-1.618H9.708l.004 1.631q-.531.11-1.05.324a5.7 5.7 0 0 0-.963.52L6.53 4.936l-1.567 1.58 1.169 1.156a5.7 5.7 0 0 0-.825 2.017l-1.659.003v2.222l1.673-.006a5.5 5.5 0 0 0 .847 2.005l-1.2 1.197 1.585 1.56 1.196-1.193a5.7 5.7 0 0 0 2.023.823l.001 1.7zm.221-3.996a3.53 3.53 0 0 1-4.61-1.874 3.51 3.51 0 0 1 1.881-4.596 3.53 3.53 0 0 1 4.609 1.874 3.51 3.51 0 0 1-1.88 4.596" style="fill:#fff;stroke-linecap:round;stroke-linejoin:round;stroke:#22242a;stroke-width:1px"/><circle cx="5" cy="5" r="5" style="stroke-linecap:round;stroke-linejoin:round;stroke:none;stroke-width:2px;fill:#fff" transform="translate(11 10)"/><path d="M17 22v-1.713a5.6 5.6 0 0 0 2.014-.843l1.194 1.18 1.568-1.577-1.195-1.18c.403-.614.683-1.3.825-2.018l1.622-.01v-2.22l-1.636.01a5.6 5.6 0 0 0-.846-2.006l1.13-1.136-1.583-1.563-1.13 1.136a5.7 5.7 0 0 0-2.022-.823l.01-1.618h-2.242l.004 1.631q-.531.11-1.05.324a5.7 5.7 0 0 0-.963.52l-1.17-1.158-1.567 1.58 1.169 1.156a5.7 5.7 0 0 0-.825 2.017l-1.659.003v2.222l1.673-.006a5.5 5.5 0 0 0 .847 2.005l-1.2 1.197 1.585 1.56 1.196-1.193a5.7 5.7 0 0 0 2.023.823l.001 1.7zm.221-3.996a3.53 3.53 0 0 1-4.61-1.874 3.51 3.51 0 0 1 1.881-4.596 3.53 3.53 0 0 1 4.609 1.874 3.51 3.51 0 0 1-1.88 4.596" style="fill:#fff;stroke-linecap:round;stroke-linejoin:round;stroke:#22242a;stroke-width:1px"/></g><path d="M0 0h100v80H0z" class="djs-hit djs-hit-all" style="fill:none;stroke-opacity:0;stroke:#fff;stroke-width:15px" transform="translate(824 110)"/></g></g><g class="djs-group"><g class="djs-element djs-shape" data-element-id="Task_Activate" style="display:block"><g class="djs-visual" transform="translate(976 110)"><rect width="100" height="80" rx="10" ry="10" style="stroke-linecap:round;stroke-linejoin:round;stroke:#22242a;stroke-width:2px;fill:#fff;fill-opacity:.95"/><text class="djs-label" style="font-family:Arial,sans-serif;font-size:12px;font-weight:400;fill:#22242a"><tspan x="28.665" y="36.4">Activate </tspan><tspan x="25.313" y="50.8">Evidence</tspan></text><circle cx="5" cy="5" r="5" style="stroke-linecap:round;stroke-linejoin:round;stroke:none;stroke-width:2px;fill:#fff" transform="translate(6 6)"/><path d="M12 18v-1.713a5.6 5.6 0 0 0 2.014-.843l1.194 1.18 1.568-1.577-1.195-1.18c.403-.614.683-1.3.825-2.018l1.622-.01v-2.22l-1.636.01a5.6 5.6 0 0 0-.846-2.006l1.13-1.136-1.583-1.563-1.13 1.136a5.7 5.7 0 0 0-2.022-.823l.01-1.618H9.708l.004 1.631q-.531.11-1.05.324a5.7 5.7 0 0 0-.963.52L6.53 4.936l-1.567 1.58 1.169 1.156a5.7 5.7 0 0 0-.825 2.017l-1.659.003v2.222l1.673-.006a5.5 5.5 0 0 0 .847 2.005l-1.2 1.197 1.585 1.56 1.196-1.193a5.7 5.7 0 0 0 2.023.823l.001 1.7zm.221-3.996a3.53 3.53 0 0 1-4.61-1.874 3.51 3.51 0 0 1 1.881-4.596 3.53 3.53 0 0 1 4.609 1.874 3.51 3.51 0 0 1-1.88 4.596" style="fill:#fff;stroke-linecap:round;stroke-linejoin:round;stroke:#22242a;stroke-width:1px"/><circle cx="5" cy="5" r="5" style="stroke-linecap:round;stroke-linejoin:round;stroke:none;stroke-width:2px;fill:#fff" transform="translate(11 10)"/><path d="M17 22v-1.713a5.6 5.6 0 0 0 2.014-.843l1.194 1.18 1.568-1.577-1.195-1.18c.403-.614.683-1.3.825-2.018l1.622-.01v-2.22l-1.636.01a5.6 5.6 0 0 0-.846-2.006l1.13-1.136-1.583-1.563-1.13 1.136a5.7 5.7 0 0 0-2.022-.823l.01-1.618h-2.242l.004 1.631q-.531.11-1.05.324a5.7 5.7 0 0 0-.963.52l-1.17-1.158-1.567 1.58 1.169 1.156a5.7 5.7 0 0 0-.825 2.017l-1.659.003v2.222l1.673-.006a5.5 5.5 0 0 0 .847 2.005l-1.2 1.197 1.585 1.56 1.196-1.193a5.7 5.7 0 0 0 2.023.823l.001 1.7zm.221-3.996a3.53 3.53 0 0 1-4.61-1.874 3.51 3.51 0 0 1 1.881-4.596 3.53 3.53 0 0 1 4.609 1.874 3.51 3.51 0 0 1-1.88 4.596" style="fill:#fff;stroke-linecap:round;stroke-linejoin:round;stroke:#22242a;stroke-width:1px"/></g><path d="M0 0h100v80H0z" class="djs-hit djs-hit-all" style="fill:none;stroke-opacity:0;stroke:#fff;stroke-width:15px" transform="translate(976 110)"/></g></g><g class="djs-group"><g class="djs-element djs-shape" data-element-id="Gateway_AgeCheck" style="display:block"><g class="djs-visual"><path d="m25 0 25 25-25 25L0 25z" style="stroke-linecap:round;stroke-linejoin:round;stroke:#22242a;stroke-width:2px;fill:#fff;fill-opacity:.95" transform="translate(1001 385)"/><path d="m16 15 7.429 9.714L16 34.43h3.429l5.714-7.465 5.714 7.465h3.429l-7.429-9.715L34.286 15h-3.429l-5.714 7.464L19.429 15z" style="fill:#22242a;stroke-linecap:round;stroke-linejoin:round;stroke:#22242a;stroke-width:1px" transform="translate(1001 385)"/></g><path d="M0 0h50v50H0z" class="djs-hit djs-hit-all" style="fill:none;stroke-opacity:0;stroke:#fff;stroke-width:15px" transform="translate(1001 385)"/></g></g><g class="djs-group"><g class="djs-element djs-shape" data-element-id="Gateway_AgeCheck_label" style="display:block"><g class="djs-visual"><text class="djs-label" style="font-family:Arial,sans-serif;font-size:11px;font-weight:400;fill:#22242a" transform="translate(968 373)"><tspan x="0" y="9.9">Expired?</tspan></text></g><path d="M0 0h44v14H0z" class="djs-hit djs-hit-all" style="fill:none;stroke-opacity:0;stroke:#fff;stroke-width:15px" transform="translate(968 373)"/></g></g><g class="djs-group"><g class="djs-element djs-shape" data-element-id="Task_Expire" style="display:block"><g class="djs-visual" transform="translate(976 490)"><rect width="100" height="80" rx="10" ry="10" style="stroke-linecap:round;stroke-linejoin:round;stroke:#22242a;stroke-width:2px;fill:#fff;fill-opacity:.95"/><text class="djs-label" style="font-family:Arial,sans-serif;font-size:12px;font-weight:400;fill:#22242a"><tspan x="32.992" y="36.4">Expire </tspan><tspan x="25.313" y="50.8">Evidence</tspan></text><circle cx="5" cy="5" r="5" style="stroke-linecap:round;stroke-linejoin:round;stroke:none;stroke-width:2px;fill:#fff" transform="translate(6 6)"/><path d="M12 18v-1.713a5.6 5.6 0 0 0 2.014-.843l1.194 1.18 1.568-1.577-1.195-1.18c.403-.614.683-1.3.825-2.018l1.622-.01v-2.22l-1.636.01a5.6 5.6 0 0 0-.846-2.006l1.13-1.136-1.583-1.563-1.13 1.136a5.7 5.7 0 0 0-2.022-.823l.01-1.618H9.708l.004 1.631q-.531.11-1.05.324a5.7 5.7 0 0 0-.963.52L6.53 4.936l-1.567 1.58 1.169 1.156a5.7 5.7 0 0 0-.825 2.017l-1.659.003v2.222l1.673-.006a5.5 5.5 0 0 0 .847 2.005l-1.2 1.197 1.585 1.56 1.196-1.193a5.7 5.7 0 0 0 2.023.823l.001 1.7zm.221-3.996a3.53 3.53 0 0 1-4.61-1.874 3.51 3.51 0 0 1 1.881-4.596 3.53 3.53 0 0 1 4.609 1.874 3.51 3.51 0 0 1-1.88 4.596" style="fill:#fff;stroke-linecap:round;stroke-linejoin:round;stroke:#22242a;stroke-width:1px"/><circle cx="5" cy="5" r="5" style="stroke-linecap:round;stroke-linejoin:round;stroke:none;stroke-width:2px;fill:#fff" transform="translate(11 10)"/><path d="M17 22v-1.713a5.6 5.6 0 0 0 2.014-.843l1.194 1.18 1.568-1.577-1.195-1.18c.403-.614.683-1.3.825-2.018l1.622-.01v-2.22l-1.636.01a5.6 5.6 0 0 0-.846-2.006l1.13-1.136-1.583-1.563-1.13 1.136a5.7 5.7 0 0 0-2.022-.823l.01-1.618h-2.242l.004 1.631q-.531.11-1.05.324a5.7 5.7 0 0 0-.963.52l-1.17-1.158-1.567 1.58 1.169 1.156a5.7 5.7 0 0 0-.825 2.017l-1.659.003v2.222l1.673-.006a5.5 5.5 0 0 0 .847 2.005l-1.2 1.197 1.585 1.56 1.196-1.193a5.7 5.7 0 0 0 2.023.823l.001 1.7zm.221-3.996a3.53 3.53 0 0 1-4.61-1.874 3.51 3.51 0 0 1 1.881-4.596 3.53 3.53 0 0 1 4.609 1.874 3.51 3.51 0 0 1-1.88 4.596" style="fill:#fff;stroke-linecap:round;stroke-linejoin:round;stroke:#22242a;stroke-width:1px"/></g><path d="M0 0h100v80H0z" class="djs-hit djs-hit-all" style="fill:none;stroke-opacity:0;stroke:#fff;stroke-width:15px" transform="translate(976 490)"/></g></g><g class="djs-group"><g class="djs-element djs-shape" data-element-id="EndEvent_Expired" style="display:block" transform="translate(1128 512)"><circle cx="18" cy="18" r="18" class="djs-visual" style="stroke-linecap:round;stroke-linejoin:round;stroke:#22242a;stroke-width:4px;fill:#fff;fill-opacity:.95"/><path d="M0 0h36v36H0z" class="djs-hit djs-hit-all" style="fill:none;stroke-opacity:0;stroke:#fff;stroke-width:15px"/></g></g><g class="djs-group"><g class="djs-element djs-shape" data-element-id="EndEvent_Expired_label" style="display:block"><g class="djs-visual"><text class="djs-label" style="font-family:Arial,sans-serif;font-size:11px;font-weight:400;fill:#22242a" transform="translate(1123 550)"><tspan x="0" y="9.9">Evidence</tspan><tspan x="3.984" y="23.1">Expired</tspan></text></g><path d="M0 0h46v27H0z" class="djs-hit djs-hit-all" style="fill:none;stroke-opacity:0;stroke:#fff;stroke-width:15px" transform="translate(1123 550)"/></g></g><g class="djs-group"><g class="djs-element djs-shape" data-element-id="EndEvent_Active" style="display:block" transform="translate(1202 132)"><circle cx="18" cy="18" r="18" class="djs-visual" style="stroke-linecap:round;stroke-linejoin:round;stroke:#22242a;stroke-width:4px;fill:#fff;fill-opacity:.95"/><path d="M0 0h36v36H0z" class="djs-hit djs-hit-all" style="fill:none;stroke-opacity:0;stroke:#fff;stroke-width:15px"/></g></g><g class="djs-group"><g class="djs-element djs-shape" data-element-id="EndEvent_Active_label" style="display:block"><g class="djs-visual"><text class="djs-label" style="font-family:Arial,sans-serif;font-size:11px;font-weight:400;fill:#22242a" transform="translate(1197 177)"><tspan x="0" y="9.9">Evidence</tspan><tspan x="7.656" y="23.1">Active</tspan></text></g><path d="M0 0h46v27H0z" class="djs-hit djs-hit-all" style="fill:none;stroke-opacity:0;stroke:#fff;stroke-width:15px" transform="translate(1197 177)"/></g></g><g class="djs-group"><g class="djs-element djs-shape" data-element-id="Task_Review" style="display:block"><g class="djs-visual" transform="translate(547 260)"><rect width="100" height="80" rx="10" ry="10" style="stroke-linecap:round;stroke-linejoin:round;stroke:#22242a;stroke-width:2px;fill:#fff;fill-opacity:.95"/><text class="djs-label" style="font-family:Arial,sans-serif;font-size:12px;font-weight:400;fill:#22242a"><tspan x="30.32" y="36.4">Review </tspan><tspan x="25.313" y="50.8">Evidence</tspan></text><path d="M15 12c.909-.845 1.594-2.049 1.594-3.385 0-2.554-1.805-4.622-4.357-4.622S7.949 6.061 7.949 8.615c0 1.348.974 2.562 1.896 3.405-.529.187-5.669 2.097-5.794 4.756v6.718h17v-6.718c0-2.298-5.528-4.595-6.051-4.776m-8 6v5.5m11 0v-5" style="fill:#fff;stroke-linecap:round;stroke-linejoin:round;stroke:#22242a;stroke-width:.5px"/><path d="M17.162 13.009c0 2.447-2.158 4.431-4.821 4.431-2.665 0-4.822-1.981-4.822-4.431" style="fill:#fff;stroke-linecap:round;stroke-linejoin:round;stroke:#22242a;stroke-width:.5px"/><path d="M8.1 8.2s2.251-2.358 4.274-1.177 4.221 1.537 4.124.965c-.098-.57-.117-3.791-4.191-4.136C8.732 3.853 8.099 7.219 8.1 8.2" style="fill:#22242a;stroke-linecap:round;stroke-linejoin:round;stroke:#22242a;stroke-width:.5px"/></g><path d="M0 0h100v80H0z" class="djs-hit djs-hit-all" style="fill:none;stroke-opacity:0;stroke:#fff;stroke-width:15px" transform="translate(547 260)"/></g></g><g class="djs-group"><g class="djs-element djs-shape" data-element-id="Gateway_Decision" style="display:block"><g class="djs-visual"><path d="m25 0 25 25-25 25L0 25z" style="stroke-linecap:round;stroke-linejoin:round;stroke:#22242a;stroke-width:2px;fill:#fff;fill-opacity:.95" transform="translate(722 275)"/><path d="m16 15 7.429 9.714L16 34.43h3.429l5.714-7.465 5.714 7.465h3.429l-7.429-9.715L34.286 15h-3.429l-5.714 7.464L19.429 15z" style="fill:#22242a;stroke-linecap:round;stroke-linejoin:round;stroke:#22242a;stroke-width:1px" transform="translate(722 275)"/></g><path d="M0 0h50v50H0z" class="djs-hit djs-hit-all" style="fill:none;stroke-opacity:0;stroke:#fff;stroke-width:15px" transform="translate(722 275)"/></g></g><g class="djs-group"><g class="djs-element djs-shape" data-element-id="Gateway_Decision_label" style="display:block"><g class="djs-visual"><text class="djs-label" style="font-family:Arial,sans-serif;font-size:11px;font-weight:400;fill:#22242a" transform="translate(683 263)"><tspan x="0" y="9.9">Approved?</tspan></text></g><path d="M0 0h54v14H0z" class="djs-hit djs-hit-all" style="fill:none;stroke-opacity:0;stroke:#fff;stroke-width:15px" transform="translate(683 263)"/></g></g><g class="djs-group"><g class="djs-element djs-shape" data-element-id="EndEvent_Rejected" style="display:block" transform="translate(824 282)"><circle cx="18" cy="18" r="18" class="djs-visual" style="stroke-linecap:round;stroke-linejoin:round;stroke:#22242a;stroke-width:4px;fill:#fff;fill-opacity:.95"/><path d="M0 0h36v36H0z" class="djs-hit djs-hit-all" style="fill:none;stroke-opacity:0;stroke:#fff;stroke-width:15px"/></g></g><g class="djs-group"><g class="djs-element djs-shape" data-element-id="EndEvent_Rejected_label" style="display:block"><g class="djs-visual"><text class="djs-label" style="font-family:Arial,sans-serif;font-size:11px;font-weight:400;fill:#22242a" transform="translate(819 320)"><tspan x="0" y="9.9">Evidence</tspan><tspan x=".922" y="23.1">Rejected</tspan></text></g><path d="M0 0h46v27H0z" class="djs-hit djs-hit-all" style="fill:none;stroke-opacity:0;stroke:#fff;stroke-width:15px" transform="translate(819 320)"/></g></g><g class="djs-group"><g class="djs-element djs-shape" data-element-id="Gateway_1kvjaef" style="display:block"><g class="djs-visual"><path d="m25 0 25 25-25 25L0 25z" style="stroke-linecap:round;stroke-linejoin:round;stroke:#22242a;stroke-width:2px;fill:#fff;fill-opacity:.95" transform="translate(1115 125)"/><path d="m16 15 7.429 9.714L16 34.43h3.429l5.714-7.465 5.714 7.465h3.429l-7.429-9.715L34.286 15h-3.429l-5.714 7.464L19.429 15z" style="fill:#22242a;stroke-linecap:round;stroke-linejoin:round;stroke:#22242a;stroke-width:1px" transform="translate(1115 125)"/></g><path d="M0 0h50v50H0z" class="djs-hit djs-hit-all" style="fill:none;stroke-opacity:0;stroke:#fff;stroke-width:15px" transform="translate(1115 125)"/></g></g><g class="djs-group"><g class="djs-element djs-shape" data-element-id="BoundaryTimer_Age" style="display:block"><g class="djs-visual" transform="translate(1008 172)"><circle cx="18" cy="18" r="18" style="stroke-linecap:round;stroke-linejoin:round;stroke:#22242a;stroke-width:1.5px;fill:#fff;fill-opacity:1;stroke-dasharray:6"/><circle cx="18" cy="18" r="15" style="stroke-linecap:round;stroke-linejoin:round;stroke:#22242a;stroke-width:1.5px;fill:none;fill-opacity:1;stroke-dasharray:6"/><circle cx="18" cy="18" r="11" style="stroke-linecap:round;stroke-linejoin:round;stroke:#22242a;stroke-width:2px;fill:#fff"/><path d="m18 18 2.25-7.5M18 18l5.25 1.5" style="fill:none;stroke-linecap:round;stroke-linejoin:round;stroke:#22242a;stroke-width:2px"/><path d="M18 25.5v2.25" style="fill:none;stroke-linecap:round;stroke-linejoin:round;stroke:#22242a;stroke-width:1px"/><path d="M18 25.5v2.25" style="fill:none;stroke-linecap:round;stroke-linejoin:round;stroke:#22242a;stroke-width:1px" transform="rotate(30 18 18)"/><path d="M18 25.5v2.25" style="fill:none;stroke-linecap:round;stroke-linejoin:round;stroke:#22242a;stroke-width:1px" transform="rotate(60 18 18)"/><path d="M18 25.5v2.25" style="fill:none;stroke-linecap:round;stroke-linejoin:round;stroke:#22242a;stroke-width:1px" transform="rotate(90 18 18)"/><path d="M18 25.5v2.25" style="fill:none;stroke-linecap:round;stroke-linejoin:round;stroke:#22242a;stroke-width:1px" transform="rotate(120 18 18)"/><path d="M18 25.5v2.25" style="fill:none;stroke-linecap:round;stroke-linejoin:round;stroke:#22242a;stroke-width:1px" transform="rotate(150 18 18)"/><path d="M18 25.5v2.25" style="fill:none;stroke-linecap:round;stroke-linejoin:round;stroke:#22242a;stroke-width:1px" transform="rotate(180 18 18)"/><path d="M18 25.5v2.25" style="fill:none;stroke-linecap:round;stroke-linejoin:round;stroke:#22242a;stroke-width:1px" transform="rotate(210 18 18)"/><path d="M18 25.5v2.25" style="fill:none;stroke-linecap:round;stroke-linejoin:round;stroke:#22242a;stroke-width:1px" transform="rotate(240 18 18)"/><path d="M18 25.5v2.25" style="fill:none;stroke-linecap:round;stroke-linejoin:round;stroke:#22242a;stroke-width:1px" transform="rotate(270 18 18)"/><path d="M18 25.5v2.25" style="fill:none;stroke-linecap:round;stroke-linejoin:round;stroke:#22242a;stroke-width:1px" transform="rotate(300 18 18)"/><path d="M18 25.5v2.25" style="fill:none;stroke-linecap:round;stroke-linejoin:round;stroke:#22242a;stroke-width:1px" transform="rotate(330 18 18)"/></g><path d="M0 0h36v36H0z" class="djs-hit djs-hit-all" style="fill:none;stroke-opacity:0;stroke:#fff;stroke-width:15px" transform="translate(1008 172)"/></g></g><g class="djs-group"><g class="djs-element djs-shape" data-element-id="BoundaryTimer_Age_label" style="display:block"><g class="djs-visual"><text class="djs-label" style="font-family:Arial,sans-serif;font-size:11px;font-weight:400;fill:#22242a" transform="translate(1050 203)"><tspan x="0" y="9.9">90 Days</tspan></text></g><path d="M0 0h41v14H0z" class="djs-hit djs-hit-all" style="fill:none;stroke-opacity:0;stroke:#fff;stroke-width:15px" transform="translate(1050 203)"/></g></g><g class="djs-group"><g class="djs-element djs-connection" data-element-id="Flow_1" style="display:block"><g class="djs-visual"><defs><marker id="a" markerHeight="10" markerWidth="10" orient="auto" refX="11" refY="10" viewBox="0 0 20 20"><path d="m1 5 10 5-10 5Z" style="stroke-linecap:round;stroke-linejoin:round;stroke:#22242a;stroke-width:1px;fill:#22242a"/></marker></defs><path d="M216 150h52" data-corner-radius="5" style="fill:none;stroke-linecap:round;stroke-linejoin:round;stroke:#22242a;stroke-width:2px;marker-end:url(#a)"/></g><path d="M216 150h52" class="djs-hit djs-hit-stroke" style="fill:none;stroke-opacity:0;stroke:#fff;stroke-width:15px"/></g></g><g class="djs-group"><g class="djs-element djs-connection" data-element-id="Flow_2" style="display:block"><g class="djs-visual"><defs><marker id="b" markerHeight="10" markerWidth="10" orient="auto" refX="11" refY="10" viewBox="0 0 20 20"><path d="m1 5 10 5-10 5Z" style="stroke-linecap:round;stroke-linejoin:round;stroke:#22242a;stroke-width:1px;fill:#22242a"/></marker></defs><path d="M368 150h52" data-corner-radius="5" style="fill:none;stroke-linecap:round;stroke-linejoin:round;stroke:#22242a;stroke-width:2px;marker-end:url(#b)"/></g><path d="M368 150h52" class="djs-hit djs-hit-stroke" style="fill:none;stroke-opacity:0;stroke:#fff;stroke-width:15px"/></g></g><g class="djs-group"><g class="djs-element djs-connection" data-element-id="Flow_3" style="display:block"><g class="djs-visual"><defs><marker id="c" markerHeight="10" markerWidth="10" orient="auto" refX="11" refY="10" viewBox="0 0 20 20"><path d="m1 5 10 5-10 5Z" style="stroke-linecap:round;stroke-linejoin:round;stroke:#22242a;stroke-width:1px;fill:#22242a"/></marker></defs><path d="M520 150h52" data-corner-radius="5" style="fill:none;stroke-linecap:round;stroke-linejoin:round;stroke:#22242a;stroke-width:2px;marker-end:url(#c)"/></g><path d="M520 150h52" class="djs-hit djs-hit-stroke" style="fill:none;stroke-opacity:0;stroke:#fff;stroke-width:15px"/></g></g><g class="djs-group"><g class="djs-element djs-connection" data-element-id="Flow_AutoValidate" style="display:block"><g class="djs-visual"><defs><marker id="d" markerHeight="10" markerWidth="10" orient="auto" refX="11" refY="10" viewBox="0 0 20 20"><path d="m1 5 10 5-10 5Z" style="stroke-linecap:round;stroke-linejoin:round;stroke:#22242a;stroke-width:1px;fill:#22242a"/></marker></defs><path d="M622 150h100" data-corner-radius="5" style="fill:none;stroke-linecap:round;stroke-linejoin:round;stroke:#22242a;stroke-width:2px;marker-end:url(#d)"/></g><path d="M622 150h100" class="djs-hit djs-hit-stroke" style="fill:none;stroke-opacity:0;stroke:#fff;stroke-width:15px"/></g></g><g class="djs-group"><g class="djs-element djs-shape" data-element-id="Flow_AutoValidate_label" style="display:block"><g class="djs-visual"><text class="djs-label" style="font-family:Arial,sans-serif;font-size:11px;font-weight:400;fill:#22242a" transform="translate(664 132)"><tspan x="0" y="9.9">Yes</tspan></text></g><path d="M0 0h18v14H0z" class="djs-hit djs-hit-all" style="fill:none;stroke-opacity:0;stroke:#fff;stroke-width:15px" transform="translate(664 132)"/></g></g><g class="djs-group"><g class="djs-element djs-connection" data-element-id="Flow_ManualReview" style="display:block"><g class="djs-visual"><defs><marker id="e" markerHeight="10" markerWidth="10" orient="auto" refX="11" refY="10" viewBox="0 0 20 20"><path d="m1 5 10 5-10 5Z" style="stroke-linecap:round;stroke-linejoin:round;stroke:#22242a;stroke-width:1px;fill:#22242a"/></marker></defs><path d="M597 175v85" data-corner-radius="5" style="fill:none;stroke-linecap:round;stroke-linejoin:round;stroke:#22242a;stroke-width:2px;marker-end:url(#e)"/></g><path d="M597 175v85" class="djs-hit djs-hit-stroke" style="fill:none;stroke-opacity:0;stroke:#fff;stroke-width:15px"/></g></g><g class="djs-group"><g class="djs-element djs-shape" data-element-id="Flow_ManualReview_label" style="display:block"><g class="djs-visual"><text class="djs-label" style="font-family:Arial,sans-serif;font-size:11px;font-weight:400;fill:#22242a" transform="translate(605 210)"><tspan x="0" y="9.9">No</tspan></text></g><path d="M0 0h15v14H0z" class="djs-hit djs-hit-all" style="fill:none;stroke-opacity:0;stroke:#fff;stroke-width:15px" transform="translate(605 210)"/></g></g><g class="djs-group"><g class="djs-element djs-connection" data-element-id="Flow_MergeToValidate" style="display:block"><g class="djs-visual"><defs><marker id="f" markerHeight="10" markerWidth="10" orient="auto" refX="11" refY="10" viewBox="0 0 20 20"><path d="m1 5 10 5-10 5Z" style="stroke-linecap:round;stroke-linejoin:round;stroke:#22242a;stroke-width:1px;fill:#22242a"/></marker></defs><path d="M772 150h52" data-corner-radius="5" style="fill:none;stroke-linecap:round;stroke-linejoin:round;stroke:#22242a;stroke-width:2px;marker-end:url(#f)"/></g><path d="M772 150h52" class="djs-hit djs-hit-stroke" style="fill:none;stroke-opacity:0;stroke:#fff;stroke-width:15px"/></g></g><g class="djs-group"><g class="djs-element djs-connection" data-element-id="Flow_5" style="display:block"><g class="djs-visual"><defs><marker id="g" markerHeight="10" markerWidth="10" orient="auto" refX="11" refY="10" viewBox="0 0 20 20"><path d="m1 5 10 5-10 5Z" style="stroke-linecap:round;stroke-linejoin:round;stroke:#22242a;stroke-width:1px;fill:#22242a"/></marker></defs><path d="M924 150h52" data-corner-radius="5" style="fill:none;stroke-linecap:round;stroke-linejoin:round;stroke:#22242a;stroke-width:2px;marker-end:url(#g)"/></g><path d="M924 150h52" class="djs-hit djs-hit-stroke" style="fill:none;stroke-opacity:0;stroke:#fff;stroke-width:15px"/></g></g><g class="djs-group"><g class="djs-element djs-connection" data-element-id="Flow_6" style="display:block"><g class="djs-visual"><defs><marker id="h" markerHeight="10" markerWidth="10" orient="auto" refX="11" refY="10" viewBox="0 0 20 20"><path d="m1 5 10 5-10 5Z" style="stroke-linecap:round;stroke-linejoin:round;stroke:#22242a;stroke-width:1px;fill:#22242a"/></marker></defs><path d="M1076 150h39" data-corner-radius="5" style="fill:none;stroke-linecap:round;stroke-linejoin:round;stroke:#22242a;stroke-width:2px;marker-end:url(#h)"/></g><path d="M1076 150h39" class="djs-hit djs-hit-stroke" style="fill:none;stroke-opacity:0;stroke:#fff;stroke-width:15px"/></g></g><g class="djs-group"><g class="djs-element djs-connection" data-element-id="Flow_AgeCheck" style="display:block"><g class="djs-visual"><defs><marker id="i" markerHeight="10" markerWidth="10" orient="auto" refX="11" refY="10" viewBox="0 0 20 20"><path d="m1 5 10 5-10 5Z" style="stroke-linecap:round;stroke-linejoin:round;stroke:#22242a;stroke-width:1px;fill:#22242a"/></marker></defs><path d="M1026 208v177" data-corner-radius="5" style="fill:none;stroke-linecap:round;stroke-linejoin:round;stroke:#22242a;stroke-width:2px;marker-end:url(#i)"/></g><path d="M1026 208v177" class="djs-hit djs-hit-stroke" style="fill:none;stroke-opacity:0;stroke:#fff;stroke-width:15px"/></g></g><g class="djs-group"><g class="djs-element djs-connection" data-element-id="Flow_Expire" style="display:block"><g class="djs-visual"><defs><marker id="j" markerHeight="10" markerWidth="10" orient="auto" refX="11" refY="10" viewBox="0 0 20 20"><path d="m1 5 10 5-10 5Z" style="stroke-linecap:round;stroke-linejoin:round;stroke:#22242a;stroke-width:1px;fill:#22242a"/></marker></defs><path d="M1026 435v55" data-corner-radius="5" style="fill:none;stroke-linecap:round;stroke-linejoin:round;stroke:#22242a;stroke-width:2px;marker-end:url(#j)"/></g><path d="M1026 435v55" class="djs-hit djs-hit-stroke" style="fill:none;stroke-opacity:0;stroke:#fff;stroke-width:15px"/></g></g><g class="djs-group"><g class="djs-element djs-shape" data-element-id="Flow_Expire_label" style="display:block"><g class="djs-visual"><text class="djs-label" style="font-family:Arial,sans-serif;font-size:11px;font-weight:400;fill:#22242a" transform="translate(1034 455)"><tspan x="0" y="9.9">Yes</tspan></text></g><path d="M0 0h18v14H0z" class="djs-hit djs-hit-all" style="fill:none;stroke-opacity:0;stroke:#fff;stroke-width:15px" transform="translate(1034 455)"/></g></g><g class="djs-group"><g class="djs-element djs-connection" data-element-id="Flow_Continue" style="display:block"><g class="djs-visual"><defs><marker id="k" markerHeight="10" markerWidth="10" orient="auto" refX="11" refY="10" viewBox="0 0 20 20"><path d="m1 5 10 5-10 5Z" style="stroke-linecap:round;stroke-linejoin:round;stroke:#22242a;stroke-width:1px;fill:#22242a"/></marker></defs><path d="M1051 410h84c2.5 0 5-2.5 5-5V175" data-corner-radius="5" style="fill:none;stroke-linecap:round;stroke-linejoin:round;stroke:#22242a;stroke-width:2px;marker-end:url(#k)"/></g><path d="M1051 410h89V175" class="djs-hit djs-hit-stroke" style="fill:none;stroke-opacity:0;stroke:#fff;stroke-width:15px"/></g></g><g class="djs-group"><g class="djs-element djs-shape" data-element-id="Flow_Continue_label" style="display:block"><g class="djs-visual"><text class="djs-label" style="font-family:Arial,sans-serif;font-size:11px;font-weight:400;fill:#22242a" transform="translate(1084 392)"><tspan x="0" y="9.9">No</tspan></text></g><path d="M0 0h15v14H0z" class="djs-hit djs-hit-all" style="fill:none;stroke-opacity:0;stroke:#fff;stroke-width:15px" transform="translate(1084 392)"/></g></g><g class="djs-group"><g class="djs-element djs-connection" data-element-id="Flow_8" style="display:block"><g class="djs-visual"><defs><marker id="l" markerHeight="10" markerWidth="10" orient="auto" refX="11" refY="10" viewBox="0 0 20 20"><path d="m1 5 10 5-10 5Z" style="stroke-linecap:round;stroke-linejoin:round;stroke:#22242a;stroke-width:1px;fill:#22242a"/></marker></defs><path d="M1076 530h52" data-corner-radius="5" style="fill:none;stroke-linecap:round;stroke-linejoin:round;stroke:#22242a;stroke-width:2px;marker-end:url(#l)"/></g><path d="M1076 530h52" class="djs-hit djs-hit-stroke" style="fill:none;stroke-opacity:0;stroke:#fff;stroke-width:15px"/></g></g><g class="djs-group"><g class="djs-element djs-connection" data-element-id="Flow_ReviewComplete" style="display:block"><g class="djs-visual"><defs><marker id="m" markerHeight="10" markerWidth="10" orient="auto" refX="11" refY="10" viewBox="0 0 20 20"><path d="m1 5 10 5-10 5Z" style="stroke-linecap:round;stroke-linejoin:round;stroke:#22242a;stroke-width:1px;fill:#22242a"/></marker></defs><path d="M647 300h75" data-corner-radius="5" style="fill:none;stroke-linecap:round;stroke-linejoin:round;stroke:#22242a;stroke-width:2px;marker-end:url(#m)"/></g><path d="M647 300h75" class="djs-hit djs-hit-stroke" style="fill:none;stroke-opacity:0;stroke:#fff;stroke-width:15px"/></g></g><g class="djs-group"><g class="djs-element djs-connection" data-element-id="Flow_Approved" style="display:block"><g class="djs-visual"><defs><marker id="n" markerHeight="10" markerWidth="10" orient="auto" refX="11" refY="10" viewBox="0 0 20 20"><path d="m1 5 10 5-10 5Z" style="stroke-linecap:round;stroke-linejoin:round;stroke:#22242a;stroke-width:1px;fill:#22242a"/></marker></defs><path d="M747 275V175" data-corner-radius="5" style="fill:none;stroke-linecap:round;stroke-linejoin:round;stroke:#22242a;stroke-width:2px;marker-end:url(#n)"/></g><path d="M747 275V175" class="djs-hit djs-hit-stroke" style="fill:none;stroke-opacity:0;stroke:#fff;stroke-width:15px"/></g></g><g class="djs-group"><g class="djs-element djs-shape" data-element-id="Flow_Approved_label" style="display:block"><g class="djs-visual"><text class="djs-label" style="font-family:Arial,sans-serif;font-size:11px;font-weight:400;fill:#22242a" transform="translate(753 220)"><tspan x="0" y="9.9">Yes</tspan></text></g><path d="M0 0h18v14H0z" class="djs-hit djs-hit-all" style="fill:none;stroke-opacity:0;stroke:#fff;stroke-width:15px" transform="translate(753 220)"/></g></g><g class="djs-group"><g class="djs-element djs-connection" data-element-id="Flow_Rejected" style="display:block"><g class="djs-visual"><defs><marker id="o" markerHeight="10" markerWidth="10" orient="auto" refX="11" refY="10" viewBox="0 0 20 20"><path d="m1 5 10 5-10 5Z" style="stroke-linecap:round;stroke-linejoin:round;stroke:#22242a;stroke-width:1px;fill:#22242a"/></marker></defs><path d="M772 300h52" data-corner-radius="5" style="fill:none;stroke-linecap:round;stroke-linejoin:round;stroke:#22242a;stroke-width:2px;marker-end:url(#o)"/></g><path d="M772 300h52" class="djs-hit djs-hit-stroke" style="fill:none;stroke-opacity:0;stroke:#fff;stroke-width:15px"/></g></g><g class="djs-group"><g class="djs-element djs-shape" data-element-id="Flow_Rejected_label" style="display:block"><g class="djs-visual"><text class="djs-label" style="font-family:Arial,sans-serif;font-size:11px;font-weight:400;fill:#22242a" transform="translate(786 282)"><tspan x="0" y="9.9">No</tspan></text></g><path d="M0 0h15v14H0z" class="djs-hit djs-hit-all" style="fill:none;stroke-opacity:0;stroke:#fff;stroke-width:15px" transform="translate(786 282)"/></g></g><g class="djs-group"><g class="djs-element djs-connection" data-element-id="Flow_0rdz7ac" style="display:block"><g class="djs-visual"><defs><marker id="p" markerHeight="10" markerWidth="10" orient="auto" refX="11" refY="10" viewBox="0 0 20 20"><path d="m1 5 10 5-10 5Z" style="stroke-linecap:round;stroke-linejoin:round;stroke:#22242a;stroke-width:1px;fill:#22242a"/></marker></defs><path d="M1165 150h37" data-corner-radius="5" style="fill:none;stroke-linecap:round;stroke-linejoin:round;stroke:#22242a;stroke-width:2px;marker-end:url(#p)"/></g><path d="M1165 150h37" class="djs-hit djs-hit-stroke" style="fill:none;stroke-opacity:0;stroke:#fff;stroke-width:15px"/></g></g></svg>