<svg xmlns="http://www.w3.org/2000/svg" width="1275" height="760" viewBox="155 47 1275 760"><g class="djs-group"><g class="djs-element djs-shape" data-element-id="Participant_TOMGap" style="display:block"><g class="djs-visual" transform="translate(155 47)"><rect width="1275" height="760" rx="0" ry="0" style="stroke-linecap:round;stroke-linejoin:round;stroke:#22242a;stroke-width:1.5px;fill:#fff;fill-opacity:.95"/><path d="M30 0v760" style="fill:none;stroke-linecap:round;stroke-linejoin:round;stroke:#22242a;stroke-width:1.5px"/><text class="djs-label" style="font-family:Arial,sans-serif;font-size:12px;font-weight:400;fill:#22242a" transform="rotate(-90 380 380)"><tspan x="306.859" y="18.6">KMFlow TOM Gap Analysis</tspan></text></g><path d="M0 0h1275v760H0z" class="djs-hit djs-hit-all" style="fill:none;stroke-opacity:0;stroke:#fff;stroke-width:15px" transform="translate(155 47)"/></g><g class="djs-children"><g class="djs-group"><g class="djs-element djs-shape" data-element-id="Lane_EngagementLead" style="display:block"><g class="djs-visual" transform="translate(185 507)"><rect width="1245" height="300" rx="0" ry="0" style="stroke-linecap:round;stroke-linejoin:round;stroke:#22242a;stroke-width:1.5px;fill:#fff;fill-opacity:.25"/><text class="djs-label" style="font-family:Arial,sans-serif;font-size:12px;font-weight:400;fill:#22242a" transform="rotate(-90 150 150)"><tspan x="100.953" y="18.6">Engagement Lead</tspan></text></g><path d="M0 0h1245v300H0z" class="djs-hit djs-hit-all" style="fill:none;stroke-opacity:0;stroke:#fff;stroke-width:15px" transform="translate(185 507)"/></g></g><g class="djs-group"><g class="djs-element djs-shape" data-element-id="Lane_GapAnalysis" style="display:block"><g class="djs-visual" transform="translate(185 277)"><rect width="1245" height="230" rx="0" ry="0" style="stroke-linecap:round;stroke-linejoin:round;stroke:#22242a;stroke-width:1.5px;fill:#fff;fill-opacity:.25"/><text class="djs-label" style="font-family:Arial,sans-serif;font-size:12px;font-weight:400;fill:#22242a" transform="rotate(-90 115 115)"><tspan x="59.625" y="18.6">Gap Analysis Engine</tspan></text></g><path d="M0 0h1245v230H0z" class="djs-hit djs-hit-all" style="fill:none;stroke-opacity:0;stroke:#fff;stroke-width:15px" transform="translate(185 277)"/></g></g><g class="djs-group"><g class="djs-element djs-shape" data-element-id="Lane_TOMEngine" style="display:block"><g class="djs-visual" transform="translate(185 47)"><rect width="1245" height="230" rx="0" ry="0" style="stroke-linecap:round;stroke-linejoin:round;stroke:#22242a;stroke-width:1.5px;fill:#fff;fill-opacity:.25"/><text class="djs-label" style="font-family:Arial,sans-serif;font-size:12px;font-weight:400;fill:#22242a" transform="rotate(-90 115 115)"><tspan x="81.422" y="18.6">TOM Engine</tspan></text></g><path d="M0 0h1245v230H0z" class="djs-hit djs-hit-all" style="fill:none;stroke-opacity:0;stroke:#fff;stroke-width:15px" transform="translate(185 47)"/></g></g><g class="djs-group"><g class="djs-element djs-shape" data-element-id="StartEvent_TOMRequested" style="display:block" transform="translate(247 144)"><circle cx="18" cy="18" r="18" class="djs-visual" style="stroke-linecap:round;stroke-linejoin:round;stroke:#22242a;stroke-width:2px;fill:#fff;fill-opacity:.95"/><path d="M0 0h36v36H0z" class="djs-hit djs-hit-all" style="fill:none;stroke-opacity:0;stroke:#fff;stroke-width:15px"/></g></g><g class="djs-group"><g class="djs-element djs-shape" data-element-id="StartEvent_TOMRequested_label" style="display:block"><g class="djs-visual"><text class="djs-label" style="font-family:Arial,sans-serif;font-size:11px;font-weight:400;fill:#22242a" transform="translate(238 187)"><tspan x="14.484" y="9.9">TOM</tspan><tspan x="6.133" y="23.1">Analysis</tspan><tspan x="0" y="36.3">Requested</tspan></text></g><path d="M0 0h54v40H0z" class="djs-hit djs-hit-all" style="fill:none;stroke-opacity:0;stroke:#fff;stroke-width:15px" transform="translate(238 187)"/></g></g><g class="djs-group"><g class="djs-element djs-shape" data-element-id="Task_LoadTOM" style="display:block"><g class="djs-visual" transform="translate(335 122)"><rect width="100" height="80" rx="10" ry="10" style="stroke-linecap:round;stroke-linejoin:round;stroke:#22242a;stroke-width:2px;fill:#fff;fill-opacity:.95"/><text class="djs-label" style="font-family:Arial,sans-serif;font-size:12px;font-weight:400;fill:#22242a"><tspan x="18.414" y="29.2">Load Target </tspan><tspan x="23.648" y="43.6">Operating </tspan><tspan x="33.656" y="58">Model</tspan></text><circle cx="5" cy="5" r="5" style="stroke-linecap:round;stroke-linejoin:round;stroke:none;stroke-width:2px;fill:#fff" transform="translate(6 6)"/><path d="M12 18v-1.713a5.6 5.6 0 0 0 2.014-.843l1.194 1.18 1.568-1.577-1.195-1.18c.403-.614.683-1.3.825-2.018l1.622-.01v-2.22l-1.636.01a5.6 5.6 0 0 0-.846-2.006l1.13-1.136-1.583-1.563-1.13 1.136a5.7 5.7 0 0 0-2.022-.823l.01-1.618H9.708l.004 1.631q-.531.11-1.05.324a5.7 5.7 0 0 0-.963.52L6.53 4.936l-1.567 1.58 1.169 1.156a5.7 5.7 0 0 0-.825 2.017l-1.659.003v2.222l1.673-.006a5.5 5.5 0 0 0 .847 2.005l-1.2 1.197 1.585 1.56 1.196-1.193a5.7 5.7 0 0 0 2.023.823l.001 1.7zm.221-3.996a3.53 3.53 0 0 1-4.61-1.874 3.51 3.51 0 0 1 1.881-4.596 3.53 3.53 0 0 1 4.609 1.874 3.51 3.51 0 0 1-1.88 4.596" style="fill:#fff;stroke-linecap:round;stroke-linejoin:round;stroke:#22242a;stroke-width:1px"/><circle cx="5" cy="5" r="5" style="stroke-linecap:round;stroke-linejoin:round;stroke:none;stroke-width:2px;fill:#fff" transform="translate(11 10)"/><path d="M17 22v-1.713a5.6 5.6 0 0 0 2.014-.843l1.194 1.18 1.568-1.577-1.195-1.18c.403-.614.683-1.3.825-2.018l1.622-.01v-2.22l-1.636.01a5.6 5.6 0 0 0-.846-2.006l1.13-1.136-1.583-1.563-1.13 1.136a5.7 5.7 0 0 0-2.022-.823l.01-1.618h-2.242l.004 1.631q-.531.11-1.05.324a5.7 5.7 0 0 0-.963.52l-1.17-1.158-1.567 1.58 1.169 1.156a5.7 5.7 0 0 0-.825 2.017l-1.659.003v2.222l1.673-.006a5.5 5.5 0 0 0 .847 2.005l-1.2 1.197 1.585 1.56 1.196-1.193a5.7 5.7 0 0 0 2.023.823l.001 1.7zm.221-3.996a3.53 3.53 0 0 1-4.61-1.874 3.51 3.51 0 0 1 1.881-4.596 3.53 3.53 0 0 1 4.609 1.874 3.51 3.51 0 0 1-1.88 4.596" style="fill:#fff;stroke-linecap:round;stroke-linejoin:round;stroke:#22242a;stroke-width:1px"/></g><path d="M0 0h100v80H0z" class="djs-hit djs-hit-all" style="fill:none;stroke-opacity:0;stroke:#fff;stroke-width:15px" transform="translate(335 122)"/></g></g><g class="djs-group"><g class="djs-element djs-shape" data-element-id="Task_LoadAsIs" style="display:block"><g class="djs-visual" transform="translate(487 122)"><rect width="100" height="80" rx="10" ry="10" style="stroke-linecap:round;stroke-linejoin:round;stroke:#22242a;stroke-width:2px;fill:#fff;fill-opacity:.95"/><text class="djs-label" style="font-family:Arial,sans-serif;font-size:12px;font-weight:400;fill:#22242a"><tspan x="21.648" y="36.4">Load As-Is </tspan><tspan x="10.758" y="50.8">Process Views</tspan></text><circle cx="5" cy="5" r="5" style="stroke-linecap:round;stroke-linejoin:round;stroke:none;stroke-width:2px;fill:#fff" transform="translate(6 6)"/><path d="M12 18v-1.713a5.6 5.6 0 0 0 2.014-.843l1.194 1.18 1.568-1.577-1.195-1.18c.403-.614.683-1.3.825-2.018l1.622-.01v-2.22l-1.636.01a5.6 5.6 0 0 0-.846-2.006l1.13-1.136-1.583-1.563-1.13 1.136a5.7 5.7 0 0 0-2.022-.823l.01-1.618H9.708l.004 1.631q-.531.11-1.05.324a5.7 5.7 0 0 0-.963.52L6.53 4.936l-1.567 1.58 1.169 1.156a5.7 5.7 0 0 0-.825 2.017l-1.659.003v2.222l1.673-.006a5.5 5.5 0 0 0 .847 2.005l-1.2 1.197 1.585 1.56 1.196-1.193a5.7 5.7 0 0 0 2.023.823l.001 1.7zm.221-3.996a3.53 3.53 0 0 1-4.61-1.874 3.51 3.51 0 0 1 1.881-4.596 3.53 3.53 0 0 1 4.609 1.874 3.51 3.51 0 0 1-1.88 4.596" style="fill:#fff;stroke-linecap:round;stroke-linejoin:round;stroke:#22242a;stroke-width:1px"/><circle cx="5" cy="5" r="5" style="stroke-linecap:round;stroke-linejoin:round;stroke:none;stroke-width:2px;fill:#fff" transform="translate(11 10)"/><path d="M17 22v-1.713a5.6 5.6 0 0 0 2.014-.843l1.194 1.18 1.568-1.577-1.195-1.18c.403-.614.683-1.3.825-2.018l1.622-.01v-2.22l-1.636.01a5.6 5.6 0 0 0-.846-2.006l1.13-1.136-1.583-1.563-1.13 1.136a5.7 5.7 0 0 0-2.022-.823l.01-1.618h-2.242l.004 1.631q-.531.11-1.05.324a5.7 5.7 0 0 0-.963.52l-1.17-1.158-1.567 1.58 1.169 1.156a5.7 5.7 0 0 0-.825 2.017l-1.659.003v2.222l1.673-.006a5.5 5.5 0 0 0 .847 2.005l-1.2 1.197 1.585 1.56 1.196-1.193a5.7 5.7 0 0 0 2.023.823l.001 1.7zm.221-3.996a3.53 3.53 0 0 1-4.61-1.874 3.51 3.51 0 0 1 1.881-4.596 3.53 3.53 0 0 1 4.609 1.874 3.51 3.51 0 0 1-1.88 4.596" style="fill:#fff;stroke-linecap:round;stroke-linejoin:round;stroke:#22242a;stroke-width:1px"/></g><path d="M0 0h100v80H0z" class="djs-hit djs-hit-all" style="fill:none;stroke-opacity:0;stroke:#fff;stroke-width:15px" transform="translate(487 122)"/></g></g><g class="djs-group"><g class="djs-element djs-shape" data-element-id="SubProcess_Alignment" style="display:block"><g class="djs-visual" transform="translate(639 122)"><rect width="100" height="80" rx="10" ry="10" style="stroke-linecap:round;stroke-linejoin:round;stroke:#22242a;stroke-width:2px;fill:#fff;fill-opacity:.95"/><text class="djs-label" style="font-family:Arial,sans-serif;font-size:12px;font-weight:400;fill:#22242a"><tspan x="35.328" y="29.2">Multi-</tspan><tspan x="16.984" y="43.6">Dimensional</tspan><tspan x="23.321" y="58">Alignment</tspan></text><rect width="14" height="14" rx="0" ry="0" style="stroke-linecap:round;stroke-linejoin:round;stroke:#22242a;stroke-width:1px;fill:#fff" transform="translate(42.5 60)"/><path d="M49.5 62v10m-5-5h10" data-marker="sub-process" style="fill:#fff;stroke-linecap:round;stroke-linejoin:round;stroke:#22242a;stroke-width:2px"/></g><path d="M0 0h100v80H0z" class="djs-hit djs-hit-all" style="fill:none;stroke-opacity:0;stroke:#fff;stroke-width:15px" transform="translate(639 122)"/></g></g><g class="djs-group"><g class="djs-element djs-shape" data-element-id="Task_IdentifyGaps" style="display:block"><g class="djs-visual" transform="translate(639 352)"><rect width="100" height="80" rx="10" ry="10" style="stroke-linecap:round;stroke-linejoin:round;stroke:#22242a;stroke-width:2px;fill:#fff;fill-opacity:.95"/><text class="djs-label" style="font-family:Arial,sans-serif;font-size:12px;font-weight:400;fill:#22242a"><tspan x="14.641" y="43.6">Identify Gaps</tspan></text><circle cx="5" cy="5" r="5" style="stroke-linecap:round;stroke-linejoin:round;stroke:none;stroke-width:2px;fill:#fff" transform="translate(6 6)"/><path d="M12 18v-1.713a5.6 5.6 0 0 0 2.014-.843l1.194 1.18 1.568-1.577-1.195-1.18c.403-.614.683-1.3.825-2.018l1.622-.01v-2.22l-1.636.01a5.6 5.6 0 0 0-.846-2.006l1.13-1.136-1.583-1.563-1.13 1.136a5.7 5.7 0 0 0-2.022-.823l.01-1.618H9.708l.004 1.631q-.531.11-1.05.324a5.7 5.7 0 0 0-.963.52L6.53 4.936l-1.567 1.58 1.169 1.156a5.7 5.7 0 0 0-.825 2.017l-1.659.003v2.222l1.673-.006a5.5 5.5 0 0 0 .847 2.005l-1.2 1.197 1.585 1.56 1.196-1.193a5.7 5.7 0 0 0 2.023.823l.001 1.7zm.221-3.996a3.53 3.53 0 0 1-4.61-1.874 3.51 3.51 0 0 1 1.881-4.596 3.53 3.53 0 0 1 4.609 1.874 3.51 3.51 0 0 1-1.88 4.596" style="fill:#fff;stroke-linecap:round;stroke-linejoin:round;stroke:#22242a;stroke-width:1px"/><circle cx="5" cy="5" r="5" style="stroke-linecap:round;stroke-linejoin:round;stroke:none;stroke-width:2px;fill:#fff" transform="translate(11 10)"/><path d="M17 22v-1.713a5.6 5.6 0 0 0 2.014-.843l1.194 1.18 1.568-1.577-1.195-1.18c.403-.614.683-1.3.825-2.018l1.622-.01v-2.22l-1.636.01a5.6 5.6 0 0 0-.846-2.006l1.13-1.136-1.583-1.563-1.13 1.136a5.7 5.7 0 0 0-2.022-.823l.01-1.618h-2.242l.004 1.631q-.531.11-1.05.324a5.7 5.7 0 0 0-.963.52l-1.17-1.158-1.567 1.58 1.169 1.156a5.7 5.7 0 0 0-.825 2.017l-1.659.003v2.222l1.673-.006a5.5 5.5 0 0 0 .847 2.005l-1.2 1.197 1.585 1.56 1.196-1.193a5.7 5.7 0 0 0 2.023.823l.001 1.7zm.221-3.996a3.53 3.53 0 0 1-4.61-1.874 3.51 3.51 0 0 1 1.881-4.596 3.53 3.53 0 0 1 4.609 1.874 3.51 3.51 0 0 1-1.88 4.596" style="fill:#fff;stroke-linecap:round;stroke-linejoin:round;stroke:#22242a;stroke-width:1px"/></g><path d="M0 0h100v80H0z" class="djs-hit djs-hit-all" style="fill:none;stroke-opacity:0;stroke:#fff;stroke-width:15px" transform="translate(639 352)"/></g></g><g class="djs-group"><g class="djs-element djs-shape" data-element-id="Task_GenerateRationale" style="display:block"><g class="djs-visual" transform="translate(791 352)"><rect width="100" height="80" rx="10" ry="10" style="stroke-linecap:round;stroke-linejoin:round;stroke:#22242a;stroke-width:2px;fill:#fff;fill-opacity:.95"/><text class="djs-label" style="font-family:Arial,sans-serif;font-size:12px;font-weight:400;fill:#22242a"><tspan x="11.641" y="36.4">Generate LLM </tspan><tspan x="24.648" y="50.8">Rationale</tspan></text><circle cx="5" cy="5" r="5" style="stroke-linecap:round;stroke-linejoin:round;stroke:none;stroke-width:2px;fill:#fff" transform="translate(6 6)"/><path d="M12 18v-1.713a5.6 5.6 0 0 0 2.014-.843l1.194 1.18 1.568-1.577-1.195-1.18c.403-.614.683-1.3.825-2.018l1.622-.01v-2.22l-1.636.01a5.6 5.6 0 0 0-.846-2.006l1.13-1.136-1.583-1.563-1.13 1.136a5.7 5.7 0 0 0-2.022-.823l.01-1.618H9.708l.004 1.631q-.531.11-1.05.324a5.7 5.7 0 0 0-.963.52L6.53 4.936l-1.567 1.58 1.169 1.156a5.7 5.7 0 0 0-.825 2.017l-1.659.003v2.222l1.673-.006a5.5 5.5 0 0 0 .847 2.005l-1.2 1.197 1.585 1.56 1.196-1.193a5.7 5.7 0 0 0 2.023.823l.001 1.7zm.221-3.996a3.53 3.53 0 0 1-4.61-1.874 3.51 3.51 0 0 1 1.881-4.596 3.53 3.53 0 0 1 4.609 1.874 3.51 3.51 0 0 1-1.88 4.596" style="fill:#fff;stroke-linecap:round;stroke-linejoin:round;stroke:#22242a;stroke-width:1px"/><circle cx="5" cy="5" r="5" style="stroke-linecap:round;stroke-linejoin:round;stroke:none;stroke-width:2px;fill:#fff" transform="translate(11 10)"/><path d="M17 22v-1.713a5.6 5.6 0 0 0 2.014-.843l1.194 1.18 1.568-1.577-1.195-1.18c.403-.614.683-1.3.825-2.018l1.622-.01v-2.22l-1.636.01a5.6 5.6 0 0 0-.846-2.006l1.13-1.136-1.583-1.563-1.13 1.136a5.7 5.7 0 0 0-2.022-.823l.01-1.618h-2.242l.004 1.631q-.531.11-1.05.324a5.7 5.7 0 0 0-.963.52l-1.17-1.158-1.567 1.58 1.169 1.156a5.7 5.7 0 0 0-.825 2.017l-1.659.003v2.222l1.673-.006a5.5 5.5 0 0 0 .847 2.005l-1.2 1.197 1.585 1.56 1.196-1.193a5.7 5.7 0 0 0 2.023.823l.001 1.7zm.221-3.996a3.53 3.53 0 0 1-4.61-1.874 3.51 3.51 0 0 1 1.881-4.596 3.53 3.53 0 0 1 4.609 1.874 3.51 3.51 0 0 1-1.88 4.596" style="fill:#fff;stroke-linecap:round;stroke-linejoin:round;stroke:#22242a;stroke-width:1px"/></g><path d="M0 0h100v80H0z" class="djs-hit djs-hit-all" style="fill:none;stroke-opacity:0;stroke:#fff;stroke-width:15px" transform="translate(791 352)"/></g></g><g class="djs-group"><g class="djs-element djs-shape" data-element-id="Task_CalculatePriority" style="display:block"><g class="djs-visual" transform="translate(943 352)"><rect width="100" height="80" rx="10" ry="10" style="stroke-linecap:round;stroke-linejoin:round;stroke:#22242a;stroke-width:2px;fill:#fff;fill-opacity:.95"/><text class="djs-label" style="font-family:Arial,sans-serif;font-size:12px;font-weight:400;fill:#22242a"><tspan x="11.977" y="36.4">Calculate Gap </tspan><tspan x="31.328" y="50.8">Priority</tspan></text><circle cx="5" cy="5" r="5" style="stroke-linecap:round;stroke-linejoin:round;stroke:none;stroke-width:2px;fill:#fff" transform="translate(6 6)"/><path d="M12 18v-1.713a5.6 5.6 0 0 0 2.014-.843l1.194 1.18 1.568-1.577-1.195-1.18c.403-.614.683-1.3.825-2.018l1.622-.01v-2.22l-1.636.01a5.6 5.6 0 0 0-.846-2.006l1.13-1.136-1.583-1.563-1.13 1.136a5.7 5.7 0 0 0-2.022-.823l.01-1.618H9.708l.004 1.631q-.531.11-1.05.324a5.7 5.7 0 0 0-.963.52L6.53 4.936l-1.567 1.58 1.169 1.156a5.7 5.7 0 0 0-.825 2.017l-1.659.003v2.222l1.673-.006a5.5 5.5 0 0 0 .847 2.005l-1.2 1.197 1.585 1.56 1.196-1.193a5.7 5.7 0 0 0 2.023.823l.001 1.7zm.221-3.996a3.53 3.53 0 0 1-4.61-1.874 3.51 3.51 0 0 1 1.881-4.596 3.53 3.53 0 0 1 4.609 1.874 3.51 3.51 0 0 1-1.88 4.596" style="fill:#fff;stroke-linecap:round;stroke-linejoin:round;stroke:#22242a;stroke-width:1px"/><circle cx="5" cy="5" r="5" style="stroke-linecap:round;stroke-linejoin:round;stroke:none;stroke-width:2px;fill:#fff" transform="translate(11 10)"/><path d="M17 22v-1.713a5.6 5.6 0 0 0 2.014-.843l1.194 1.18 1.568-1.577-1.195-1.18c.403-.614.683-1.3.825-2.018l1.622-.01v-2.22l-1.636.01a5.6 5.6 0 0 0-.846-2.006l1.13-1.136-1.583-1.563-1.13 1.136a5.7 5.7 0 0 0-2.022-.823l.01-1.618h-2.242l.004 1.631q-.531.11-1.05.324a5.7 5.7 0 0 0-.963.52l-1.17-1.158-1.567 1.58 1.169 1.156a5.7 5.7 0 0 0-.825 2.017l-1.659.003v2.222l1.673-.006a5.5 5.5 0 0 0 .847 2.005l-1.2 1.197 1.585 1.56 1.196-1.193a5.7 5.7 0 0 0 2.023.823l.001 1.7zm.221-3.996a3.53 3.53 0 0 1-4.61-1.874 3.51 3.51 0 0 1 1.881-4.596 3.53 3.53 0 0 1 4.609 1.874 3.51 3.51 0 0 1-1.88 4.596" style="fill:#fff;stroke-linecap:round;stroke-linejoin:round;stroke:#22242a;stroke-width:1px"/></g><path d="M0 0h100v80H0z" class="djs-hit djs-hit-all" style="fill:none;stroke-opacity:0;stroke:#fff;stroke-width:15px" transform="translate(943 352)"/></g></g><g class="djs-group"><g class="djs-element djs-shape" data-element-id="Task_CompileReport" style="display:block"><g class="djs-visual" transform="translate(1095 352)"><rect width="100" height="80" rx="10" ry="10" style="stroke-linecap:round;stroke-linejoin:round;stroke:#22242a;stroke-width:2px;fill:#fff;fill-opacity:.95"/><text class="djs-label" style="font-family:Arial,sans-serif;font-size:12px;font-weight:400;fill:#22242a"><tspan x="14.984" y="36.4">Compile Gap </tspan><tspan x="31.984" y="50.8">Report</tspan></text><circle cx="5" cy="5" r="5" style="stroke-linecap:round;stroke-linejoin:round;stroke:none;stroke-width:2px;fill:#fff" transform="translate(6 6)"/><path d="M12 18v-1.713a5.6 5.6 0 0 0 2.014-.843l1.194 1.18 1.568-1.577-1.195-1.18c.403-.614.683-1.3.825-2.018l1.622-.01v-2.22l-1.636.01a5.6 5.6 0 0 0-.846-2.006l1.13-1.136-1.583-1.563-1.13 1.136a5.7 5.7 0 0 0-2.022-.823l.01-1.618H9.708l.004 1.631q-.531.11-1.05.324a5.7 5.7 0 0 0-.963.52L6.53 4.936l-1.567 1.58 1.169 1.156a5.7 5.7 0 0 0-.825 2.017l-1.659.003v2.222l1.673-.006a5.5 5.5 0 0 0 .847 2.005l-1.2 1.197 1.585 1.56 1.196-1.193a5.7 5.7 0 0 0 2.023.823l.001 1.7zm.221-3.996a3.53 3.53 0 0 1-4.61-1.874 3.51 3.51 0 0 1 1.881-4.596 3.53 3.53 0 0 1 4.609 1.874 3.51 3.51 0 0 1-1.88 4.596" style="fill:#fff;stroke-linecap:round;stroke-linejoin:round;stroke:#22242a;stroke-width:1px"/><circle cx="5" cy="5" r="5" style="stroke-linecap:round;stroke-linejoin:round;stroke:none;stroke-width:2px;fill:#fff" transform="translate(11 10)"/><path d="M17 22v-1.713a5.6 5.6 0 0 0 2.014-.843l1.194 1.18 1.568-1.577-1.195-1.18c.403-.614.683-1.3.825-2.018l1.622-.01v-2.22l-1.636.01a5.6 5.6 0 0 0-.846-2.006l1.13-1.136-1.583-1.563-1.13 1.136a5.7 5.7 0 0 0-2.022-.823l.01-1.618h-2.242l.004 1.631q-.531.11-1.05.324a5.7 5.7 0 0 0-.963.52l-1.17-1.158-1.567 1.58 1.169 1.156a5.7 5.7 0 0 0-.825 2.017l-1.659.003v2.222l1.673-.006a5.5 5.5 0 0 0 .847 2.005l-1.2 1.197 1.585 1.56 1.196-1.193a5.7 5.7 0 0 0 2.023.823l.001 1.7zm.221-3.996a3.53 3.53 0 0 1-4.61-1.874 3.51 3.51 0 0 1 1.881-4.596 3.53 3.53 0 0 1 4.609 1.874 3.51 3.51 0 0 1-1.88 4.596" style="fill:#fff;stroke-linecap:round;stroke-linejoin:round;stroke:#22242a;stroke-width:1px"/></g><path d="M0 0h100v80H0z" class="djs-hit djs-hit-all" style="fill:none;stroke-opacity:0;stroke:#fff;stroke-width:15px" transform="translate(1095 352)"/></g></g><g class="djs-group"><g class="djs-element djs-shape" data-element-id="Task_ReviewGaps" style="display:block"><g class="djs-visual" transform="translate(1095 582)"><rect width="100" height="80" rx="10" ry="10" style="stroke-linecap:round;stroke-linejoin:round;stroke:#22242a;stroke-width:2px;fill:#fff;fill-opacity:.95"/><text class="djs-label" style="font-family:Arial,sans-serif;font-size:12px;font-weight:400;fill:#22242a"><tspan x="17.313" y="36.4">Review Gap </tspan><tspan x="27.665" y="50.8">Analysis</tspan></text><path d="M15 12c.909-.845 1.594-2.049 1.594-3.385 0-2.554-1.805-4.622-4.357-4.622S7.949 6.061 7.949 8.615c0 1.348.974 2.562 1.896 3.405-.529.187-5.669 2.097-5.794 4.756v6.718h17v-6.718c0-2.298-5.528-4.595-6.051-4.776m-8 6v5.5m11 0v-5" style="fill:#fff;stroke-linecap:round;stroke-linejoin:round;stroke:#22242a;stroke-width:.5px"/><path d="M17.162 13.009c0 2.447-2.158 4.431-4.821 4.431-2.665 0-4.822-1.981-4.822-4.431" style="fill:#fff;stroke-linecap:round;stroke-linejoin:round;stroke:#22242a;stroke-width:.5px"/><path d="M8.1 8.2s2.251-2.358 4.274-1.177 4.221 1.537 4.124.965c-.098-.57-.117-3.791-4.191-4.136C8.732 3.853 8.099 7.219 8.1 8.2" style="fill:#22242a;stroke-linecap:round;stroke-linejoin:round;stroke:#22242a;stroke-width:.5px"/></g><path d="M0 0h100v80H0z" class="djs-hit djs-hit-all" style="fill:none;stroke-opacity:0;stroke:#fff;stroke-width:15px" transform="translate(1095 582)"/></g></g><g class="djs-group"><g class="djs-element djs-shape" data-element-id="Gateway_Approved" style="display:block"><g class="djs-visual"><path d="m25 0 25 25-25 25L0 25z" style="stroke-linecap:round;stroke-linejoin:round;stroke:#22242a;stroke-width:2px;fill:#fff;fill-opacity:.95" transform="translate(1247 597)"/><path d="m16 15 7.429 9.714L16 34.43h3.429l5.714-7.465 5.714 7.465h3.429l-7.429-9.715L34.286 15h-3.429l-5.714 7.464L19.429 15z" style="fill:#22242a;stroke-linecap:round;stroke-linejoin:round;stroke:#22242a;stroke-width:1px" transform="translate(1247 597)"/></g><path d="M0 0h50v50H0z" class="djs-hit djs-hit-all" style="fill:none;stroke-opacity:0;stroke:#fff;stroke-width:15px" transform="translate(1247 597)"/></g></g><g class="djs-group"><g class="djs-element djs-shape" data-element-id="Gateway_Approved_label" style="display:block"><g class="djs-visual"><text class="djs-label" style="font-family:Arial,sans-serif;font-size:11px;font-weight:400;fill:#22242a" transform="translate(1245 573)"><tspan x="0" y="9.9">Approved?</tspan></text></g><path d="M0 0h54v14H0z" class="djs-hit djs-hit-all" style="fill:none;stroke-opacity:0;stroke:#fff;stroke-width:15px" transform="translate(1245 573)"/></g></g><g class="djs-group"><g class="djs-element djs-shape" data-element-id="Task_ProvideFeedback" style="display:block"><g class="djs-visual" transform="translate(1222 707)"><rect width="100" height="80" rx="10" ry="10" style="stroke-linecap:round;stroke-linejoin:round;stroke:#22242a;stroke-width:2px;fill:#fff;fill-opacity:.95"/><text class="djs-label" style="font-family:Arial,sans-serif;font-size:12px;font-weight:400;fill:#22242a"><tspan x="29.656" y="36.4">Provide </tspan><tspan x="23.648" y="50.8">Feedback</tspan></text><path d="M15 12c.909-.845 1.594-2.049 1.594-3.385 0-2.554-1.805-4.622-4.357-4.622S7.949 6.061 7.949 8.615c0 1.348.974 2.562 1.896 3.405-.529.187-5.669 2.097-5.794 4.756v6.718h17v-6.718c0-2.298-5.528-4.595-6.051-4.776m-8 6v5.5m11 0v-5" style="fill:#fff;stroke-linecap:round;stroke-linejoin:round;stroke:#22242a;stroke-width:.5px"/><path d="M17.162 13.009c0 2.447-2.158 4.431-4.821 4.431-2.665 0-4.822-1.981-4.822-4.431" style="fill:#fff;stroke-linecap:round;stroke-linejoin:round;stroke:#22242a;stroke-width:.5px"/><path d="M8.1 8.2s2.251-2.358 4.274-1.177 4.221 1.537 4.124.965c-.098-.57-.117-3.791-4.191-4.136C8.732 3.853 8.099 7.219 8.1 8.2" style="fill:#22242a;stroke-linecap:round;stroke-linejoin:round;stroke:#22242a;stroke-width:.5px"/></g><path d="M0 0h100v80H0z" class="djs-hit djs-hit-all" style="fill:none;stroke-opacity:0;stroke:#fff;stroke-width:15px" transform="translate(1222 707)"/></g></g><g class="djs-group"><g class="djs-element djs-shape" data-element-id="EndEvent_Complete" style="display:block" transform="translate(1349 604)"><circle cx="18" cy="18" r="18" class="djs-visual" style="stroke-linecap:round;stroke-linejoin:round;stroke:#22242a;stroke-width:4px;fill:#fff;fill-opacity:.95"/><path d="M0 0h36v36H0z" class="djs-hit djs-hit-all" style="fill:none;stroke-opacity:0;stroke:#fff;stroke-width:15px"/></g></g><g class="djs-group"><g class="djs-element djs-shape" data-element-id="EndEvent_Complete_label" style="display:block"><g class="djs-visual"><text class="djs-label" style="font-family:Arial,sans-serif;font-size:11px;font-weight:400;fill:#22242a" transform="translate(1343 647)"><tspan x="3.063" y="9.9">Analysis</tspan><tspan x="0" y="23.1">Complete</tspan></text></g><path d="M0 0h48v27H0z" class="djs-hit djs-hit-all" style="fill:none;stroke-opacity:0;stroke:#fff;stroke-width:15px" transform="translate(1343 647)"/></g></g><g class="djs-group"><g class="djs-element djs-connection" data-element-id="Flow_01" style="display:block"><g class="djs-visual"><defs><marker id="a" markerHeight="10" markerWidth="10" orient="auto" refX="11" refY="10" viewBox="0 0 20 20"><path d="m1 5 10 5-10 5Z" style="stroke-linecap:round;stroke-linejoin:round;stroke:#22242a;stroke-width:1px;fill:#22242a"/></marker></defs><path d="M283 162h52" data-corner-radius="5" style="fill:none;stroke-linecap:round;stroke-linejoin:round;stroke:#22242a;stroke-width:2px;marker-end:url(#a)"/></g><path d="M283 162h52" class="djs-hit djs-hit-stroke" style="fill:none;stroke-opacity:0;stroke:#fff;stroke-width:15px"/></g></g><g class="djs-group"><g class="djs-element djs-connection" data-element-id="Flow_02" style="display:block"><g class="djs-visual"><defs><marker id="b" markerHeight="10" markerWidth="10" orient="auto" refX="11" refY="10" viewBox="0 0 20 20"><path d="m1 5 10 5-10 5Z" style="stroke-linecap:round;stroke-linejoin:round;stroke:#22242a;stroke-width:1px;fill:#22242a"/></marker></defs><path d="M435 162h52" data-corner-radius="5" style="fill:none;stroke-linecap:round;stroke-linejoin:round;stroke:#22242a;stroke-width:2px;marker-end:url(#b)"/></g><path d="M435 162h52" class="djs-hit djs-hit-stroke" style="fill:none;stroke-opacity:0;stroke:#fff;stroke-width:15px"/></g></g><g class="djs-group"><g class="djs-element djs-connection" data-element-id="Flow_03" style="display:block"><g class="djs-visual"><defs><marker id="c" markerHeight="10" markerWidth="10" orient="auto" refX="11" refY="10" viewBox="0 0 20 20"><path d="m1 5 10 5-10 5Z" style="stroke-linecap:round;stroke-linejoin:round;stroke:#22242a;stroke-width:1px;fill:#22242a"/></marker></defs><path d="M587 162h52" data-corner-radius="5" style="fill:none;stroke-linecap:round;stroke-linejoin:round;stroke:#22242a;stroke-width:2px;marker-end:url(#c)"/></g><path d="M587 162h52" class="djs-hit djs-hit-stroke" style="fill:none;stroke-opacity:0;stroke:#fff;stroke-width:15px"/></g></g><g class="djs-group"><g class="djs-element djs-connection" data-element-id="Flow_04" style="display:block"><g class="djs-visual"><defs><marker id="d" markerHeight="10" markerWidth="10" orient="auto" refX="11" refY="10" viewBox="0 0 20 20"><path d="m1 5 10 5-10 5Z" style="stroke-linecap:round;stroke-linejoin:round;stroke:#22242a;stroke-width:1px;fill:#22242a"/></marker></defs><path d="M689 202v150" data-corner-radius="5" style="fill:none;stroke-linecap:round;stroke-linejoin:round;stroke:#22242a;stroke-width:2px;marker-end:url(#d)"/></g><path d="M689 202v150" class="djs-hit djs-hit-stroke" style="fill:none;stroke-opacity:0;stroke:#fff;stroke-width:15px"/></g></g><g class="djs-group"><g class="djs-element djs-connection" data-element-id="Flow_07" style="display:block"><g class="djs-visual"><defs><marker id="e" markerHeight="10" markerWidth="10" orient="auto" refX="11" refY="10" viewBox="0 0 20 20"><path d="m1 5 10 5-10 5Z" style="stroke-linecap:round;stroke-linejoin:round;stroke:#22242a;stroke-width:1px;fill:#22242a"/></marker></defs><path d="M739 392h52" data-corner-radius="5" style="fill:none;stroke-linecap:round;stroke-linejoin:round;stroke:#22242a;stroke-width:2px;marker-end:url(#e)"/></g><path d="M739 392h52" class="djs-hit djs-hit-stroke" style="fill:none;stroke-opacity:0;stroke:#fff;stroke-width:15px"/></g></g><g class="djs-group"><g class="djs-element djs-connection" data-element-id="Flow_08" style="display:block"><g class="djs-visual"><defs><marker id="f" markerHeight="10" markerWidth="10" orient="auto" refX="11" refY="10" viewBox="0 0 20 20"><path d="m1 5 10 5-10 5Z" style="stroke-linecap:round;stroke-linejoin:round;stroke:#22242a;stroke-width:1px;fill:#22242a"/></marker></defs><path d="M891 392h52" data-corner-radius="5" style="fill:none;stroke-linecap:round;stroke-linejoin:round;stroke:#22242a;stroke-width:2px;marker-end:url(#f)"/></g><path d="M891 392h52" class="djs-hit djs-hit-stroke" style="fill:none;stroke-opacity:0;stroke:#fff;stroke-width:15px"/></g></g><g class="djs-group"><g class="djs-element djs-connection" data-element-id="Flow_09" style="display:block"><g class="djs-visual"><defs><marker id="g" markerHeight="10" markerWidth="10" orient="auto" refX="11" refY="10" viewBox="0 0 20 20"><path d="m1 5 10 5-10 5Z" style="stroke-linecap:round;stroke-linejoin:round;stroke:#22242a;stroke-width:1px;fill:#22242a"/></marker></defs><path d="M1043 392h52" data-corner-radius="5" style="fill:none;stroke-linecap:round;stroke-linejoin:round;stroke:#22242a;stroke-width:2px;marker-end:url(#g)"/></g><path d="M1043 392h52" class="djs-hit djs-hit-stroke" style="fill:none;stroke-opacity:0;stroke:#fff;stroke-width:15px"/></g></g><g class="djs-group"><g class="djs-element djs-connection" data-element-id="Flow_10" style="display:block"><g class="djs-visual"><defs><marker id="h" markerHeight="10" markerWidth="10" orient="auto" refX="11" refY="10" viewBox="0 0 20 20"><path d="m1 5 10 5-10 5Z" style="stroke-linecap:round;stroke-linejoin:round;stroke:#22242a;stroke-width:1px;fill:#22242a"/></marker></defs><path d="M1145 432v150" data-corner-radius="5" style="fill:none;stroke-linecap:round;stroke-linejoin:round;stroke:#22242a;stroke-width:2px;marker-end:url(#h)"/></g><path d="M1145 432v150" class="djs-hit djs-hit-stroke" style="fill:none;stroke-opacity:0;stroke:#fff;stroke-width:15px"/></g></g><g class="djs-group"><g class="djs-element djs-connection" data-element-id="Flow_11" style="display:block"><g class="djs-visual"><defs><marker id="i" markerHeight="10" markerWidth="10" orient="auto" refX="11" refY="10" viewBox="0 0 20 20"><path d="m1 5 10 5-10 5Z" style="stroke-linecap:round;stroke-linejoin:round;stroke:#22242a;stroke-width:1px;fill:#22242a"/></marker></defs><path d="M1195 622h52" data-corner-radius="5" style="fill:none;stroke-linecap:round;stroke-linejoin:round;stroke:#22242a;stroke-width:2px;marker-end:url(#i)"/></g><path d="M1195 622h52" class="djs-hit djs-hit-stroke" style="fill:none;stroke-opacity:0;stroke:#fff;stroke-width:15px"/></g></g><g class="djs-group"><g class="djs-element djs-connection" data-element-id="Flow_12_Yes" style="display:block"><g class="djs-visual"><defs><marker id="j" markerHeight="10" markerWidth="10" orient="auto" refX="11" refY="10" viewBox="0 0 20 20"><path d="m1 5 10 5-10 5Z" style="stroke-linecap:round;stroke-linejoin:round;stroke:#22242a;stroke-width:1px;fill:#22242a"/></marker></defs><path d="M1297 622h52" data-corner-radius="5" style="fill:none;stroke-linecap:round;stroke-linejoin:round;stroke:#22242a;stroke-width:2px;marker-end:url(#j)"/></g><path d="M1297 622h52" class="djs-hit djs-hit-stroke" style="fill:none;stroke-opacity:0;stroke:#fff;stroke-width:15px"/></g></g><g class="djs-group"><g class="djs-element djs-shape" data-element-id="Flow_12_Yes_label" style="display:block"><g class="djs-visual"><text class="djs-label" style="font-family:Arial,sans-serif;font-size:11px;font-weight:400;fill:#22242a" transform="translate(1312 604)"><tspan x="0" y="9.9">Yes</tspan></text></g><path d="M0 0h18v14H0z" class="djs-hit djs-hit-all" style="fill:none;stroke-opacity:0;stroke:#fff;stroke-width:15px" transform="translate(1312 604)"/></g></g><g class="djs-group"><g class="djs-element djs-connection" data-element-id="Flow_12_No" style="display:block"><g class="djs-visual"><defs><marker id="k" markerHeight="10" markerWidth="10" orient="auto" refX="11" refY="10" viewBox="0 0 20 20"><path d="m1 5 10 5-10 5Z" style="stroke-linecap:round;stroke-linejoin:round;stroke:#22242a;stroke-width:1px;fill:#22242a"/></marker></defs><path d="M1272 647v60" data-corner-radius="5" style="fill:none;stroke-linecap:round;stroke-linejoin:round;stroke:#22242a;stroke-width:2px;marker-end:url(#k)"/></g><path d="M1272 647v60" class="djs-hit djs-hit-stroke" style="fill:none;stroke-opacity:0;stroke:#fff;stroke-width:15px"/></g></g><g class="djs-group"><g class="djs-element djs-shape" data-element-id="Flow_12_No_label" style="display:block"><g class="djs-visual"><text class="djs-label" style="font-family:Arial,sans-serif;font-size:11px;font-weight:400;fill:#22242a" transform="translate(1280 670)"><tspan x="0" y="9.9">No</tspan></text></g><path d="M0 0h15v14H0z" class="djs-hit djs-hit-all" style="fill:none;stroke-opacity:0;stroke:#fff;stroke-width:15px" transform="translate(1280 670)"/></g></g><g class="djs-group"><g class="djs-element djs-connection" data-element-id="Flow_Feedback" style="display:block"><g class="djs-visual"><defs><marker id="l" markerHeight="10" markerWidth="10" orient="auto" refX="11" refY="10" viewBox="0 0 20 20"><path d="m1 5 10 5-10 5Z" style="stroke-linecap:round;stroke-linejoin:round;stroke:#22242a;stroke-width:1px;fill:#22242a"/></marker></defs><path d="M1222 747H587c-2.5 0-5-2.5-5-5V397c0-2.5 2.5-5 5-5h52" data-corner-radius="5" style="fill:none;stroke-linecap:round;stroke-linejoin:round;stroke:#22242a;stroke-width:2px;marker-end:url(#l)"/></g><path d="M1222 747H582V392h57" class="djs-hit djs-hit-stroke" style="fill:none;stroke-opacity:0;stroke:#fff;stroke-width:15px"/></g></g></g></g></svg>